G75*
G70*
%OFA0B0*%
%FSLAX24Y24*%
%IPPOS*%
%LPD*%
%AMOC8*
5,1,8,0,0,1.08239X$1,22.5*
%
%ADD10C,0.0000*%
%ADD11C,0.0040*%
%ADD12C,0.0060*%
%ADD13C,0.0100*%
%ADD14C,0.0030*%
%ADD15R,0.0200X0.0800*%
%ADD16R,0.0250X0.0200*%
%ADD17C,0.0080*%
%ADD18C,0.0050*%
%ADD19C,0.0120*%
%ADD20R,0.0150X0.0200*%
%ADD21R,0.0200X0.0150*%
D10*
X000101Y001421D02*
X000101Y013232D01*
X023723Y013232D01*
X023723Y001421D01*
X000101Y001421D01*
X000258Y002209D02*
X000260Y002259D01*
X000266Y002309D01*
X000276Y002358D01*
X000290Y002406D01*
X000307Y002453D01*
X000328Y002498D01*
X000353Y002542D01*
X000381Y002583D01*
X000413Y002622D01*
X000447Y002659D01*
X000484Y002693D01*
X000524Y002723D01*
X000566Y002750D01*
X000610Y002774D01*
X000656Y002795D01*
X000703Y002811D01*
X000751Y002824D01*
X000801Y002833D01*
X000850Y002838D01*
X000901Y002839D01*
X000951Y002836D01*
X001000Y002829D01*
X001049Y002818D01*
X001097Y002803D01*
X001143Y002785D01*
X001188Y002763D01*
X001231Y002737D01*
X001272Y002708D01*
X001311Y002676D01*
X001347Y002641D01*
X001379Y002603D01*
X001409Y002563D01*
X001436Y002520D01*
X001459Y002476D01*
X001478Y002430D01*
X001494Y002382D01*
X001506Y002333D01*
X001514Y002284D01*
X001518Y002234D01*
X001518Y002184D01*
X001514Y002134D01*
X001506Y002085D01*
X001494Y002036D01*
X001478Y001988D01*
X001459Y001942D01*
X001436Y001898D01*
X001409Y001855D01*
X001379Y001815D01*
X001347Y001777D01*
X001311Y001742D01*
X001272Y001710D01*
X001231Y001681D01*
X001188Y001655D01*
X001143Y001633D01*
X001097Y001615D01*
X001049Y001600D01*
X001000Y001589D01*
X000951Y001582D01*
X000901Y001579D01*
X000850Y001580D01*
X000801Y001585D01*
X000751Y001594D01*
X000703Y001607D01*
X000656Y001623D01*
X000610Y001644D01*
X000566Y001668D01*
X000524Y001695D01*
X000484Y001725D01*
X000447Y001759D01*
X000413Y001796D01*
X000381Y001835D01*
X000353Y001876D01*
X000328Y001920D01*
X000307Y001965D01*
X000290Y002012D01*
X000276Y002060D01*
X000266Y002109D01*
X000260Y002159D01*
X000258Y002209D01*
X000845Y006577D02*
X000847Y006608D01*
X000853Y006639D01*
X000862Y006669D01*
X000875Y006698D01*
X000892Y006725D01*
X000912Y006749D01*
X000934Y006771D01*
X000960Y006790D01*
X000987Y006806D01*
X001016Y006818D01*
X001046Y006827D01*
X001077Y006832D01*
X001109Y006833D01*
X001140Y006830D01*
X001171Y006823D01*
X001201Y006813D01*
X001229Y006799D01*
X001255Y006781D01*
X001279Y006761D01*
X001300Y006737D01*
X001319Y006712D01*
X001334Y006684D01*
X001345Y006655D01*
X001353Y006624D01*
X001357Y006593D01*
X001357Y006561D01*
X001353Y006530D01*
X001345Y006499D01*
X001334Y006470D01*
X001319Y006442D01*
X001300Y006417D01*
X001279Y006393D01*
X001255Y006373D01*
X001229Y006355D01*
X001201Y006341D01*
X001171Y006331D01*
X001140Y006324D01*
X001109Y006321D01*
X001077Y006322D01*
X001046Y006327D01*
X001016Y006336D01*
X000987Y006348D01*
X000960Y006364D01*
X000934Y006383D01*
X000912Y006405D01*
X000892Y006429D01*
X000875Y006456D01*
X000862Y006485D01*
X000853Y006515D01*
X000847Y006546D01*
X000845Y006577D01*
X000845Y008077D02*
X000847Y008108D01*
X000853Y008139D01*
X000862Y008169D01*
X000875Y008198D01*
X000892Y008225D01*
X000912Y008249D01*
X000934Y008271D01*
X000960Y008290D01*
X000987Y008306D01*
X001016Y008318D01*
X001046Y008327D01*
X001077Y008332D01*
X001109Y008333D01*
X001140Y008330D01*
X001171Y008323D01*
X001201Y008313D01*
X001229Y008299D01*
X001255Y008281D01*
X001279Y008261D01*
X001300Y008237D01*
X001319Y008212D01*
X001334Y008184D01*
X001345Y008155D01*
X001353Y008124D01*
X001357Y008093D01*
X001357Y008061D01*
X001353Y008030D01*
X001345Y007999D01*
X001334Y007970D01*
X001319Y007942D01*
X001300Y007917D01*
X001279Y007893D01*
X001255Y007873D01*
X001229Y007855D01*
X001201Y007841D01*
X001171Y007831D01*
X001140Y007824D01*
X001109Y007821D01*
X001077Y007822D01*
X001046Y007827D01*
X001016Y007836D01*
X000987Y007848D01*
X000960Y007864D01*
X000934Y007883D01*
X000912Y007905D01*
X000892Y007929D01*
X000875Y007956D01*
X000862Y007985D01*
X000853Y008015D01*
X000847Y008046D01*
X000845Y008077D01*
X000258Y012445D02*
X000260Y012495D01*
X000266Y012545D01*
X000276Y012594D01*
X000290Y012642D01*
X000307Y012689D01*
X000328Y012734D01*
X000353Y012778D01*
X000381Y012819D01*
X000413Y012858D01*
X000447Y012895D01*
X000484Y012929D01*
X000524Y012959D01*
X000566Y012986D01*
X000610Y013010D01*
X000656Y013031D01*
X000703Y013047D01*
X000751Y013060D01*
X000801Y013069D01*
X000850Y013074D01*
X000901Y013075D01*
X000951Y013072D01*
X001000Y013065D01*
X001049Y013054D01*
X001097Y013039D01*
X001143Y013021D01*
X001188Y012999D01*
X001231Y012973D01*
X001272Y012944D01*
X001311Y012912D01*
X001347Y012877D01*
X001379Y012839D01*
X001409Y012799D01*
X001436Y012756D01*
X001459Y012712D01*
X001478Y012666D01*
X001494Y012618D01*
X001506Y012569D01*
X001514Y012520D01*
X001518Y012470D01*
X001518Y012420D01*
X001514Y012370D01*
X001506Y012321D01*
X001494Y012272D01*
X001478Y012224D01*
X001459Y012178D01*
X001436Y012134D01*
X001409Y012091D01*
X001379Y012051D01*
X001347Y012013D01*
X001311Y011978D01*
X001272Y011946D01*
X001231Y011917D01*
X001188Y011891D01*
X001143Y011869D01*
X001097Y011851D01*
X001049Y011836D01*
X001000Y011825D01*
X000951Y011818D01*
X000901Y011815D01*
X000850Y011816D01*
X000801Y011821D01*
X000751Y011830D01*
X000703Y011843D01*
X000656Y011859D01*
X000610Y011880D01*
X000566Y011904D01*
X000524Y011931D01*
X000484Y011961D01*
X000447Y011995D01*
X000413Y012032D01*
X000381Y012071D01*
X000353Y012112D01*
X000328Y012156D01*
X000307Y012201D01*
X000290Y012248D01*
X000276Y012296D01*
X000266Y012345D01*
X000260Y012395D01*
X000258Y012445D01*
X022345Y008077D02*
X022347Y008108D01*
X022353Y008139D01*
X022362Y008169D01*
X022375Y008198D01*
X022392Y008225D01*
X022412Y008249D01*
X022434Y008271D01*
X022460Y008290D01*
X022487Y008306D01*
X022516Y008318D01*
X022546Y008327D01*
X022577Y008332D01*
X022609Y008333D01*
X022640Y008330D01*
X022671Y008323D01*
X022701Y008313D01*
X022729Y008299D01*
X022755Y008281D01*
X022779Y008261D01*
X022800Y008237D01*
X022819Y008212D01*
X022834Y008184D01*
X022845Y008155D01*
X022853Y008124D01*
X022857Y008093D01*
X022857Y008061D01*
X022853Y008030D01*
X022845Y007999D01*
X022834Y007970D01*
X022819Y007942D01*
X022800Y007917D01*
X022779Y007893D01*
X022755Y007873D01*
X022729Y007855D01*
X022701Y007841D01*
X022671Y007831D01*
X022640Y007824D01*
X022609Y007821D01*
X022577Y007822D01*
X022546Y007827D01*
X022516Y007836D01*
X022487Y007848D01*
X022460Y007864D01*
X022434Y007883D01*
X022412Y007905D01*
X022392Y007929D01*
X022375Y007956D01*
X022362Y007985D01*
X022353Y008015D01*
X022347Y008046D01*
X022345Y008077D01*
X022345Y006577D02*
X022347Y006608D01*
X022353Y006639D01*
X022362Y006669D01*
X022375Y006698D01*
X022392Y006725D01*
X022412Y006749D01*
X022434Y006771D01*
X022460Y006790D01*
X022487Y006806D01*
X022516Y006818D01*
X022546Y006827D01*
X022577Y006832D01*
X022609Y006833D01*
X022640Y006830D01*
X022671Y006823D01*
X022701Y006813D01*
X022729Y006799D01*
X022755Y006781D01*
X022779Y006761D01*
X022800Y006737D01*
X022819Y006712D01*
X022834Y006684D01*
X022845Y006655D01*
X022853Y006624D01*
X022857Y006593D01*
X022857Y006561D01*
X022853Y006530D01*
X022845Y006499D01*
X022834Y006470D01*
X022819Y006442D01*
X022800Y006417D01*
X022779Y006393D01*
X022755Y006373D01*
X022729Y006355D01*
X022701Y006341D01*
X022671Y006331D01*
X022640Y006324D01*
X022609Y006321D01*
X022577Y006322D01*
X022546Y006327D01*
X022516Y006336D01*
X022487Y006348D01*
X022460Y006364D01*
X022434Y006383D01*
X022412Y006405D01*
X022392Y006429D01*
X022375Y006456D01*
X022362Y006485D01*
X022353Y006515D01*
X022347Y006546D01*
X022345Y006577D01*
X022305Y002209D02*
X022307Y002259D01*
X022313Y002309D01*
X022323Y002358D01*
X022337Y002406D01*
X022354Y002453D01*
X022375Y002498D01*
X022400Y002542D01*
X022428Y002583D01*
X022460Y002622D01*
X022494Y002659D01*
X022531Y002693D01*
X022571Y002723D01*
X022613Y002750D01*
X022657Y002774D01*
X022703Y002795D01*
X022750Y002811D01*
X022798Y002824D01*
X022848Y002833D01*
X022897Y002838D01*
X022948Y002839D01*
X022998Y002836D01*
X023047Y002829D01*
X023096Y002818D01*
X023144Y002803D01*
X023190Y002785D01*
X023235Y002763D01*
X023278Y002737D01*
X023319Y002708D01*
X023358Y002676D01*
X023394Y002641D01*
X023426Y002603D01*
X023456Y002563D01*
X023483Y002520D01*
X023506Y002476D01*
X023525Y002430D01*
X023541Y002382D01*
X023553Y002333D01*
X023561Y002284D01*
X023565Y002234D01*
X023565Y002184D01*
X023561Y002134D01*
X023553Y002085D01*
X023541Y002036D01*
X023525Y001988D01*
X023506Y001942D01*
X023483Y001898D01*
X023456Y001855D01*
X023426Y001815D01*
X023394Y001777D01*
X023358Y001742D01*
X023319Y001710D01*
X023278Y001681D01*
X023235Y001655D01*
X023190Y001633D01*
X023144Y001615D01*
X023096Y001600D01*
X023047Y001589D01*
X022998Y001582D01*
X022948Y001579D01*
X022897Y001580D01*
X022848Y001585D01*
X022798Y001594D01*
X022750Y001607D01*
X022703Y001623D01*
X022657Y001644D01*
X022613Y001668D01*
X022571Y001695D01*
X022531Y001725D01*
X022494Y001759D01*
X022460Y001796D01*
X022428Y001835D01*
X022400Y001876D01*
X022375Y001920D01*
X022354Y001965D01*
X022337Y002012D01*
X022323Y002060D01*
X022313Y002109D01*
X022307Y002159D01*
X022305Y002209D01*
X022305Y012445D02*
X022307Y012495D01*
X022313Y012545D01*
X022323Y012594D01*
X022337Y012642D01*
X022354Y012689D01*
X022375Y012734D01*
X022400Y012778D01*
X022428Y012819D01*
X022460Y012858D01*
X022494Y012895D01*
X022531Y012929D01*
X022571Y012959D01*
X022613Y012986D01*
X022657Y013010D01*
X022703Y013031D01*
X022750Y013047D01*
X022798Y013060D01*
X022848Y013069D01*
X022897Y013074D01*
X022948Y013075D01*
X022998Y013072D01*
X023047Y013065D01*
X023096Y013054D01*
X023144Y013039D01*
X023190Y013021D01*
X023235Y012999D01*
X023278Y012973D01*
X023319Y012944D01*
X023358Y012912D01*
X023394Y012877D01*
X023426Y012839D01*
X023456Y012799D01*
X023483Y012756D01*
X023506Y012712D01*
X023525Y012666D01*
X023541Y012618D01*
X023553Y012569D01*
X023561Y012520D01*
X023565Y012470D01*
X023565Y012420D01*
X023561Y012370D01*
X023553Y012321D01*
X023541Y012272D01*
X023525Y012224D01*
X023506Y012178D01*
X023483Y012134D01*
X023456Y012091D01*
X023426Y012051D01*
X023394Y012013D01*
X023358Y011978D01*
X023319Y011946D01*
X023278Y011917D01*
X023235Y011891D01*
X023190Y011869D01*
X023144Y011851D01*
X023096Y011836D01*
X023047Y011825D01*
X022998Y011818D01*
X022948Y011815D01*
X022897Y011816D01*
X022848Y011821D01*
X022798Y011830D01*
X022750Y011843D01*
X022703Y011859D01*
X022657Y011880D01*
X022613Y011904D01*
X022571Y011931D01*
X022531Y011961D01*
X022494Y011995D01*
X022460Y012032D01*
X022428Y012071D01*
X022400Y012112D01*
X022375Y012156D01*
X022354Y012201D01*
X022337Y012248D01*
X022323Y012296D01*
X022313Y012345D01*
X022307Y012395D01*
X022305Y012445D01*
D11*
X021329Y012232D02*
X021329Y012022D01*
X021329Y012127D02*
X021014Y012127D01*
X021119Y012022D01*
X021067Y011906D02*
X021014Y011853D01*
X021014Y011748D01*
X021067Y011696D01*
X021276Y011696D01*
X021329Y011748D01*
X021329Y011853D01*
X021276Y011906D01*
X021172Y011906D01*
X021172Y011801D01*
X021329Y011580D02*
X021329Y011370D01*
X021014Y011370D01*
X021014Y011580D01*
X021172Y011475D02*
X021172Y011370D01*
X021172Y011253D02*
X021067Y011253D01*
X021014Y011201D01*
X021014Y011044D01*
X021329Y011044D01*
X021224Y011044D02*
X021224Y011201D01*
X021172Y011253D01*
X021224Y011148D02*
X021329Y011253D01*
X021224Y010927D02*
X021014Y010927D01*
X021014Y010717D02*
X021224Y010717D01*
X021329Y010822D01*
X021224Y010927D01*
X017365Y011117D02*
X017365Y011222D01*
X017313Y011275D01*
X017365Y011391D02*
X017155Y011601D01*
X017103Y011601D01*
X017050Y011549D01*
X017050Y011444D01*
X017103Y011391D01*
X017103Y011275D02*
X017050Y011222D01*
X017050Y011117D01*
X017103Y011065D01*
X017313Y011065D01*
X017365Y011117D01*
X017365Y011391D02*
X017365Y011601D01*
X015414Y011452D02*
X015204Y011452D01*
X015309Y011452D02*
X015309Y011766D01*
X015204Y011661D01*
X015087Y011609D02*
X014878Y011609D01*
X014878Y011452D02*
X014878Y011766D01*
X014761Y011766D02*
X014551Y011766D01*
X014656Y011766D02*
X014656Y011452D01*
X015087Y011452D02*
X015087Y011766D01*
X015130Y010715D02*
X015130Y010558D01*
X015235Y010610D01*
X015287Y010610D01*
X015339Y010558D01*
X015339Y010453D01*
X015287Y010401D01*
X015182Y010401D01*
X015130Y010453D01*
X015013Y010453D02*
X014961Y010401D01*
X014856Y010401D01*
X014803Y010453D01*
X014803Y010663D01*
X014856Y010715D01*
X014961Y010715D01*
X015013Y010663D01*
X015130Y010715D02*
X015339Y010715D01*
X017379Y008701D02*
X017379Y008491D01*
X017379Y008596D02*
X017065Y008596D01*
X017169Y008491D01*
X017117Y008374D02*
X017065Y008322D01*
X017065Y008217D01*
X017117Y008165D01*
X017327Y008165D01*
X017379Y008217D01*
X017379Y008322D01*
X017327Y008374D01*
X016207Y006666D02*
X016260Y006614D01*
X016260Y006509D01*
X016207Y006456D01*
X016260Y006340D02*
X016155Y006235D01*
X016155Y006287D02*
X016155Y006130D01*
X016260Y006130D02*
X015945Y006130D01*
X015945Y006287D01*
X015998Y006340D01*
X016102Y006340D01*
X016155Y006287D01*
X015998Y006456D02*
X015945Y006509D01*
X015945Y006614D01*
X015998Y006666D01*
X016050Y006666D01*
X016102Y006614D01*
X016155Y006666D01*
X016207Y006666D01*
X016102Y006614D02*
X016102Y006561D01*
X017307Y005660D02*
X017359Y005555D01*
X017464Y005450D01*
X017464Y005607D01*
X017516Y005660D01*
X017569Y005660D01*
X017621Y005607D01*
X017621Y005502D01*
X017569Y005450D01*
X017464Y005450D01*
X017359Y005334D02*
X017307Y005281D01*
X017307Y005176D01*
X017359Y005124D01*
X017569Y005124D01*
X017621Y005176D01*
X017621Y005281D01*
X017569Y005334D01*
X016287Y003715D02*
X016130Y003558D01*
X016339Y003558D01*
X016287Y003401D02*
X016287Y003715D01*
X016013Y003663D02*
X015961Y003715D01*
X015856Y003715D01*
X015803Y003663D01*
X015803Y003453D01*
X015856Y003401D01*
X015961Y003401D01*
X016013Y003453D01*
X013555Y005517D02*
X013240Y005517D01*
X013555Y005517D02*
X013555Y005727D01*
X013555Y005843D02*
X013240Y005843D01*
X013345Y005948D01*
X013240Y006053D01*
X013555Y006053D01*
X013502Y006170D02*
X013555Y006222D01*
X013555Y006327D01*
X013502Y006379D01*
X013398Y006379D01*
X013345Y006327D01*
X013345Y006274D01*
X013398Y006170D01*
X013240Y006170D01*
X013240Y006379D01*
X013240Y006496D02*
X013398Y006496D01*
X013345Y006601D01*
X013345Y006653D01*
X013398Y006706D01*
X013502Y006706D01*
X013555Y006653D01*
X013555Y006548D01*
X013502Y006496D01*
X013240Y006496D02*
X013240Y006706D01*
X013240Y006822D02*
X013398Y006822D01*
X013345Y006927D01*
X013345Y006979D01*
X013398Y007032D01*
X013502Y007032D01*
X013555Y006979D01*
X013555Y006875D01*
X013502Y006822D01*
X013240Y006822D02*
X013240Y007032D01*
X011127Y007156D02*
X010917Y007156D01*
X011022Y007156D02*
X011022Y006841D01*
X010800Y006894D02*
X010800Y007156D01*
X010591Y007156D02*
X010591Y006894D01*
X010643Y006841D01*
X010748Y006841D01*
X010800Y006894D01*
X010474Y006894D02*
X010474Y007103D01*
X010422Y007156D01*
X010317Y007156D01*
X010264Y007103D01*
X010264Y006894D01*
X010317Y006841D01*
X010422Y006841D01*
X010474Y006894D01*
X010422Y005656D02*
X010317Y005656D01*
X010264Y005603D01*
X010264Y005394D01*
X010317Y005341D01*
X010422Y005341D01*
X010474Y005394D01*
X010696Y005341D02*
X010696Y005656D01*
X010800Y005656D02*
X010591Y005656D01*
X010474Y005603D02*
X010422Y005656D01*
X010917Y005656D02*
X010917Y005341D01*
X011127Y005341D01*
X011810Y003577D02*
X011967Y003577D01*
X012019Y003524D01*
X012019Y003419D01*
X011967Y003367D01*
X011810Y003367D01*
X011915Y003367D02*
X012019Y003262D01*
X012136Y003262D02*
X012346Y003262D01*
X012241Y003262D02*
X012241Y003577D01*
X012136Y003472D01*
X011810Y003577D02*
X011810Y003262D01*
X011811Y001940D02*
X011969Y001940D01*
X012021Y001888D01*
X012021Y001678D01*
X011969Y001626D01*
X011811Y001626D01*
X011811Y001940D01*
X012138Y001835D02*
X012242Y001940D01*
X012242Y001626D01*
X012138Y001626D02*
X012347Y001626D01*
X019649Y002613D02*
X019964Y002613D01*
X019964Y002823D01*
X019964Y002940D02*
X019964Y003149D01*
X019964Y003044D02*
X019649Y003044D01*
X019754Y002940D01*
X021510Y005145D02*
X021817Y005145D01*
X021893Y005222D01*
X021893Y005376D01*
X021817Y005452D01*
X021510Y005452D01*
X021433Y005376D01*
X021433Y005222D01*
X021510Y005145D01*
X021433Y005606D02*
X021893Y005913D01*
X021433Y005913D01*
X021433Y005606D02*
X021893Y005606D01*
X011879Y008938D02*
X011827Y008885D01*
X011722Y008885D01*
X011669Y008938D01*
X011553Y008938D02*
X011500Y008885D01*
X011395Y008885D01*
X011343Y008938D01*
X011343Y009147D01*
X011395Y009200D01*
X011500Y009200D01*
X011553Y009147D01*
X011669Y009147D02*
X011722Y009200D01*
X011827Y009200D01*
X011879Y009147D01*
X011879Y009095D01*
X011827Y009042D01*
X011879Y008990D01*
X011879Y008938D01*
X011827Y009042D02*
X011774Y009042D01*
X011247Y008603D02*
X011194Y008656D01*
X011089Y008656D01*
X011037Y008603D01*
X011037Y008394D01*
X011089Y008341D01*
X011194Y008341D01*
X011247Y008394D01*
X011247Y008498D01*
X011142Y008498D01*
X010920Y008498D02*
X010711Y008498D01*
X010594Y008394D02*
X010542Y008341D01*
X010437Y008341D01*
X010384Y008394D01*
X010384Y008603D01*
X010437Y008656D01*
X010542Y008656D01*
X010594Y008603D01*
X010711Y008656D02*
X010711Y008341D01*
X010920Y008341D02*
X010920Y008656D01*
X010268Y008603D02*
X010216Y008656D01*
X010111Y008656D01*
X010058Y008603D01*
X010058Y008551D01*
X010111Y008498D01*
X010216Y008498D01*
X010268Y008446D01*
X010268Y008394D01*
X010216Y008341D01*
X010111Y008341D01*
X010058Y008394D01*
X009946Y008341D02*
X009841Y008341D01*
X009893Y008341D02*
X009893Y008656D01*
X009841Y008656D02*
X009946Y008656D01*
X009724Y008603D02*
X009672Y008656D01*
X009514Y008656D01*
X009514Y008341D01*
X009672Y008341D01*
X009724Y008394D01*
X009724Y008603D01*
X003922Y011777D02*
X003922Y011986D01*
X003870Y012039D01*
X003712Y012039D01*
X003712Y011724D01*
X003870Y011724D01*
X003922Y011777D01*
X003596Y011724D02*
X003596Y012039D01*
X003386Y012039D02*
X003596Y011724D01*
X003386Y011724D02*
X003386Y012039D01*
X003269Y011986D02*
X003217Y012039D01*
X003112Y012039D01*
X003060Y011986D01*
X003060Y011777D01*
X003112Y011724D01*
X003217Y011724D01*
X003269Y011777D01*
X003269Y011881D01*
X003165Y011881D01*
X011302Y012262D02*
X011302Y012577D01*
X011459Y012577D01*
X011512Y012524D01*
X011512Y012419D01*
X011459Y012367D01*
X011302Y012367D01*
X011407Y012367D02*
X011512Y012262D01*
X011628Y012262D02*
X011838Y012472D01*
X011838Y012524D01*
X011785Y012577D01*
X011681Y012577D01*
X011628Y012524D01*
X011628Y012262D02*
X011838Y012262D01*
X003789Y002950D02*
X003789Y002740D01*
X003684Y002845D02*
X003894Y002845D01*
X003568Y002793D02*
X003463Y002688D01*
X003358Y002793D01*
X003358Y003003D01*
X003568Y003003D02*
X003568Y002793D01*
D12*
X011101Y003121D02*
X011101Y003721D01*
X011103Y003738D01*
X011107Y003755D01*
X011114Y003771D01*
X011124Y003785D01*
X011137Y003798D01*
X011151Y003808D01*
X011167Y003815D01*
X011184Y003819D01*
X011201Y003821D01*
X011351Y003821D01*
X011401Y003771D01*
X012801Y003771D01*
X012851Y003821D01*
X013001Y003821D01*
X013018Y003819D01*
X013035Y003815D01*
X013051Y003808D01*
X013065Y003798D01*
X013078Y003785D01*
X013088Y003771D01*
X013095Y003755D01*
X013099Y003738D01*
X013101Y003721D01*
X013101Y003121D01*
X013099Y003104D01*
X013095Y003087D01*
X013088Y003071D01*
X013078Y003057D01*
X013065Y003044D01*
X013051Y003034D01*
X013035Y003027D01*
X013018Y003023D01*
X013001Y003021D01*
X012851Y003021D01*
X012801Y003071D01*
X011401Y003071D01*
X011351Y003021D01*
X011201Y003021D01*
X011184Y003023D01*
X011167Y003027D01*
X011151Y003034D01*
X011137Y003044D01*
X011124Y003057D01*
X011114Y003071D01*
X011107Y003087D01*
X011103Y003104D01*
X011101Y003121D01*
X011301Y002821D02*
X012901Y002821D01*
X012918Y002819D01*
X012935Y002815D01*
X012951Y002808D01*
X012965Y002798D01*
X012978Y002785D01*
X012988Y002771D01*
X012995Y002755D01*
X012999Y002738D01*
X013001Y002721D01*
X013001Y002121D01*
X012999Y002104D01*
X012995Y002087D01*
X012988Y002071D01*
X012978Y002057D01*
X012965Y002044D01*
X012951Y002034D01*
X012935Y002027D01*
X012918Y002023D01*
X012901Y002021D01*
X011301Y002021D01*
X011284Y002023D01*
X011267Y002027D01*
X011251Y002034D01*
X011237Y002044D01*
X011224Y002057D01*
X011214Y002071D01*
X011207Y002087D01*
X011203Y002104D01*
X011201Y002121D01*
X011201Y002721D01*
X011203Y002738D01*
X011207Y002755D01*
X011214Y002771D01*
X011224Y002785D01*
X011237Y002798D01*
X011251Y002808D01*
X011267Y002815D01*
X011284Y002819D01*
X011301Y002821D01*
X011851Y002421D02*
X012101Y002421D01*
X012101Y002171D01*
X012101Y002421D02*
X012101Y002671D01*
X012101Y002421D02*
X012501Y002671D01*
X012501Y002171D01*
X012101Y002421D01*
X012701Y002421D01*
X014651Y002121D02*
X014651Y003721D01*
X014653Y003738D01*
X014657Y003755D01*
X014664Y003771D01*
X014674Y003785D01*
X014687Y003798D01*
X014701Y003808D01*
X014717Y003815D01*
X014734Y003819D01*
X014751Y003821D01*
X017451Y003821D01*
X017468Y003819D01*
X017485Y003815D01*
X017501Y003808D01*
X017515Y003798D01*
X017528Y003785D01*
X017538Y003771D01*
X017545Y003755D01*
X017549Y003738D01*
X017551Y003721D01*
X017551Y002121D01*
X017549Y002104D01*
X017545Y002087D01*
X017538Y002071D01*
X017528Y002057D01*
X017515Y002044D01*
X017501Y002034D01*
X017485Y002027D01*
X017468Y002023D01*
X017451Y002021D01*
X014751Y002021D01*
X014734Y002023D01*
X014717Y002027D01*
X014701Y002034D01*
X014687Y002044D01*
X014674Y002057D01*
X014664Y002071D01*
X014657Y002087D01*
X014653Y002104D01*
X014651Y002121D01*
X015501Y002921D02*
X015981Y002921D01*
X016231Y002921D02*
X016701Y002921D01*
X017301Y003971D02*
X018901Y003971D01*
X018918Y003973D01*
X018935Y003977D01*
X018951Y003984D01*
X018965Y003994D01*
X018978Y004007D01*
X018988Y004021D01*
X018995Y004037D01*
X018999Y004054D01*
X019001Y004071D01*
X019001Y006771D01*
X018999Y006788D01*
X018995Y006805D01*
X018988Y006821D01*
X018978Y006835D01*
X018965Y006848D01*
X018951Y006858D01*
X018935Y006865D01*
X018918Y006869D01*
X018901Y006871D01*
X017301Y006871D01*
X017284Y006869D01*
X017267Y006865D01*
X017251Y006858D01*
X017237Y006848D01*
X017224Y006835D01*
X017214Y006821D01*
X017207Y006805D01*
X017203Y006788D01*
X017201Y006771D01*
X017201Y004071D01*
X017203Y004054D01*
X017207Y004037D01*
X017214Y004021D01*
X017224Y004007D01*
X017237Y003994D01*
X017251Y003984D01*
X017267Y003977D01*
X017284Y003973D01*
X017301Y003971D01*
X018101Y004821D02*
X018101Y005301D01*
X018101Y005551D02*
X018101Y006021D01*
X016501Y005671D02*
X016501Y005521D01*
X016499Y005504D01*
X016495Y005487D01*
X016488Y005471D01*
X016478Y005457D01*
X016465Y005444D01*
X016451Y005434D01*
X016435Y005427D01*
X016418Y005423D01*
X016401Y005421D01*
X015801Y005421D01*
X015784Y005423D01*
X015767Y005427D01*
X015751Y005434D01*
X015737Y005444D01*
X015724Y005457D01*
X015714Y005471D01*
X015707Y005487D01*
X015703Y005504D01*
X015701Y005521D01*
X015701Y005671D01*
X015751Y005721D01*
X015751Y007121D01*
X015701Y007171D01*
X015701Y007321D01*
X015703Y007338D01*
X015707Y007355D01*
X015714Y007371D01*
X015724Y007385D01*
X015737Y007398D01*
X015751Y007408D01*
X015767Y007415D01*
X015784Y007419D01*
X015801Y007421D01*
X016401Y007421D01*
X016418Y007419D01*
X016435Y007415D01*
X016451Y007408D01*
X016465Y007398D01*
X016478Y007385D01*
X016488Y007371D01*
X016495Y007355D01*
X016499Y007338D01*
X016501Y007321D01*
X016501Y007171D01*
X016451Y007121D01*
X016451Y005721D01*
X016501Y005671D01*
X015351Y004421D02*
X014351Y004421D01*
X012351Y004421D01*
X011351Y004421D01*
X011351Y008421D01*
X012351Y008421D01*
X012951Y008421D01*
X012953Y008382D01*
X012959Y008343D01*
X012968Y008305D01*
X012981Y008268D01*
X012998Y008232D01*
X013018Y008199D01*
X013042Y008167D01*
X013068Y008138D01*
X013097Y008112D01*
X013129Y008088D01*
X013162Y008068D01*
X013198Y008051D01*
X013235Y008038D01*
X013273Y008029D01*
X013312Y008023D01*
X013351Y008021D01*
X013390Y008023D01*
X013429Y008029D01*
X013467Y008038D01*
X013504Y008051D01*
X013540Y008068D01*
X013573Y008088D01*
X013605Y008112D01*
X013634Y008138D01*
X013660Y008167D01*
X013684Y008199D01*
X013704Y008232D01*
X013721Y008268D01*
X013734Y008305D01*
X013743Y008343D01*
X013749Y008382D01*
X013751Y008421D01*
X014351Y008421D01*
X014351Y004421D01*
X015351Y004421D02*
X015351Y008421D01*
X014351Y008421D01*
X013751Y009021D02*
X016451Y009021D01*
X016468Y009023D01*
X016485Y009027D01*
X016501Y009034D01*
X016515Y009044D01*
X016528Y009057D01*
X016538Y009071D01*
X016545Y009087D01*
X016549Y009104D01*
X016551Y009121D01*
X016551Y010721D01*
X016549Y010738D01*
X016545Y010755D01*
X016538Y010771D01*
X016528Y010785D01*
X016515Y010798D01*
X016501Y010808D01*
X016485Y010815D01*
X016468Y010819D01*
X016451Y010821D01*
X013751Y010821D01*
X013734Y010819D01*
X013717Y010815D01*
X013701Y010808D01*
X013687Y010798D01*
X013674Y010785D01*
X013664Y010771D01*
X013657Y010755D01*
X013653Y010738D01*
X013651Y010721D01*
X013651Y009121D01*
X013653Y009104D01*
X013657Y009087D01*
X013664Y009071D01*
X013674Y009057D01*
X013687Y009044D01*
X013701Y009034D01*
X013717Y009027D01*
X013734Y009023D01*
X013751Y009021D01*
X012651Y009771D02*
X012651Y010071D01*
X012801Y009921D02*
X012501Y009921D01*
X014501Y009921D02*
X014981Y009921D01*
X015231Y009921D02*
X015701Y009921D01*
X012351Y008421D02*
X012351Y004421D01*
X017951Y007371D02*
X018251Y007371D01*
X018101Y007221D02*
X018101Y007521D01*
X019901Y009143D02*
X021301Y009143D01*
X021301Y004550D01*
X019901Y004550D01*
X019901Y009143D01*
X015501Y012021D02*
X015351Y012021D01*
X015301Y012071D01*
X015501Y012021D02*
X015518Y012023D01*
X015535Y012027D01*
X015551Y012034D01*
X015565Y012044D01*
X015578Y012057D01*
X015588Y012071D01*
X015595Y012087D01*
X015599Y012104D01*
X015601Y012121D01*
X015601Y012721D01*
X015599Y012738D01*
X015595Y012755D01*
X015588Y012771D01*
X015578Y012785D01*
X015565Y012798D01*
X015551Y012808D01*
X015535Y012815D01*
X015518Y012819D01*
X015501Y012821D01*
X015351Y012821D01*
X015301Y012771D01*
X014901Y012771D02*
X014851Y012821D01*
X014701Y012821D01*
X014684Y012819D01*
X014667Y012815D01*
X014651Y012808D01*
X014637Y012798D01*
X014624Y012785D01*
X014614Y012771D01*
X014607Y012755D01*
X014603Y012738D01*
X014601Y012721D01*
X014601Y012121D01*
X014603Y012104D01*
X014607Y012087D01*
X014614Y012071D01*
X014624Y012057D01*
X014637Y012044D01*
X014651Y012034D01*
X014667Y012027D01*
X014684Y012023D01*
X014701Y012021D01*
X014851Y012021D01*
X014901Y012071D01*
X012593Y012121D02*
X012593Y012721D01*
X012591Y012738D01*
X012587Y012755D01*
X012580Y012771D01*
X012570Y012785D01*
X012557Y012798D01*
X012543Y012808D01*
X012527Y012815D01*
X012510Y012819D01*
X012493Y012821D01*
X012343Y012821D01*
X012293Y012771D01*
X010893Y012771D01*
X010843Y012821D01*
X010693Y012821D01*
X010676Y012819D01*
X010659Y012815D01*
X010643Y012808D01*
X010629Y012798D01*
X010616Y012785D01*
X010606Y012771D01*
X010599Y012755D01*
X010595Y012738D01*
X010593Y012721D01*
X010593Y012121D01*
X010595Y012104D01*
X010599Y012087D01*
X010606Y012071D01*
X010616Y012057D01*
X010629Y012044D01*
X010643Y012034D01*
X010659Y012027D01*
X010676Y012023D01*
X010693Y012021D01*
X010843Y012021D01*
X010893Y012071D01*
X012293Y012071D01*
X012343Y012021D01*
X012493Y012021D01*
X012510Y012023D01*
X012527Y012027D01*
X012543Y012034D01*
X012557Y012044D01*
X012570Y012057D01*
X012580Y012071D01*
X012587Y012087D01*
X012591Y012104D01*
X012593Y012121D01*
X017951Y012471D02*
X018251Y012471D01*
X018101Y012621D02*
X018101Y012321D01*
D13*
X016826Y011421D02*
X016828Y011492D01*
X016834Y011562D01*
X016844Y011633D01*
X016857Y011702D01*
X016875Y011771D01*
X016896Y011839D01*
X016921Y011905D01*
X016950Y011970D01*
X016982Y012033D01*
X017018Y012094D01*
X017057Y012153D01*
X017099Y012210D01*
X017145Y012264D01*
X017193Y012316D01*
X017244Y012365D01*
X017298Y012411D01*
X017354Y012455D01*
X017413Y012494D01*
X017474Y012531D01*
X017536Y012564D01*
X017601Y012594D01*
X017667Y012620D01*
X017734Y012642D01*
X017802Y012661D01*
X017872Y012675D01*
X017942Y012686D01*
X018012Y012693D01*
X018083Y012696D01*
X018154Y012695D01*
X018225Y012690D01*
X018295Y012681D01*
X018365Y012668D01*
X018434Y012652D01*
X018502Y012631D01*
X018568Y012607D01*
X018634Y012579D01*
X018697Y012548D01*
X018759Y012513D01*
X018819Y012475D01*
X018876Y012433D01*
X018931Y012389D01*
X018984Y012341D01*
X019033Y012291D01*
X019080Y012238D01*
X019124Y012182D01*
X019165Y012124D01*
X019202Y012064D01*
X019236Y012001D01*
X019267Y011937D01*
X019294Y011872D01*
X019317Y011805D01*
X019336Y011737D01*
X019352Y011668D01*
X019364Y011598D01*
X019372Y011527D01*
X019376Y011456D01*
X019376Y011386D01*
X019372Y011315D01*
X019364Y011244D01*
X019352Y011174D01*
X019336Y011105D01*
X019317Y011037D01*
X019294Y010970D01*
X019267Y010905D01*
X019236Y010841D01*
X019202Y010778D01*
X019165Y010718D01*
X019124Y010660D01*
X019080Y010604D01*
X019033Y010551D01*
X018984Y010501D01*
X018931Y010453D01*
X018876Y010409D01*
X018819Y010367D01*
X018759Y010329D01*
X018697Y010294D01*
X018634Y010263D01*
X018568Y010235D01*
X018502Y010211D01*
X018434Y010190D01*
X018365Y010174D01*
X018295Y010161D01*
X018225Y010152D01*
X018154Y010147D01*
X018083Y010146D01*
X018012Y010149D01*
X017942Y010156D01*
X017872Y010167D01*
X017802Y010181D01*
X017734Y010200D01*
X017667Y010222D01*
X017601Y010248D01*
X017536Y010278D01*
X017474Y010311D01*
X017413Y010348D01*
X017354Y010387D01*
X017298Y010431D01*
X017244Y010477D01*
X017193Y010526D01*
X017145Y010578D01*
X017099Y010632D01*
X017057Y010689D01*
X017018Y010748D01*
X016982Y010809D01*
X016950Y010872D01*
X016921Y010937D01*
X016896Y011003D01*
X016875Y011071D01*
X016857Y011140D01*
X016844Y011209D01*
X016834Y011280D01*
X016828Y011350D01*
X016826Y011421D01*
X016826Y008421D02*
X016828Y008492D01*
X016834Y008562D01*
X016844Y008633D01*
X016857Y008702D01*
X016875Y008771D01*
X016896Y008839D01*
X016921Y008905D01*
X016950Y008970D01*
X016982Y009033D01*
X017018Y009094D01*
X017057Y009153D01*
X017099Y009210D01*
X017145Y009264D01*
X017193Y009316D01*
X017244Y009365D01*
X017298Y009411D01*
X017354Y009455D01*
X017413Y009494D01*
X017474Y009531D01*
X017536Y009564D01*
X017601Y009594D01*
X017667Y009620D01*
X017734Y009642D01*
X017802Y009661D01*
X017872Y009675D01*
X017942Y009686D01*
X018012Y009693D01*
X018083Y009696D01*
X018154Y009695D01*
X018225Y009690D01*
X018295Y009681D01*
X018365Y009668D01*
X018434Y009652D01*
X018502Y009631D01*
X018568Y009607D01*
X018634Y009579D01*
X018697Y009548D01*
X018759Y009513D01*
X018819Y009475D01*
X018876Y009433D01*
X018931Y009389D01*
X018984Y009341D01*
X019033Y009291D01*
X019080Y009238D01*
X019124Y009182D01*
X019165Y009124D01*
X019202Y009064D01*
X019236Y009001D01*
X019267Y008937D01*
X019294Y008872D01*
X019317Y008805D01*
X019336Y008737D01*
X019352Y008668D01*
X019364Y008598D01*
X019372Y008527D01*
X019376Y008456D01*
X019376Y008386D01*
X019372Y008315D01*
X019364Y008244D01*
X019352Y008174D01*
X019336Y008105D01*
X019317Y008037D01*
X019294Y007970D01*
X019267Y007905D01*
X019236Y007841D01*
X019202Y007778D01*
X019165Y007718D01*
X019124Y007660D01*
X019080Y007604D01*
X019033Y007551D01*
X018984Y007501D01*
X018931Y007453D01*
X018876Y007409D01*
X018819Y007367D01*
X018759Y007329D01*
X018697Y007294D01*
X018634Y007263D01*
X018568Y007235D01*
X018502Y007211D01*
X018434Y007190D01*
X018365Y007174D01*
X018295Y007161D01*
X018225Y007152D01*
X018154Y007147D01*
X018083Y007146D01*
X018012Y007149D01*
X017942Y007156D01*
X017872Y007167D01*
X017802Y007181D01*
X017734Y007200D01*
X017667Y007222D01*
X017601Y007248D01*
X017536Y007278D01*
X017474Y007311D01*
X017413Y007348D01*
X017354Y007387D01*
X017298Y007431D01*
X017244Y007477D01*
X017193Y007526D01*
X017145Y007578D01*
X017099Y007632D01*
X017057Y007689D01*
X017018Y007748D01*
X016982Y007809D01*
X016950Y007872D01*
X016921Y007937D01*
X016896Y008003D01*
X016875Y008071D01*
X016857Y008140D01*
X016844Y008209D01*
X016834Y008280D01*
X016828Y008350D01*
X016826Y008421D01*
X010326Y009921D02*
X010328Y009992D01*
X010334Y010062D01*
X010344Y010133D01*
X010357Y010202D01*
X010375Y010271D01*
X010396Y010339D01*
X010421Y010405D01*
X010450Y010470D01*
X010482Y010533D01*
X010518Y010594D01*
X010557Y010653D01*
X010599Y010710D01*
X010645Y010764D01*
X010693Y010816D01*
X010744Y010865D01*
X010798Y010911D01*
X010854Y010955D01*
X010913Y010994D01*
X010974Y011031D01*
X011036Y011064D01*
X011101Y011094D01*
X011167Y011120D01*
X011234Y011142D01*
X011302Y011161D01*
X011372Y011175D01*
X011442Y011186D01*
X011512Y011193D01*
X011583Y011196D01*
X011654Y011195D01*
X011725Y011190D01*
X011795Y011181D01*
X011865Y011168D01*
X011934Y011152D01*
X012002Y011131D01*
X012068Y011107D01*
X012134Y011079D01*
X012197Y011048D01*
X012259Y011013D01*
X012319Y010975D01*
X012376Y010933D01*
X012431Y010889D01*
X012484Y010841D01*
X012533Y010791D01*
X012580Y010738D01*
X012624Y010682D01*
X012665Y010624D01*
X012702Y010564D01*
X012736Y010501D01*
X012767Y010437D01*
X012794Y010372D01*
X012817Y010305D01*
X012836Y010237D01*
X012852Y010168D01*
X012864Y010098D01*
X012872Y010027D01*
X012876Y009956D01*
X012876Y009886D01*
X012872Y009815D01*
X012864Y009744D01*
X012852Y009674D01*
X012836Y009605D01*
X012817Y009537D01*
X012794Y009470D01*
X012767Y009405D01*
X012736Y009341D01*
X012702Y009278D01*
X012665Y009218D01*
X012624Y009160D01*
X012580Y009104D01*
X012533Y009051D01*
X012484Y009001D01*
X012431Y008953D01*
X012376Y008909D01*
X012319Y008867D01*
X012259Y008829D01*
X012197Y008794D01*
X012134Y008763D01*
X012068Y008735D01*
X012002Y008711D01*
X011934Y008690D01*
X011865Y008674D01*
X011795Y008661D01*
X011725Y008652D01*
X011654Y008647D01*
X011583Y008646D01*
X011512Y008649D01*
X011442Y008656D01*
X011372Y008667D01*
X011302Y008681D01*
X011234Y008700D01*
X011167Y008722D01*
X011101Y008748D01*
X011036Y008778D01*
X010974Y008811D01*
X010913Y008848D01*
X010854Y008887D01*
X010798Y008931D01*
X010744Y008977D01*
X010693Y009026D01*
X010645Y009078D01*
X010599Y009132D01*
X010557Y009189D01*
X010518Y009248D01*
X010482Y009309D01*
X010450Y009372D01*
X010421Y009437D01*
X010396Y009503D01*
X010375Y009571D01*
X010357Y009640D01*
X010344Y009709D01*
X010334Y009780D01*
X010328Y009850D01*
X010326Y009921D01*
X004101Y009327D02*
X004101Y005327D01*
X003351Y005327D01*
X002851Y005827D01*
X002101Y005827D01*
X002101Y008827D01*
X002851Y008827D01*
X003351Y009327D01*
X004101Y009327D01*
X003851Y009077D02*
X003976Y008952D01*
X003976Y008702D01*
X003851Y008577D01*
X003351Y008577D01*
X003226Y008702D01*
X003226Y008952D01*
X003351Y009077D01*
X003851Y009077D01*
X003851Y008077D02*
X003976Y007952D01*
X003976Y007702D01*
X003851Y007577D01*
X003351Y007577D01*
X003226Y007702D01*
X003226Y007702D01*
X003226Y007952D01*
X003351Y008077D01*
X003851Y008077D01*
X003976Y007702D02*
X003976Y007702D01*
X003851Y007077D02*
X003351Y007077D01*
X003226Y006952D01*
X003226Y006702D01*
X003351Y006577D01*
X003851Y006577D01*
X003976Y006702D01*
X003976Y006952D01*
X003851Y007077D01*
X003851Y006077D02*
X003351Y006077D01*
X003226Y005952D01*
X003226Y005702D01*
X003351Y005577D01*
X003851Y005577D01*
X003976Y005702D01*
X003976Y005952D01*
X003851Y006077D01*
X020601Y004171D02*
X020670Y004169D01*
X020739Y004163D01*
X020808Y004154D01*
X020876Y004140D01*
X020944Y004123D01*
X021010Y004102D01*
X021075Y004078D01*
X021138Y004050D01*
X021200Y004018D01*
X021260Y003983D01*
X021318Y003945D01*
X021373Y003904D01*
X021427Y003859D01*
X021478Y003812D01*
X021526Y003762D01*
X021571Y003710D01*
X021613Y003654D01*
X021652Y003597D01*
X021688Y003538D01*
X021721Y003477D01*
X021750Y003414D01*
X021775Y003349D01*
X021797Y003283D01*
X021816Y003216D01*
X021830Y003148D01*
X021841Y003080D01*
X021848Y003011D01*
X021851Y002942D01*
X021850Y002872D01*
X021845Y002803D01*
X021837Y002734D01*
X021825Y002666D01*
X021809Y002598D01*
X021789Y002532D01*
X021765Y002466D01*
X021738Y002403D01*
X021708Y002340D01*
X021674Y002280D01*
X021637Y002221D01*
X021596Y002165D01*
X021553Y002111D01*
X021506Y002059D01*
X021457Y002010D01*
X021405Y001964D01*
X021351Y001921D01*
X019851Y001921D02*
X019797Y001964D01*
X019745Y002010D01*
X019696Y002059D01*
X019649Y002111D01*
X019606Y002165D01*
X019565Y002221D01*
X019528Y002280D01*
X019494Y002340D01*
X019464Y002403D01*
X019437Y002466D01*
X019413Y002532D01*
X019393Y002598D01*
X019377Y002666D01*
X019365Y002734D01*
X019357Y002803D01*
X019352Y002872D01*
X019351Y002942D01*
X019354Y003011D01*
X019361Y003080D01*
X019372Y003148D01*
X019386Y003216D01*
X019405Y003283D01*
X019427Y003349D01*
X019452Y003414D01*
X019481Y003477D01*
X019514Y003538D01*
X019550Y003597D01*
X019589Y003654D01*
X019631Y003710D01*
X019676Y003762D01*
X019724Y003812D01*
X019775Y003859D01*
X019829Y003904D01*
X019884Y003945D01*
X019942Y003983D01*
X020002Y004018D01*
X020064Y004050D01*
X020127Y004078D01*
X020192Y004102D01*
X020258Y004123D01*
X020326Y004140D01*
X020394Y004154D01*
X020463Y004163D01*
X020532Y004169D01*
X020601Y004171D01*
D14*
X002722Y007621D02*
X002397Y007621D01*
X002397Y007783D01*
X002451Y007837D01*
X002559Y007837D01*
X002613Y007783D01*
X002613Y007621D01*
X002613Y007729D02*
X002722Y007837D01*
X002722Y007947D02*
X002397Y007947D01*
X002397Y008163D01*
X002505Y008273D02*
X002397Y008381D01*
X002722Y008381D01*
X002722Y008273D02*
X002722Y008490D01*
X002559Y008055D02*
X002559Y007947D01*
D15*
X011451Y002421D03*
D16*
X011076Y002421D03*
X013126Y002421D03*
D17*
X019851Y001921D02*
X021351Y001921D01*
D18*
X020601Y003796D02*
X020601Y003921D01*
X020476Y003921D01*
X020601Y003921D02*
X020726Y003921D01*
X020601Y003921D02*
X020601Y004046D01*
X021911Y004003D02*
X022136Y004003D01*
X022212Y004078D01*
X022212Y004153D01*
X022136Y004228D01*
X021911Y004228D01*
X022136Y004228D02*
X022212Y004303D01*
X022212Y004379D01*
X022136Y004454D01*
X021911Y004454D01*
X021911Y004003D01*
X022372Y004228D02*
X022672Y004228D01*
X022101Y006577D02*
X022103Y006621D01*
X022109Y006665D01*
X022119Y006708D01*
X022132Y006750D01*
X022149Y006791D01*
X022170Y006830D01*
X022194Y006867D01*
X022221Y006902D01*
X022251Y006934D01*
X022284Y006964D01*
X022320Y006990D01*
X022357Y007014D01*
X022397Y007033D01*
X022438Y007050D01*
X022481Y007062D01*
X022524Y007071D01*
X022568Y007076D01*
X022612Y007077D01*
X022656Y007074D01*
X022700Y007067D01*
X022743Y007056D01*
X022785Y007042D01*
X022825Y007024D01*
X022864Y007002D01*
X022900Y006978D01*
X022934Y006950D01*
X022966Y006919D01*
X022995Y006885D01*
X023021Y006849D01*
X023043Y006811D01*
X023062Y006771D01*
X023077Y006729D01*
X023089Y006687D01*
X023097Y006643D01*
X023101Y006599D01*
X023101Y006555D01*
X023097Y006511D01*
X023089Y006467D01*
X023077Y006425D01*
X023062Y006383D01*
X023043Y006343D01*
X023021Y006305D01*
X022995Y006269D01*
X022966Y006235D01*
X022934Y006204D01*
X022900Y006176D01*
X022864Y006152D01*
X022825Y006130D01*
X022785Y006112D01*
X022743Y006098D01*
X022700Y006087D01*
X022656Y006080D01*
X022612Y006077D01*
X022568Y006078D01*
X022524Y006083D01*
X022481Y006092D01*
X022438Y006104D01*
X022397Y006121D01*
X022357Y006140D01*
X022320Y006164D01*
X022284Y006190D01*
X022251Y006220D01*
X022221Y006252D01*
X022194Y006287D01*
X022170Y006324D01*
X022149Y006363D01*
X022132Y006404D01*
X022119Y006446D01*
X022109Y006489D01*
X022103Y006533D01*
X022101Y006577D01*
X022101Y008077D02*
X022103Y008121D01*
X022109Y008165D01*
X022119Y008208D01*
X022132Y008250D01*
X022149Y008291D01*
X022170Y008330D01*
X022194Y008367D01*
X022221Y008402D01*
X022251Y008434D01*
X022284Y008464D01*
X022320Y008490D01*
X022357Y008514D01*
X022397Y008533D01*
X022438Y008550D01*
X022481Y008562D01*
X022524Y008571D01*
X022568Y008576D01*
X022612Y008577D01*
X022656Y008574D01*
X022700Y008567D01*
X022743Y008556D01*
X022785Y008542D01*
X022825Y008524D01*
X022864Y008502D01*
X022900Y008478D01*
X022934Y008450D01*
X022966Y008419D01*
X022995Y008385D01*
X023021Y008349D01*
X023043Y008311D01*
X023062Y008271D01*
X023077Y008229D01*
X023089Y008187D01*
X023097Y008143D01*
X023101Y008099D01*
X023101Y008055D01*
X023097Y008011D01*
X023089Y007967D01*
X023077Y007925D01*
X023062Y007883D01*
X023043Y007843D01*
X023021Y007805D01*
X022995Y007769D01*
X022966Y007735D01*
X022934Y007704D01*
X022900Y007676D01*
X022864Y007652D01*
X022825Y007630D01*
X022785Y007612D01*
X022743Y007598D01*
X022700Y007587D01*
X022656Y007580D01*
X022612Y007577D01*
X022568Y007578D01*
X022524Y007583D01*
X022481Y007592D01*
X022438Y007604D01*
X022397Y007621D01*
X022357Y007640D01*
X022320Y007664D01*
X022284Y007690D01*
X022251Y007720D01*
X022221Y007752D01*
X022194Y007787D01*
X022170Y007824D01*
X022149Y007863D01*
X022132Y007904D01*
X022119Y007946D01*
X022109Y007989D01*
X022103Y008033D01*
X022101Y008077D01*
X022223Y010102D02*
X022448Y010102D01*
X022523Y010177D01*
X022523Y010252D01*
X022448Y010327D01*
X022223Y010327D01*
X022448Y010327D02*
X022523Y010402D01*
X022523Y010477D01*
X022448Y010552D01*
X022223Y010552D01*
X022223Y010102D01*
X022683Y010327D02*
X022983Y010327D01*
X022833Y010477D02*
X022833Y010177D01*
X019726Y010046D02*
X019798Y010022D01*
X019871Y010002D01*
X019945Y009985D01*
X020020Y009973D01*
X020095Y009964D01*
X020171Y009959D01*
X020247Y009958D01*
X020323Y009961D01*
X020398Y009968D01*
X020473Y009979D01*
X020548Y009994D01*
X020621Y010012D01*
X020694Y010035D01*
X020765Y010061D01*
X020835Y010091D01*
X020903Y010124D01*
X020969Y010161D01*
X021034Y010201D01*
X021096Y010245D01*
X021156Y010291D01*
X021213Y010341D01*
X021268Y010394D01*
X021320Y010449D01*
X021369Y010507D01*
X021414Y010568D01*
X021457Y010631D01*
X021496Y010695D01*
X021532Y010762D01*
X021565Y010831D01*
X021594Y010901D01*
X021619Y010973D01*
X021640Y011046D01*
X021658Y011120D01*
X021671Y011194D01*
X021681Y011269D01*
X021687Y011345D01*
X021689Y011421D01*
X021687Y011497D01*
X021681Y011573D01*
X021671Y011648D01*
X021658Y011722D01*
X021640Y011796D01*
X021619Y011869D01*
X021594Y011941D01*
X021565Y012011D01*
X021532Y012080D01*
X021496Y012147D01*
X021457Y012211D01*
X021414Y012274D01*
X021369Y012335D01*
X021320Y012393D01*
X021268Y012448D01*
X021213Y012501D01*
X021156Y012551D01*
X021096Y012597D01*
X021034Y012641D01*
X020969Y012681D01*
X020903Y012718D01*
X020835Y012751D01*
X020765Y012781D01*
X020694Y012807D01*
X020621Y012830D01*
X020548Y012848D01*
X020473Y012863D01*
X020398Y012874D01*
X020323Y012881D01*
X020247Y012884D01*
X020171Y012883D01*
X020095Y012878D01*
X020020Y012869D01*
X019945Y012857D01*
X019871Y012840D01*
X019798Y012820D01*
X019726Y012796D01*
X019726Y010046D01*
X015726Y013046D02*
X015476Y013046D01*
X014476Y012046D01*
X002135Y010327D02*
X001835Y010327D01*
X001675Y010552D02*
X001375Y010552D01*
X001525Y010552D02*
X001525Y010102D01*
X001215Y010102D02*
X001215Y010552D01*
X000914Y010552D02*
X001215Y010102D01*
X000914Y010102D02*
X000914Y010552D01*
X000754Y010402D02*
X000754Y010102D01*
X000754Y010327D02*
X000454Y010327D01*
X000454Y010402D02*
X000604Y010552D01*
X000754Y010402D01*
X000454Y010402D02*
X000454Y010102D01*
X000601Y008077D02*
X000603Y008121D01*
X000609Y008165D01*
X000619Y008208D01*
X000632Y008250D01*
X000649Y008291D01*
X000670Y008330D01*
X000694Y008367D01*
X000721Y008402D01*
X000751Y008434D01*
X000784Y008464D01*
X000820Y008490D01*
X000857Y008514D01*
X000897Y008533D01*
X000938Y008550D01*
X000981Y008562D01*
X001024Y008571D01*
X001068Y008576D01*
X001112Y008577D01*
X001156Y008574D01*
X001200Y008567D01*
X001243Y008556D01*
X001285Y008542D01*
X001325Y008524D01*
X001364Y008502D01*
X001400Y008478D01*
X001434Y008450D01*
X001466Y008419D01*
X001495Y008385D01*
X001521Y008349D01*
X001543Y008311D01*
X001562Y008271D01*
X001577Y008229D01*
X001589Y008187D01*
X001597Y008143D01*
X001601Y008099D01*
X001601Y008055D01*
X001597Y008011D01*
X001589Y007967D01*
X001577Y007925D01*
X001562Y007883D01*
X001543Y007843D01*
X001521Y007805D01*
X001495Y007769D01*
X001466Y007735D01*
X001434Y007704D01*
X001400Y007676D01*
X001364Y007652D01*
X001325Y007630D01*
X001285Y007612D01*
X001243Y007598D01*
X001200Y007587D01*
X001156Y007580D01*
X001112Y007577D01*
X001068Y007578D01*
X001024Y007583D01*
X000981Y007592D01*
X000938Y007604D01*
X000897Y007621D01*
X000857Y007640D01*
X000820Y007664D01*
X000784Y007690D01*
X000751Y007720D01*
X000721Y007752D01*
X000694Y007787D01*
X000670Y007824D01*
X000649Y007863D01*
X000632Y007904D01*
X000619Y007946D01*
X000609Y007989D01*
X000603Y008033D01*
X000601Y008077D01*
X000601Y006577D02*
X000603Y006621D01*
X000609Y006665D01*
X000619Y006708D01*
X000632Y006750D01*
X000649Y006791D01*
X000670Y006830D01*
X000694Y006867D01*
X000721Y006902D01*
X000751Y006934D01*
X000784Y006964D01*
X000820Y006990D01*
X000857Y007014D01*
X000897Y007033D01*
X000938Y007050D01*
X000981Y007062D01*
X001024Y007071D01*
X001068Y007076D01*
X001112Y007077D01*
X001156Y007074D01*
X001200Y007067D01*
X001243Y007056D01*
X001285Y007042D01*
X001325Y007024D01*
X001364Y007002D01*
X001400Y006978D01*
X001434Y006950D01*
X001466Y006919D01*
X001495Y006885D01*
X001521Y006849D01*
X001543Y006811D01*
X001562Y006771D01*
X001577Y006729D01*
X001589Y006687D01*
X001597Y006643D01*
X001601Y006599D01*
X001601Y006555D01*
X001597Y006511D01*
X001589Y006467D01*
X001577Y006425D01*
X001562Y006383D01*
X001543Y006343D01*
X001521Y006305D01*
X001495Y006269D01*
X001466Y006235D01*
X001434Y006204D01*
X001400Y006176D01*
X001364Y006152D01*
X001325Y006130D01*
X001285Y006112D01*
X001243Y006098D01*
X001200Y006087D01*
X001156Y006080D01*
X001112Y006077D01*
X001068Y006078D01*
X001024Y006083D01*
X000981Y006092D01*
X000938Y006104D01*
X000897Y006121D01*
X000857Y006140D01*
X000820Y006164D01*
X000784Y006190D01*
X000751Y006220D01*
X000721Y006252D01*
X000694Y006287D01*
X000670Y006324D01*
X000649Y006363D01*
X000632Y006404D01*
X000619Y006446D01*
X000609Y006489D01*
X000603Y006533D01*
X000601Y006577D01*
X000553Y004552D02*
X000703Y004402D01*
X000703Y004102D01*
X000863Y004102D02*
X000863Y004552D01*
X001164Y004102D01*
X001164Y004552D01*
X001324Y004552D02*
X001624Y004552D01*
X001474Y004552D02*
X001474Y004102D01*
X001784Y004327D02*
X002084Y004327D01*
X001934Y004477D02*
X001934Y004177D01*
X000703Y004327D02*
X000403Y004327D01*
X000403Y004402D02*
X000553Y004552D01*
X000403Y004402D02*
X000403Y004102D01*
D19*
X014981Y009671D02*
X014981Y009921D01*
X014981Y010171D01*
X015231Y010171D02*
X015231Y009921D01*
X015231Y009671D01*
X017851Y005551D02*
X018101Y005551D01*
X018351Y005551D01*
X018351Y005301D02*
X018101Y005301D01*
X017851Y005301D01*
X016231Y003171D02*
X016231Y002921D01*
X016231Y002671D01*
X015981Y002671D02*
X015981Y002921D01*
X015981Y003171D01*
D20*
X013176Y003421D03*
X011026Y003421D03*
X010518Y012421D03*
X012668Y012421D03*
X014526Y012421D03*
X015676Y012421D03*
D21*
X016101Y007496D03*
X016101Y005346D03*
M02*
