%
M48
M72
T01C0.0240
T02C0.0320
T03C0.0354
T04C0.0394
T05C0.0512
T06C0.1260
%
T01
X12701Y4171
X13601Y7371
X18351Y3821
T02
X14851Y4921
X14851Y5921
X14851Y6921
X14851Y7921
X11851Y7921
X11851Y6921
X11851Y5921
X11851Y4921
T03
X13601Y3421
X15101Y2921
X13601Y2421
X10601Y2421
X17101Y2921
X18101Y4421
X20601Y3421
X20601Y2421
X20601Y5630
X20601Y6827
X20601Y8004
X18101Y7909
X18101Y8921
X16101Y7921
X18101Y6421
X16101Y9921
X18101Y10921
X18101Y11934
X20351Y12421
X20351Y11421
X20351Y10421
X14101Y9921
X12113Y9921
X11101Y9921
X9101Y9421
X8101Y9421
X7101Y9421
X6101Y9421
X5101Y9421
X5101Y8421
X6101Y8421
X7101Y8421
X8101Y8421
X9101Y8421
X9101Y7421
X8101Y7421
X7101Y7421
X6101Y7421
X5101Y7421
X3601Y7827
X3601Y8827
X5101Y10421
X6101Y10421
X7101Y10421
X8101Y10421
X9101Y10421
X9101Y11421
X8101Y11421
X7101Y11421
X6101Y11421
X5101Y11421
X3601Y6827
X3601Y5827
X13093Y12421
X14101Y12421
T04
X16101Y12421
X10093Y12421
X16101Y4921
X10601Y3421
T05
X1101Y5077
X1101Y6577
X1101Y8077
X1101Y9577
X22601Y9577
X22601Y8077
X22601Y6577
X22601Y5077
T06
X888Y2209
X888Y12445
X22935Y12445
X22935Y2209
M30
