G75*
G70*
%OFA0B0*%
%FSLAX24Y24*%
%IPPOS*%
%LPD*%
%AMOC8*
5,1,8,0,0,1.08239X$1,22.5*
%
%ADD10C,0.1340*%
%ADD11C,0.0110*%
%ADD12C,0.0600*%
%ADD13C,0.0634*%
%ADD14C,0.0640*%
%ADD15C,0.0674*%
%ADD16C,0.0848*%
%ADD17C,0.0592*%
%ADD18C,0.0580*%
%ADD19R,0.0013X0.0327*%
%ADD20R,0.0013X0.0553*%
%ADD21R,0.0013X0.0717*%
%ADD22R,0.0013X0.0843*%
%ADD23R,0.0013X0.0956*%
%ADD24R,0.0013X0.1044*%
%ADD25R,0.0013X0.1132*%
%ADD26R,0.0013X0.1220*%
%ADD27R,0.0013X0.1296*%
%ADD28R,0.0013X0.1371*%
%ADD29R,0.0013X0.1434*%
%ADD30R,0.0013X0.1497*%
%ADD31R,0.0013X0.1560*%
%ADD32R,0.0013X0.1610*%
%ADD33R,0.0013X0.1673*%
%ADD34R,0.0013X0.1723*%
%ADD35R,0.0013X0.1774*%
%ADD36R,0.0013X0.1824*%
%ADD37R,0.0013X0.1874*%
%ADD38R,0.0013X0.1912*%
%ADD39R,0.0013X0.1962*%
%ADD40R,0.0013X0.2000*%
%ADD41R,0.0013X0.2050*%
%ADD42R,0.0013X0.2088*%
%ADD43R,0.0013X0.2126*%
%ADD44R,0.0013X0.2164*%
%ADD45R,0.0013X0.2201*%
%ADD46R,0.0013X0.2239*%
%ADD47R,0.0013X0.2277*%
%ADD48R,0.0013X0.2314*%
%ADD49R,0.0013X0.2352*%
%ADD50R,0.0013X0.2377*%
%ADD51R,0.0013X0.2415*%
%ADD52R,0.0013X0.2440*%
%ADD53R,0.0013X0.2478*%
%ADD54R,0.0013X0.2503*%
%ADD55R,0.0013X0.2541*%
%ADD56R,0.0013X0.2566*%
%ADD57R,0.0013X0.2591*%
%ADD58R,0.0013X0.2629*%
%ADD59R,0.0013X0.2654*%
%ADD60R,0.0013X0.2679*%
%ADD61R,0.0013X0.2704*%
%ADD62R,0.0013X0.2729*%
%ADD63R,0.0013X0.2755*%
%ADD64R,0.0013X0.2780*%
%ADD65R,0.0013X0.2805*%
%ADD66R,0.0013X0.2830*%
%ADD67R,0.0013X0.2855*%
%ADD68R,0.0013X0.2880*%
%ADD69R,0.0013X0.2906*%
%ADD70R,0.0013X0.2931*%
%ADD71R,0.0013X0.2956*%
%ADD72R,0.0013X0.2968*%
%ADD73R,0.0013X0.2994*%
%ADD74R,0.0013X0.3019*%
%ADD75R,0.0013X0.3044*%
%ADD76R,0.0013X0.3057*%
%ADD77R,0.0013X0.3082*%
%ADD78R,0.0013X0.3094*%
%ADD79R,0.0013X0.3119*%
%ADD80R,0.0013X0.3145*%
%ADD81R,0.0013X0.3157*%
%ADD82R,0.0013X0.3182*%
%ADD83R,0.0013X0.3195*%
%ADD84R,0.0013X0.3207*%
%ADD85R,0.0013X0.3233*%
%ADD86R,0.0013X0.3245*%
%ADD87R,0.0013X0.3270*%
%ADD88R,0.0013X0.3283*%
%ADD89R,0.0013X0.3296*%
%ADD90R,0.0013X0.3321*%
%ADD91R,0.0013X0.3333*%
%ADD92R,0.0013X0.3346*%
%ADD93R,0.0013X0.3358*%
%ADD94R,0.0013X0.3384*%
%ADD95R,0.0013X0.3396*%
%ADD96R,0.0013X0.3409*%
%ADD97R,0.0013X0.3421*%
%ADD98R,0.0013X0.3434*%
%ADD99R,0.0013X0.3446*%
%ADD100R,0.0013X0.3459*%
%ADD101R,0.0013X0.3484*%
%ADD102R,0.0013X0.3497*%
%ADD103R,0.0013X0.3509*%
%ADD104R,0.0013X0.3522*%
%ADD105R,0.0013X0.3534*%
%ADD106R,0.0013X0.3547*%
%ADD107R,0.0013X0.3560*%
%ADD108R,0.0013X0.3572*%
%ADD109R,0.0013X0.3585*%
%ADD110R,0.0013X0.3585*%
%ADD111R,0.0013X0.3597*%
%ADD112R,0.0013X0.3610*%
%ADD113R,0.0013X0.3623*%
%ADD114R,0.0013X0.3635*%
%ADD115R,0.0013X0.3648*%
%ADD116R,0.0013X0.3660*%
%ADD117R,0.0013X0.3660*%
%ADD118R,0.0013X0.0654*%
%ADD119R,0.0013X0.0805*%
%ADD120R,0.0013X0.0755*%
%ADD121R,0.0013X0.1119*%
%ADD122R,0.0013X0.0591*%
%ADD123R,0.0013X0.0692*%
%ADD124R,0.0013X0.0641*%
%ADD125R,0.0013X0.1069*%
%ADD126R,0.0013X0.0566*%
%ADD127R,0.0013X0.0616*%
%ADD128R,0.0013X0.0440*%
%ADD129R,0.0013X0.0352*%
%ADD130R,0.0013X0.0528*%
%ADD131R,0.0013X0.0566*%
%ADD132R,0.0013X0.0516*%
%ADD133R,0.0013X0.0415*%
%ADD134R,0.0013X0.0365*%
%ADD135R,0.0013X0.0516*%
%ADD136R,0.0013X0.0478*%
%ADD137R,0.0013X0.0390*%
%ADD138R,0.0013X0.0365*%
%ADD139R,0.0013X0.0503*%
%ADD140R,0.0013X0.0478*%
%ADD141R,0.0013X0.0428*%
%ADD142R,0.0013X0.0377*%
%ADD143R,0.0013X0.0491*%
%ADD144R,0.0013X0.0403*%
%ADD145R,0.0013X0.0352*%
%ADD146R,0.0013X0.0377*%
%ADD147R,0.0013X0.0478*%
%ADD148R,0.0013X0.0340*%
%ADD149R,0.0013X0.0377*%
%ADD150R,0.0013X0.0327*%
%ADD151R,0.0013X0.0465*%
%ADD152R,0.0013X0.0314*%
%ADD153R,0.0013X0.0390*%
%ADD154R,0.0013X0.0453*%
%ADD155R,0.0013X0.0302*%
%ADD156R,0.0013X0.0453*%
%ADD157R,0.0013X0.0327*%
%ADD158R,0.0013X0.0277*%
%ADD159R,0.0013X0.0302*%
%ADD160R,0.0013X0.0314*%
%ADD161R,0.0013X0.0264*%
%ADD162R,0.0013X0.0289*%
%ADD163R,0.0013X0.0252*%
%ADD164R,0.0013X0.0277*%
%ADD165R,0.0013X0.0402*%
%ADD166R,0.0013X0.0440*%
%ADD167R,0.0013X0.0289*%
%ADD168R,0.0013X0.0226*%
%ADD169R,0.0013X0.0402*%
%ADD170R,0.0013X0.0226*%
%ADD171R,0.0013X0.0428*%
%ADD172R,0.0013X0.0113*%
%ADD173R,0.0013X0.0264*%
%ADD174R,0.0013X0.0088*%
%ADD175R,0.0013X0.0201*%
%ADD176R,0.0013X0.0101*%
%ADD177R,0.0013X0.0428*%
%ADD178R,0.0013X0.0164*%
%ADD179R,0.0013X0.0239*%
%ADD180R,0.0013X0.0201*%
%ADD181R,0.0013X0.0151*%
%ADD182R,0.0013X0.0415*%
%ADD183R,0.0013X0.0201*%
%ADD184R,0.0013X0.0239*%
%ADD185R,0.0013X0.0189*%
%ADD186R,0.0013X0.0252*%
%ADD187R,0.0013X0.0428*%
%ADD188R,0.0013X0.0214*%
%ADD189R,0.0013X0.0176*%
%ADD190R,0.0013X0.0214*%
%ADD191R,0.0013X0.0239*%
%ADD192R,0.0013X0.0176*%
%ADD193R,0.0013X0.0252*%
%ADD194R,0.0013X0.0151*%
%ADD195R,0.0013X0.0277*%
%ADD196R,0.0013X0.0289*%
%ADD197R,0.0013X0.0277*%
%ADD198R,0.0013X0.0289*%
%ADD199R,0.0013X0.0138*%
%ADD200R,0.0013X0.0189*%
%ADD201R,0.0013X0.0138*%
%ADD202R,0.0013X0.0453*%
%ADD203R,0.0013X0.0302*%
%ADD204R,0.0013X0.0352*%
%ADD205R,0.0013X0.0692*%
%ADD206R,0.0013X0.0641*%
%ADD207R,0.0013X0.0679*%
%ADD208R,0.0013X0.0679*%
%ADD209R,0.0013X0.0667*%
%ADD210R,0.0013X0.0667*%
%ADD211R,0.0013X0.0629*%
%ADD212R,0.0013X0.0465*%
%ADD213R,0.0013X0.0654*%
%ADD214R,0.0013X0.0629*%
%ADD215R,0.0013X0.0629*%
%ADD216R,0.0013X0.0616*%
%ADD217R,0.0013X0.0063*%
%ADD218R,0.0013X0.0063*%
%ADD219R,0.0013X0.0604*%
%ADD220R,0.0013X0.0063*%
%ADD221R,0.0013X0.0063*%
%ADD222R,0.0013X0.0025*%
%ADD223R,0.0013X0.0604*%
%ADD224R,0.0013X0.0629*%
%ADD225R,0.0013X0.0038*%
%ADD226R,0.0013X0.0541*%
%ADD227R,0.0013X0.0038*%
%ADD228R,0.0013X0.0302*%
%ADD229R,0.0013X0.0025*%
%ADD230R,0.0013X0.0553*%
%ADD231R,0.0013X0.0075*%
%ADD232R,0.0013X0.0553*%
%ADD233R,0.0013X0.0075*%
%ADD234R,0.0013X0.0340*%
%ADD235R,0.0013X0.0038*%
%ADD236R,0.0013X0.0553*%
%ADD237R,0.0013X0.0038*%
%ADD238R,0.0013X0.0050*%
%ADD239R,0.0013X0.0403*%
%ADD240R,0.0013X0.0528*%
%ADD241R,0.0013X0.0541*%
%ADD242R,0.0013X0.0528*%
%ADD243R,0.0013X0.0528*%
%ADD244R,0.0013X0.0453*%
%ADD245R,0.0013X0.0050*%
%ADD246R,0.0013X0.0503*%
%ADD247R,0.0013X0.0579*%
%ADD248R,0.0013X0.0013*%
%ADD249R,0.0013X0.0604*%
%ADD250R,0.0013X0.0704*%
%ADD251R,0.0013X0.0704*%
%ADD252R,0.0013X0.0717*%
%ADD253R,0.0013X0.0654*%
%ADD254R,0.0013X0.0654*%
%ADD255R,0.0013X0.0730*%
%ADD256R,0.0013X0.0730*%
%ADD257R,0.0013X0.0252*%
%ADD258R,0.0013X0.0226*%
%ADD259R,0.0013X0.0189*%
%ADD260R,0.0013X0.0226*%
%ADD261R,0.0013X0.0189*%
%ADD262R,0.0013X0.0214*%
%ADD263R,0.0013X0.0214*%
%ADD264R,0.0013X0.0164*%
%ADD265R,0.0013X0.0113*%
%ADD266R,0.0013X0.0126*%
%ADD267R,0.0013X0.0264*%
%ADD268R,0.0013X0.0264*%
%ADD269R,0.0013X0.0314*%
%ADD270R,0.0013X0.0365*%
%ADD271R,0.0013X0.0415*%
%ADD272R,0.0013X0.0491*%
%ADD273R,0.0013X0.0503*%
%ADD274R,0.0013X0.0352*%
%ADD275R,0.0013X0.0755*%
%ADD276R,0.0013X0.0692*%
%ADD277R,0.0013X0.3673*%
%ADD278R,0.0013X0.3648*%
%ADD279R,0.0013X0.3635*%
%ADD280R,0.0013X0.3572*%
%ADD281R,0.0013X0.3560*%
%ADD282R,0.0013X0.3547*%
%ADD283R,0.0013X0.3534*%
%ADD284R,0.0013X0.3522*%
%ADD285R,0.0013X0.3509*%
%ADD286R,0.0013X0.3497*%
%ADD287R,0.0013X0.3484*%
%ADD288R,0.0013X0.3472*%
%ADD289R,0.0013X0.3396*%
%ADD290R,0.0013X0.3384*%
%ADD291R,0.0013X0.3371*%
%ADD292R,0.0013X0.3333*%
%ADD293R,0.0013X0.3321*%
%ADD294R,0.0013X0.3308*%
%ADD295R,0.0013X0.3270*%
%ADD296R,0.0013X0.3258*%
%ADD297R,0.0013X0.3220*%
%ADD298R,0.0013X0.3182*%
%ADD299R,0.0013X0.3170*%
%ADD300R,0.0013X0.3145*%
%ADD301R,0.0013X0.3132*%
%ADD302R,0.0013X0.3107*%
%ADD303R,0.0013X0.3069*%
%ADD304R,0.0013X0.3044*%
%ADD305R,0.0013X0.3031*%
%ADD306R,0.0013X0.3006*%
%ADD307R,0.0013X0.2981*%
%ADD308R,0.0013X0.2943*%
%ADD309R,0.0013X0.2918*%
%ADD310R,0.0013X0.2893*%
%ADD311R,0.0013X0.2868*%
%ADD312R,0.0013X0.2843*%
%ADD313R,0.0013X0.2818*%
%ADD314R,0.0013X0.2792*%
%ADD315R,0.0013X0.2767*%
%ADD316R,0.0013X0.2742*%
%ADD317R,0.0013X0.2717*%
%ADD318R,0.0013X0.2692*%
%ADD319R,0.0013X0.2667*%
%ADD320R,0.0013X0.2641*%
%ADD321R,0.0013X0.2616*%
%ADD322R,0.0013X0.2579*%
%ADD323R,0.0013X0.2553*%
%ADD324R,0.0013X0.2528*%
%ADD325R,0.0013X0.2491*%
%ADD326R,0.0013X0.2465*%
%ADD327R,0.0013X0.2428*%
%ADD328R,0.0013X0.2402*%
%ADD329R,0.0013X0.2365*%
%ADD330R,0.0013X0.2327*%
%ADD331R,0.0013X0.2289*%
%ADD332R,0.0013X0.2264*%
%ADD333R,0.0013X0.2226*%
%ADD334R,0.0013X0.2189*%
%ADD335R,0.0013X0.2151*%
%ADD336R,0.0013X0.2101*%
%ADD337R,0.0013X0.2063*%
%ADD338R,0.0013X0.2025*%
%ADD339R,0.0013X0.1987*%
%ADD340R,0.0013X0.1937*%
%ADD341R,0.0013X0.1887*%
%ADD342R,0.0013X0.1849*%
%ADD343R,0.0013X0.1799*%
%ADD344R,0.0013X0.1748*%
%ADD345R,0.0013X0.1698*%
%ADD346R,0.0013X0.1635*%
%ADD347R,0.0013X0.1585*%
%ADD348R,0.0013X0.1522*%
%ADD349R,0.0013X0.1459*%
%ADD350R,0.0013X0.1396*%
%ADD351R,0.0013X0.1333*%
%ADD352R,0.0013X0.1258*%
%ADD353R,0.0013X0.1182*%
%ADD354R,0.0013X0.1094*%
%ADD355R,0.0013X0.1006*%
%ADD356R,0.0013X0.0906*%
%ADD357R,0.0013X0.0780*%
%ADD358C,0.0480*%
%ADD359R,0.0740X0.0740*%
D10*
X000888Y002209D03*
X000888Y012445D03*
X022935Y012445D03*
X022935Y002209D03*
D11*
X002546Y002673D02*
X001955Y002673D01*
X001955Y002476D02*
X001955Y002870D01*
X001955Y003121D02*
X002546Y003514D01*
X002546Y003121D02*
X001955Y003514D01*
D12*
X011591Y004921D02*
X012111Y004921D01*
X012111Y005921D02*
X011591Y005921D01*
X011591Y006921D02*
X012111Y006921D01*
X012111Y007921D02*
X011591Y007921D01*
X014591Y007921D02*
X015111Y007921D01*
X015111Y006921D02*
X014591Y006921D01*
X014591Y005921D02*
X015111Y005921D01*
X015111Y004921D02*
X014591Y004921D01*
D13*
X013878Y003421D02*
X013324Y003421D01*
X013324Y002421D02*
X013878Y002421D01*
X015101Y002644D02*
X015101Y003198D01*
X017101Y003198D02*
X017101Y002644D01*
X017824Y004421D02*
X018378Y004421D01*
X020324Y005630D02*
X020878Y005630D01*
X020878Y006827D02*
X020324Y006827D01*
X020324Y008004D02*
X020878Y008004D01*
X018378Y007909D02*
X017824Y007909D01*
X016101Y007644D02*
X016101Y008198D01*
X017824Y008921D02*
X018378Y008921D01*
X016101Y009644D02*
X016101Y010198D01*
X017824Y010921D02*
X018378Y010921D01*
X018378Y011934D02*
X017824Y011934D01*
X020074Y012421D02*
X020628Y012421D01*
X020628Y011421D02*
X020074Y011421D01*
X020074Y010421D02*
X020628Y010421D01*
X014101Y010198D02*
X014101Y009644D01*
X012113Y009644D02*
X012113Y010198D01*
X011101Y010198D02*
X011101Y009644D01*
X014101Y012144D02*
X014101Y012698D01*
X013370Y012421D02*
X012816Y012421D01*
X003878Y008827D02*
X003324Y008827D01*
X003324Y007827D02*
X003878Y007827D01*
X003878Y006827D02*
X003324Y006827D01*
X003324Y005827D02*
X003878Y005827D01*
X010324Y002421D02*
X010878Y002421D01*
X017824Y006421D02*
X018378Y006421D01*
D14*
X020321Y003421D02*
X020881Y003421D01*
X020881Y002421D02*
X020321Y002421D01*
D15*
X016101Y004624D02*
X016101Y005218D01*
X010898Y003421D02*
X010304Y003421D01*
X016101Y012124D02*
X016101Y012718D01*
X010390Y012421D02*
X009796Y012421D01*
D16*
X001485Y009577D02*
X000717Y009577D01*
X000717Y005077D02*
X001485Y005077D01*
X022217Y005077D02*
X022985Y005077D01*
X022985Y009577D02*
X022217Y009577D01*
D17*
X022601Y008077D03*
X022601Y006577D03*
X001101Y006577D03*
X001101Y008077D03*
D18*
X003601Y012445D03*
X010494Y007921D03*
X010494Y006421D03*
X010494Y004921D03*
X003601Y002209D03*
D19*
X007032Y003817D03*
X007711Y004647D03*
X009069Y004409D03*
X007220Y005515D03*
D20*
X007044Y005465D03*
X007132Y004685D03*
X009057Y004409D03*
D21*
X009044Y004415D03*
X006805Y005320D03*
X006780Y005320D03*
D22*
X009032Y004415D03*
D23*
X009019Y004409D03*
D24*
X009006Y004415D03*
D25*
X008994Y004409D03*
D26*
X008981Y004415D03*
D27*
X008969Y004415D03*
D28*
X008956Y004415D03*
D29*
X008943Y004409D03*
D30*
X008931Y004415D03*
D31*
X008918Y004409D03*
D32*
X008906Y004409D03*
D33*
X008893Y004415D03*
D34*
X008881Y004415D03*
D35*
X008868Y004415D03*
D36*
X008855Y004415D03*
D37*
X008843Y004415D03*
D38*
X008830Y004409D03*
D39*
X008818Y004409D03*
D40*
X008805Y004415D03*
D41*
X008793Y004415D03*
D42*
X008780Y004409D03*
D43*
X008767Y004415D03*
D44*
X008755Y004409D03*
D45*
X008742Y004415D03*
D46*
X008730Y004409D03*
D47*
X008717Y004415D03*
D48*
X008704Y004409D03*
D49*
X008692Y004415D03*
D50*
X008679Y004415D03*
D51*
X008667Y004409D03*
D52*
X008654Y004409D03*
D53*
X008642Y004415D03*
D54*
X008629Y004415D03*
D55*
X008616Y004409D03*
D56*
X008604Y004409D03*
D57*
X008591Y004409D03*
D58*
X008579Y004415D03*
D59*
X008566Y004415D03*
D60*
X008554Y004415D03*
D61*
X008541Y004415D03*
D62*
X008528Y004415D03*
D63*
X008516Y004415D03*
D64*
X008503Y004415D03*
D65*
X008491Y004415D03*
D66*
X008478Y004415D03*
D67*
X008466Y004415D03*
D68*
X008453Y004415D03*
D69*
X008440Y004415D03*
D70*
X008428Y004415D03*
D71*
X008415Y004415D03*
D72*
X008403Y004409D03*
X005799Y004409D03*
D73*
X008390Y004409D03*
D74*
X008377Y004409D03*
D75*
X008365Y004409D03*
D76*
X008352Y004415D03*
D77*
X008340Y004415D03*
D78*
X008327Y004409D03*
X005874Y004409D03*
D79*
X008315Y004409D03*
D80*
X008302Y004409D03*
D81*
X008289Y004415D03*
D82*
X008277Y004415D03*
D83*
X008264Y004409D03*
D84*
X008252Y004415D03*
X005950Y004415D03*
D85*
X008239Y004415D03*
D86*
X008226Y004409D03*
X005975Y004409D03*
D87*
X008214Y004409D03*
D88*
X008201Y004415D03*
D89*
X008189Y004409D03*
X006013Y004409D03*
D90*
X008176Y004409D03*
D91*
X008164Y004415D03*
D92*
X008151Y004409D03*
D93*
X008139Y004415D03*
X006063Y004415D03*
D94*
X008126Y004415D03*
D95*
X008113Y004409D03*
D96*
X008101Y004415D03*
D97*
X008088Y004409D03*
X006113Y004409D03*
D98*
X006126Y004415D03*
X008076Y004415D03*
D99*
X008063Y004409D03*
X006139Y004409D03*
D100*
X006151Y004415D03*
X008050Y004415D03*
D101*
X008038Y004415D03*
D102*
X008025Y004409D03*
D103*
X008013Y004415D03*
D104*
X008000Y004409D03*
D105*
X007988Y004415D03*
D106*
X007975Y004409D03*
D107*
X007962Y004415D03*
D108*
X007950Y004409D03*
D109*
X007937Y004415D03*
D110*
X007925Y004415D03*
X006277Y004415D03*
D111*
X006289Y004409D03*
X007912Y004409D03*
D112*
X007899Y004415D03*
X006302Y004415D03*
D113*
X006315Y004409D03*
X007887Y004409D03*
D114*
X007874Y004415D03*
X006327Y004415D03*
D115*
X007862Y004409D03*
D116*
X007849Y004415D03*
D117*
X007837Y004415D03*
X006365Y004415D03*
D118*
X006818Y004421D03*
X006403Y003754D03*
X007824Y002899D03*
X006893Y005352D03*
D119*
X007824Y003742D03*
D120*
X007824Y004635D03*
D121*
X007824Y005685D03*
D122*
X007006Y005446D03*
X006415Y003748D03*
X007811Y002868D03*
D123*
X007811Y003748D03*
D124*
X007321Y003975D03*
X006830Y004427D03*
X006805Y004415D03*
X006906Y004490D03*
X007220Y004805D03*
X007296Y004817D03*
X007371Y004880D03*
X007396Y004893D03*
X007811Y004641D03*
X006906Y005358D03*
X005157Y004415D03*
D125*
X006390Y005723D03*
X007811Y005723D03*
D126*
X007208Y004767D03*
X006994Y004541D03*
X007799Y004641D03*
X007799Y002843D03*
X006403Y002855D03*
D127*
X007799Y003748D03*
X006944Y004503D03*
X007308Y004842D03*
D128*
X007799Y005459D03*
X007510Y006125D03*
X007484Y006125D03*
X006742Y006125D03*
X006717Y006125D03*
X006692Y006125D03*
X007749Y003748D03*
X007673Y002742D03*
X007661Y002742D03*
X007635Y002729D03*
X007535Y002704D03*
X007484Y002692D03*
X007459Y002692D03*
X007434Y002692D03*
X006767Y002692D03*
X006742Y002692D03*
X006717Y002692D03*
X006667Y002704D03*
X006617Y002717D03*
X006566Y002729D03*
X006541Y002742D03*
D129*
X006403Y006081D03*
X007799Y006081D03*
D130*
X007120Y006119D03*
X007082Y006119D03*
X007786Y002824D03*
D131*
X007786Y003748D03*
X006981Y004528D03*
X007006Y004553D03*
X007195Y004754D03*
X007032Y005459D03*
D132*
X007786Y004641D03*
X006440Y002805D03*
X007120Y002704D03*
D133*
X007736Y003748D03*
X007120Y003861D03*
X007170Y005534D03*
X007786Y005471D03*
X007623Y006113D03*
X007598Y006113D03*
X006604Y006113D03*
D134*
X006440Y006088D03*
X007761Y006088D03*
X007786Y006088D03*
X007711Y003748D03*
D135*
X007774Y003748D03*
X007208Y003912D03*
X007774Y002817D03*
X007069Y002704D03*
X006428Y002817D03*
X007069Y006125D03*
X007132Y006125D03*
D136*
X007157Y006144D03*
X007183Y006144D03*
X007208Y006144D03*
X007233Y006144D03*
X007258Y006144D03*
X007044Y006144D03*
X007019Y006144D03*
X006994Y006144D03*
X006969Y006144D03*
X006944Y006144D03*
X007774Y004647D03*
X007723Y002773D03*
X006478Y002773D03*
D137*
X007723Y003748D03*
X007095Y003849D03*
X007132Y005484D03*
X007774Y005484D03*
X007698Y006100D03*
X007673Y006100D03*
X006529Y006100D03*
X006503Y006100D03*
D138*
X006453Y006088D03*
X006428Y006088D03*
X006453Y005497D03*
X007208Y005534D03*
X007774Y006088D03*
X007069Y003836D03*
X006503Y003748D03*
D139*
X007195Y003905D03*
X007761Y002799D03*
D140*
X007761Y003754D03*
X007245Y006144D03*
X007220Y006144D03*
X007195Y006144D03*
X007170Y006144D03*
X007145Y006144D03*
X007032Y006144D03*
X007006Y006144D03*
X006981Y006144D03*
X006956Y006144D03*
D141*
X006415Y005465D03*
X007761Y004647D03*
X007572Y002710D03*
X006629Y002710D03*
D142*
X007082Y003843D03*
X007736Y004647D03*
X007761Y005490D03*
X007145Y005490D03*
D143*
X007183Y003899D03*
X007749Y002792D03*
X006453Y002792D03*
D144*
X006478Y003754D03*
X007107Y003855D03*
X007749Y004647D03*
X006428Y005478D03*
D145*
X007749Y005503D03*
X007723Y004647D03*
X007698Y003754D03*
D146*
X007723Y006094D03*
X007749Y006094D03*
X006478Y006094D03*
D147*
X007057Y005440D03*
X007170Y003893D03*
X007736Y002786D03*
X006466Y002786D03*
D148*
X007032Y003245D03*
X007170Y003245D03*
X006516Y003748D03*
X006730Y004566D03*
X006491Y004641D03*
X006491Y005509D03*
X007736Y005509D03*
D149*
X007736Y006094D03*
X006491Y006094D03*
X006466Y006094D03*
X006491Y003754D03*
D150*
X007044Y003251D03*
X006503Y005515D03*
X007723Y005515D03*
D151*
X007371Y006138D03*
X007346Y006138D03*
X007321Y006138D03*
X007296Y006138D03*
X007271Y006138D03*
X006931Y006138D03*
X006906Y006138D03*
X006881Y006138D03*
X006856Y006138D03*
X006830Y006138D03*
X006491Y002767D03*
X006881Y002679D03*
X006906Y002679D03*
X006931Y002679D03*
X006956Y002679D03*
X006981Y002679D03*
X007006Y002679D03*
X007032Y002679D03*
X007057Y002679D03*
X007145Y002679D03*
X007170Y002679D03*
X007195Y002679D03*
X007220Y002679D03*
X007245Y002679D03*
X007271Y002679D03*
X007296Y002679D03*
X007321Y002679D03*
X007711Y002767D03*
D152*
X007422Y004729D03*
X007245Y005522D03*
X007711Y005522D03*
X006516Y005522D03*
D153*
X006440Y005484D03*
X006516Y006100D03*
X007686Y006100D03*
X007711Y006100D03*
X006466Y004641D03*
D154*
X006767Y006132D03*
X006793Y006132D03*
X006818Y006132D03*
X007384Y006132D03*
X007409Y006132D03*
X007434Y006132D03*
X007459Y006132D03*
X007698Y002761D03*
X007409Y002685D03*
X007384Y002685D03*
X007359Y002685D03*
X006868Y002685D03*
X006843Y002685D03*
X006818Y002685D03*
X006793Y002685D03*
X006503Y002761D03*
D155*
X006541Y003754D03*
X006918Y003805D03*
X006944Y003805D03*
X006969Y003805D03*
X006994Y003805D03*
X007661Y003754D03*
X007459Y004207D03*
X007698Y004647D03*
X007698Y005528D03*
X006541Y005528D03*
X006529Y005528D03*
D156*
X006440Y004648D03*
X006516Y002748D03*
X007686Y002748D03*
D157*
X007686Y003754D03*
D158*
X007686Y004647D03*
X007648Y005541D03*
X007296Y005541D03*
X006579Y005541D03*
D159*
X007686Y005528D03*
X006516Y004648D03*
X007472Y004207D03*
X007006Y003805D03*
X006956Y003805D03*
X006931Y003805D03*
D160*
X007019Y003811D03*
X006528Y003748D03*
X007673Y003748D03*
X007233Y005522D03*
D161*
X007308Y005547D03*
X007635Y005547D03*
X006642Y005547D03*
X006617Y005547D03*
X006692Y005081D03*
X006717Y005081D03*
X007673Y004654D03*
X007535Y004214D03*
X007434Y003786D03*
X007635Y003748D03*
X007535Y003283D03*
X007510Y003283D03*
X007484Y003283D03*
X007459Y003283D03*
X007434Y003283D03*
X007409Y003283D03*
X007384Y003283D03*
X007359Y003283D03*
X007333Y003283D03*
X007308Y003283D03*
X007283Y003283D03*
X007258Y003283D03*
X007182Y003283D03*
X007132Y003283D03*
X007107Y003283D03*
X007094Y003283D03*
X007069Y003283D03*
X006918Y003283D03*
X006893Y003283D03*
X006868Y003283D03*
X006843Y003283D03*
X006818Y003283D03*
X006793Y003283D03*
X006767Y003283D03*
X006742Y003283D03*
X006717Y003283D03*
X006692Y003283D03*
X006667Y003283D03*
X006591Y003748D03*
X006717Y004214D03*
D162*
X006529Y004641D03*
X007434Y004201D03*
X007459Y005081D03*
X007484Y005081D03*
X007673Y005534D03*
X007258Y005534D03*
X006717Y005534D03*
X006566Y005534D03*
X006944Y003295D03*
X007233Y003295D03*
D163*
X007560Y004220D03*
X007661Y004647D03*
X007560Y005088D03*
X007585Y005553D03*
X007610Y005553D03*
X007359Y005553D03*
X007333Y005553D03*
X006692Y005553D03*
X006667Y005553D03*
X006667Y004207D03*
X006692Y004207D03*
D164*
X006591Y005541D03*
X007283Y005541D03*
X007661Y005541D03*
D165*
X007183Y005541D03*
X007635Y006107D03*
X007661Y006107D03*
X006566Y006107D03*
X006541Y006107D03*
D166*
X006705Y006125D03*
X006730Y006125D03*
X007472Y006125D03*
X007497Y006125D03*
X007522Y006125D03*
X007082Y005459D03*
X007145Y003874D03*
X007447Y002692D03*
X007472Y002692D03*
X007547Y002704D03*
X007598Y002717D03*
X007648Y002729D03*
X006780Y002692D03*
X006755Y002692D03*
X006730Y002692D03*
X006654Y002704D03*
X006604Y002717D03*
X006579Y002729D03*
X006554Y002742D03*
D167*
X006956Y003295D03*
X007220Y003295D03*
X007245Y003295D03*
X007648Y003748D03*
X006981Y003798D03*
X006554Y003748D03*
X007422Y004201D03*
X007447Y004201D03*
X007422Y005069D03*
X007447Y005081D03*
X007472Y005081D03*
X007497Y005081D03*
X007271Y005534D03*
X006554Y005534D03*
D168*
X007447Y005566D03*
X007472Y005566D03*
X007497Y005566D03*
X007648Y004647D03*
X006855Y003767D03*
X006629Y003276D03*
D169*
X007195Y005541D03*
X007648Y006107D03*
X006579Y006107D03*
X006554Y006107D03*
D170*
X007459Y005566D03*
X007484Y005566D03*
X006642Y005075D03*
X006717Y004622D03*
X006642Y004207D03*
X006843Y003767D03*
X006868Y003767D03*
X007434Y004685D03*
X007635Y004647D03*
D171*
X006466Y003754D03*
X006679Y002698D03*
X006705Y002698D03*
X007497Y002698D03*
X007522Y002698D03*
X007623Y002723D03*
X007572Y006119D03*
X007547Y006119D03*
X006679Y006119D03*
X006654Y006119D03*
X006629Y006119D03*
D172*
X007623Y003283D03*
D173*
X007547Y003283D03*
X007522Y003283D03*
X007497Y003283D03*
X007472Y003283D03*
X007447Y003283D03*
X007421Y003283D03*
X007396Y003283D03*
X007371Y003283D03*
X007346Y003283D03*
X007321Y003283D03*
X007296Y003283D03*
X007271Y003283D03*
X007145Y003283D03*
X007120Y003283D03*
X007082Y003283D03*
X007057Y003283D03*
X007006Y003283D03*
X006931Y003283D03*
X006906Y003283D03*
X006881Y003283D03*
X006855Y003283D03*
X006830Y003283D03*
X006805Y003283D03*
X006780Y003283D03*
X006755Y003283D03*
X006730Y003283D03*
X006705Y003283D03*
X006679Y003283D03*
X006579Y003748D03*
X006730Y004214D03*
X007547Y004214D03*
X007623Y003748D03*
X007547Y005094D03*
X007623Y005547D03*
X007321Y005547D03*
X006629Y005547D03*
X006604Y005547D03*
X006705Y005081D03*
X006730Y005081D03*
D174*
X007623Y004214D03*
D175*
X007623Y004648D03*
X006629Y004648D03*
X006730Y003754D03*
X006755Y003754D03*
X006780Y003754D03*
X007497Y003742D03*
X007522Y003742D03*
D176*
X007623Y005088D03*
D177*
X007157Y005528D03*
X007535Y006119D03*
X007560Y006119D03*
X006667Y006119D03*
X006642Y006119D03*
X006591Y002723D03*
X006692Y002698D03*
X007510Y002698D03*
X007610Y002723D03*
D178*
X007610Y003283D03*
X007610Y004214D03*
D179*
X006893Y003773D03*
X006617Y003748D03*
X006642Y003283D03*
X007585Y003748D03*
X007610Y003748D03*
X006566Y004641D03*
X006667Y005081D03*
X007384Y005559D03*
X007409Y005559D03*
X007434Y005559D03*
X007510Y005559D03*
X007535Y005559D03*
X007560Y005559D03*
D180*
X007610Y004647D03*
X007535Y003742D03*
X007510Y003742D03*
X006767Y003754D03*
X006742Y003754D03*
X006717Y003754D03*
D181*
X007510Y004647D03*
X007535Y004647D03*
X007610Y005088D03*
D182*
X007107Y005471D03*
X007585Y006113D03*
X007610Y006113D03*
X006617Y006113D03*
X006591Y006113D03*
D183*
X006629Y005075D03*
X007598Y003276D03*
D184*
X007572Y003283D03*
X007598Y003748D03*
X006906Y003773D03*
X006881Y003773D03*
X006629Y003748D03*
X006654Y004201D03*
X006579Y004641D03*
X006654Y005081D03*
X007371Y005559D03*
X007396Y005559D03*
X007422Y005559D03*
X007522Y005559D03*
X007547Y005559D03*
X007572Y005559D03*
X007572Y005094D03*
D185*
X007598Y005094D03*
X007598Y004654D03*
X007598Y004214D03*
X007472Y003748D03*
D186*
X006604Y003754D03*
X006679Y004207D03*
X006705Y004207D03*
X006705Y005553D03*
X006679Y005553D03*
X006654Y005553D03*
X007346Y005553D03*
X007598Y005553D03*
D187*
X007095Y005465D03*
X007132Y003868D03*
X007560Y002710D03*
X007585Y002710D03*
X006642Y002710D03*
D188*
X006616Y003283D03*
X006692Y003748D03*
X006793Y003761D03*
X006818Y003761D03*
X007560Y003748D03*
X007585Y003283D03*
X007585Y004214D03*
X007585Y005094D03*
D189*
X007585Y004647D03*
X007560Y004647D03*
X006692Y004647D03*
X007459Y003742D03*
D190*
X007547Y003748D03*
X007572Y003748D03*
X006830Y003761D03*
X006805Y003761D03*
X006705Y003748D03*
X006679Y003748D03*
D191*
X007572Y004214D03*
D192*
X007572Y004647D03*
X006705Y004647D03*
X006679Y004647D03*
X007447Y003742D03*
D193*
X007560Y003276D03*
D194*
X007547Y004648D03*
X007522Y004648D03*
D195*
X007510Y005088D03*
X007535Y005088D03*
X006566Y003754D03*
D196*
X007497Y004214D03*
X007522Y004214D03*
D197*
X007522Y005088D03*
D198*
X007510Y004214D03*
X007484Y004214D03*
D199*
X007472Y004641D03*
X007497Y004641D03*
X007447Y004641D03*
D200*
X007484Y003748D03*
D201*
X006591Y003283D03*
X007459Y004641D03*
X007484Y004641D03*
D202*
X007447Y006132D03*
X007422Y006132D03*
X007396Y006132D03*
X006805Y006132D03*
X006780Y006132D03*
X006755Y006132D03*
X006805Y002685D03*
X006830Y002685D03*
X006855Y002685D03*
X007346Y002685D03*
X007371Y002685D03*
X007396Y002685D03*
X007421Y002685D03*
D203*
X007208Y003302D03*
X006994Y003302D03*
X006969Y003302D03*
X007434Y005075D03*
D204*
X006466Y005503D03*
X007057Y003830D03*
X007422Y003830D03*
D205*
X007409Y004000D03*
X006843Y005333D03*
D206*
X007384Y004880D03*
X007409Y004893D03*
X006793Y004415D03*
X007333Y003975D03*
D207*
X007396Y003993D03*
X006856Y005339D03*
D208*
X006868Y005339D03*
X007384Y003993D03*
D209*
X007371Y003987D03*
X006881Y005346D03*
D210*
X007359Y003987D03*
D211*
X007308Y003968D03*
X006843Y004434D03*
X007359Y004874D03*
X006969Y005364D03*
X006944Y005364D03*
X006918Y005364D03*
D212*
X006918Y006138D03*
X006893Y006138D03*
X006868Y006138D03*
X006843Y006138D03*
X007283Y006138D03*
X007308Y006138D03*
X007333Y006138D03*
X007359Y006138D03*
X005145Y004415D03*
X006453Y003748D03*
X007157Y003886D03*
X007157Y002679D03*
X007132Y002679D03*
X007182Y002679D03*
X007208Y002679D03*
X007233Y002679D03*
X007258Y002679D03*
X007283Y002679D03*
X007308Y002679D03*
X007333Y002679D03*
X007044Y002679D03*
X007019Y002679D03*
X006994Y002679D03*
X006969Y002679D03*
X006944Y002679D03*
X006918Y002679D03*
X006893Y002679D03*
D213*
X007346Y003981D03*
D214*
X006856Y004434D03*
X007346Y004874D03*
X006956Y005364D03*
X006931Y005364D03*
D215*
X007233Y004811D03*
X007258Y004811D03*
X007283Y004811D03*
X007333Y004861D03*
X006918Y004497D03*
X006868Y004446D03*
D216*
X006881Y004453D03*
X006931Y004503D03*
X006956Y004503D03*
X007321Y004855D03*
X006981Y005383D03*
X007296Y003962D03*
X006390Y002880D03*
D217*
X007057Y003019D03*
X007145Y003019D03*
X007220Y003509D03*
X007245Y003509D03*
X007245Y003610D03*
X007220Y003610D03*
X006981Y003610D03*
X006956Y003610D03*
X006931Y003610D03*
X006956Y003509D03*
X006956Y004025D03*
X006931Y004025D03*
X006906Y004025D03*
X006906Y004126D03*
X006931Y004126D03*
X006956Y004126D03*
X007245Y004327D03*
X007271Y004327D03*
X007296Y004327D03*
D218*
X007296Y004427D03*
X007271Y004427D03*
X007245Y004427D03*
X006956Y004880D03*
X006931Y004880D03*
X006931Y004981D03*
X006956Y004981D03*
X007220Y005195D03*
X007245Y005195D03*
X007245Y005295D03*
X007220Y005295D03*
X007170Y005811D03*
X007032Y005811D03*
X007006Y003107D03*
X007195Y003107D03*
D219*
X007233Y003956D03*
X007258Y003956D03*
X007283Y003956D03*
X006403Y004648D03*
D220*
X006918Y004126D03*
X006944Y004126D03*
X006944Y004025D03*
X006918Y004025D03*
X006944Y003610D03*
X006969Y003610D03*
X006944Y003509D03*
X007208Y003509D03*
X007233Y003509D03*
X007258Y003509D03*
X007258Y003610D03*
X007233Y003610D03*
X007208Y003610D03*
X007132Y003019D03*
X007069Y003019D03*
X007044Y003019D03*
X007258Y004327D03*
X007283Y004327D03*
X007132Y005798D03*
D221*
X007019Y005811D03*
X007208Y005295D03*
X007233Y005295D03*
X007258Y005295D03*
X007258Y005195D03*
X007233Y005195D03*
X007208Y005195D03*
X006969Y004981D03*
X006944Y004981D03*
X006918Y004981D03*
X006918Y004880D03*
X006944Y004880D03*
X006969Y004880D03*
X007258Y004427D03*
X007283Y004427D03*
X006994Y003522D03*
X006994Y003107D03*
X007182Y003107D03*
D222*
X007057Y002937D03*
X007271Y003629D03*
X007271Y005176D03*
X007006Y005792D03*
D223*
X007245Y003956D03*
X007271Y003956D03*
D224*
X007271Y004811D03*
X007245Y004811D03*
D225*
X007233Y004314D03*
D226*
X007032Y004578D03*
X007057Y004604D03*
X007082Y004629D03*
X006415Y004654D03*
X007220Y003924D03*
X006415Y002830D03*
D227*
X007208Y003119D03*
X007183Y005798D03*
D228*
X007195Y003302D03*
X006981Y003302D03*
D229*
X007182Y003025D03*
X007132Y002937D03*
D230*
X007019Y004572D03*
X007157Y004710D03*
X007183Y004736D03*
D231*
X007145Y005805D03*
X007057Y005805D03*
X006981Y003515D03*
X007032Y003012D03*
X007170Y003012D03*
D232*
X007170Y004723D03*
D233*
X007157Y005805D03*
X007044Y005805D03*
X006969Y003515D03*
X007157Y003012D03*
D234*
X007157Y003245D03*
X007019Y003245D03*
X007044Y003824D03*
X006478Y005509D03*
D235*
X007120Y005811D03*
X007145Y003107D03*
D236*
X007120Y004673D03*
X007145Y004698D03*
D237*
X007145Y005723D03*
D238*
X007120Y003012D03*
D239*
X007120Y005478D03*
X006730Y005478D03*
D240*
X007094Y002710D03*
X007107Y002710D03*
D241*
X006428Y003748D03*
X007044Y004591D03*
X007069Y004616D03*
X007095Y004641D03*
X007107Y004654D03*
X007095Y006113D03*
D242*
X007107Y006119D03*
D243*
X007082Y002710D03*
D244*
X006529Y002748D03*
X006403Y005453D03*
X007069Y005453D03*
D245*
X007069Y005805D03*
X007019Y003012D03*
D246*
X007057Y006132D03*
D247*
X007019Y005453D03*
X006969Y004522D03*
D248*
X006981Y003132D03*
X007006Y003031D03*
D249*
X006893Y004459D03*
X006994Y005440D03*
D250*
X006830Y005327D03*
D251*
X006818Y005327D03*
D252*
X006793Y005320D03*
D253*
X006780Y004409D03*
X006755Y004409D03*
D254*
X006767Y004409D03*
X006742Y004409D03*
D255*
X006742Y005314D03*
X006767Y005314D03*
D256*
X006755Y005314D03*
D257*
X006679Y005075D03*
X006654Y003276D03*
D258*
X006642Y003754D03*
X006667Y003754D03*
D259*
X006617Y004201D03*
X006642Y004641D03*
X006667Y004641D03*
X006617Y005081D03*
D260*
X006654Y003754D03*
D261*
X006604Y003283D03*
X006654Y004641D03*
D262*
X006604Y004641D03*
X006629Y004201D03*
D263*
X006617Y004641D03*
X006591Y004641D03*
D264*
X006604Y004201D03*
X006604Y005081D03*
D265*
X006591Y004201D03*
D266*
X006591Y005075D03*
D267*
X006554Y004641D03*
D268*
X006541Y004641D03*
D269*
X006503Y004641D03*
D270*
X006478Y004641D03*
D271*
X006453Y004641D03*
D272*
X006440Y003748D03*
D273*
X006428Y004648D03*
D274*
X006415Y006081D03*
D275*
X006390Y003754D03*
D276*
X006390Y004654D03*
D277*
X006378Y004409D03*
D278*
X006352Y004409D03*
D279*
X006340Y004415D03*
D280*
X006264Y004409D03*
D281*
X006252Y004415D03*
D282*
X006239Y004409D03*
D283*
X006227Y004415D03*
D284*
X006214Y004409D03*
D285*
X006201Y004415D03*
D286*
X006189Y004409D03*
D287*
X006176Y004415D03*
D288*
X006164Y004409D03*
D289*
X006101Y004409D03*
D290*
X006088Y004415D03*
D291*
X006076Y004409D03*
D292*
X006050Y004415D03*
D293*
X006038Y004409D03*
D294*
X006025Y004415D03*
D295*
X006000Y004409D03*
D296*
X005988Y004415D03*
D297*
X005962Y004409D03*
D298*
X005937Y004415D03*
D299*
X005925Y004409D03*
D300*
X005912Y004409D03*
D301*
X005900Y004415D03*
D302*
X005887Y004415D03*
D303*
X005862Y004409D03*
D304*
X005849Y004409D03*
D305*
X005837Y004415D03*
D306*
X005824Y004415D03*
D307*
X005811Y004415D03*
D308*
X005786Y004409D03*
D309*
X005774Y004409D03*
D310*
X005761Y004409D03*
D311*
X005749Y004409D03*
D312*
X005736Y004409D03*
D313*
X005723Y004409D03*
D314*
X005711Y004409D03*
D315*
X005698Y004409D03*
D316*
X005686Y004409D03*
D317*
X005673Y004409D03*
D318*
X005661Y004409D03*
D319*
X005648Y004409D03*
D320*
X005635Y004409D03*
D321*
X005623Y004409D03*
D322*
X005610Y004415D03*
D323*
X005598Y004415D03*
D324*
X005585Y004415D03*
D325*
X005572Y004409D03*
D326*
X005560Y004409D03*
D327*
X005547Y004415D03*
D328*
X005535Y004415D03*
D329*
X005522Y004409D03*
D330*
X005510Y004415D03*
D331*
X005497Y004409D03*
D332*
X005484Y004409D03*
D333*
X005472Y004415D03*
D334*
X005459Y004409D03*
D335*
X005447Y004415D03*
D336*
X005434Y004415D03*
D337*
X005422Y004409D03*
D338*
X005409Y004415D03*
D339*
X005396Y004409D03*
D340*
X005384Y004409D03*
D341*
X005371Y004409D03*
D342*
X005359Y004415D03*
D343*
X005346Y004415D03*
D344*
X005334Y004415D03*
D345*
X005321Y004415D03*
D346*
X005308Y004409D03*
D347*
X005296Y004409D03*
D348*
X005283Y004415D03*
D349*
X005271Y004409D03*
D350*
X005258Y004415D03*
D351*
X005245Y004409D03*
D352*
X005233Y004409D03*
D353*
X005220Y004409D03*
D354*
X005208Y004415D03*
D355*
X005195Y004409D03*
D356*
X005183Y004409D03*
D357*
X005170Y004409D03*
D358*
X012701Y004171D03*
X013601Y007371D03*
X018351Y003821D03*
D359*
X009101Y007421D03*
X008101Y007421D03*
X007101Y007421D03*
X006101Y007421D03*
X005101Y007421D03*
X005101Y008421D03*
X006101Y008421D03*
X007101Y008421D03*
X008101Y008421D03*
X009101Y008421D03*
X009101Y009421D03*
X008101Y009421D03*
X007101Y009421D03*
X006101Y009421D03*
X005101Y009421D03*
X005101Y010421D03*
X006101Y010421D03*
X007101Y010421D03*
X008101Y010421D03*
X009101Y010421D03*
X009101Y011421D03*
X008101Y011421D03*
X007101Y011421D03*
X006101Y011421D03*
X005101Y011421D03*
M02*
