%
M48
M72
T01C0.0320
T02C0.0354
T03C0.0394
T04C0.0512
T05C0.0787
T06C0.0900
T07C0.1260
%
T01
X1901Y10381
X1901Y11381
X1901Y12381
X1901Y13381
X4901Y13381
X4901Y12381
X4901Y11381
X4901Y10381
T02
X4401Y8631
X2401Y8631
X7151Y9381
X8651Y10881
X9651Y11881
X10651Y10881
X14401Y10881
X14401Y11881
X17651Y12381
X19651Y12381
X21151Y12381
X22651Y12381
X22651Y14381
X21651Y14381
X20651Y14381
X19651Y14381
X19651Y10381
X17651Y10381
X20651Y7881
X18651Y7381
X18651Y6368
X20651Y4881
X22651Y4954
X22651Y6131
X22651Y7328
X18151Y4381
X17151Y4381
X16151Y4381
X14151Y4381
X15651Y6368
X15651Y7381
X12651Y7381
X12651Y6381
X9151Y5381
X9151Y7393
X8651Y14381
X7651Y14381
X6651Y14381
X9651Y14381
T03
X7151Y12381
X11151Y4381
X21151Y9381
X22651Y9381
T04
X20151Y2381
X18651Y2381
X17151Y2381
X15651Y2381
X12151Y2381
X10651Y2381
X9151Y2381
X7651Y2381
X8151Y17881
X6651Y17881
X9651Y17881
X11151Y17881
T05
X4651Y4631
T06
X4651Y2631
X4651Y6631
T07
X939Y2168
X939Y18310
X22986Y18310
X22986Y2168
M30
