G75*
G70*
%OFA0B0*%
%FSLAX24Y24*%
%IPPOS*%
%LPD*%
%AMOC8*
5,1,8,0,0,1.08239X$1,22.5*
%
%ADD10C,0.1340*%
%ADD11C,0.0600*%
%ADD12C,0.0634*%
%ADD13C,0.1380*%
%ADD14C,0.1261*%
%ADD15C,0.0640*%
%ADD16C,0.0674*%
%ADD17C,0.0848*%
%ADD18C,0.0592*%
D10*
X001324Y002168D03*
X001324Y018310D03*
X023371Y018310D03*
X023371Y002168D03*
D11*
X022669Y010381D02*
X022149Y010381D01*
X022149Y011381D02*
X022669Y011381D01*
X022669Y012381D02*
X022149Y012381D01*
X022149Y013381D02*
X022669Y013381D01*
X019669Y013381D02*
X019149Y013381D01*
X019149Y012381D02*
X019669Y012381D01*
X019669Y011381D02*
X019149Y011381D01*
X019149Y010381D02*
X019669Y010381D01*
D12*
X019909Y008908D02*
X019909Y008354D01*
X021909Y008354D02*
X021909Y008908D01*
X017159Y009104D02*
X017159Y009658D01*
X015659Y010604D02*
X015659Y011158D01*
X014659Y011604D02*
X014659Y012158D01*
X013659Y011158D02*
X013659Y010604D01*
X014882Y007393D02*
X015436Y007393D01*
X015436Y005381D02*
X014882Y005381D01*
X010436Y004381D02*
X009882Y004381D01*
X008159Y004104D02*
X008159Y004658D01*
X007159Y004658D02*
X007159Y004104D01*
X006159Y004104D02*
X006159Y004658D01*
X005936Y006368D02*
X005382Y006368D01*
X005382Y007381D02*
X005936Y007381D01*
X003659Y007604D02*
X003659Y008158D01*
X001936Y007328D02*
X001382Y007328D01*
X001382Y006131D02*
X001936Y006131D01*
X001936Y004954D02*
X001382Y004954D01*
X003659Y005158D02*
X003659Y004604D01*
X008382Y006368D02*
X008936Y006368D01*
X008936Y007381D02*
X008382Y007381D01*
X006936Y010381D02*
X006382Y010381D01*
X004936Y010381D02*
X004382Y010381D01*
X003159Y012104D02*
X003159Y012658D01*
X004382Y012381D02*
X004936Y012381D01*
X006382Y012381D02*
X006936Y012381D01*
X004659Y014104D02*
X004659Y014658D01*
X003659Y014658D02*
X003659Y014104D01*
X002659Y014104D02*
X002659Y014658D01*
X001659Y014658D02*
X001659Y014104D01*
X001659Y012658D02*
X001659Y012104D01*
X014659Y014104D02*
X014659Y014658D01*
X015659Y014658D02*
X015659Y014104D01*
X016659Y014104D02*
X016659Y014658D01*
X017659Y014658D02*
X017659Y014104D01*
D13*
X019009Y006631D02*
X020309Y006631D01*
X020309Y002631D02*
X019009Y002631D01*
D14*
X019068Y004631D02*
X020249Y004631D01*
D15*
X011939Y006381D02*
X011379Y006381D01*
X011379Y007381D02*
X011939Y007381D01*
X010189Y010881D02*
X009629Y010881D01*
X009629Y011881D02*
X010189Y011881D01*
D16*
X017159Y012084D02*
X017159Y012678D01*
X013456Y004381D02*
X012862Y004381D01*
X003159Y009084D02*
X003159Y009678D01*
X001659Y009678D02*
X001659Y009084D01*
D17*
X004159Y002765D02*
X004159Y001997D01*
X008659Y001997D02*
X008659Y002765D01*
X012159Y002765D02*
X012159Y001997D01*
X016659Y001997D02*
X016659Y002765D01*
X017659Y017497D02*
X017659Y018265D01*
X013159Y018265D02*
X013159Y017497D01*
D18*
X014659Y017881D03*
X016159Y017881D03*
X015159Y002381D03*
X013659Y002381D03*
X007159Y002381D03*
X005659Y002381D03*
M02*
