G75*
G70*
%OFA0B0*%
%FSLAX24Y24*%
%IPPOS*%
%LPD*%
%AMOC8*
5,1,8,0,0,1.08239X$1,22.5*
%
%ADD10C,0.0000*%
%ADD11C,0.0040*%
%ADD12C,0.0060*%
%ADD13C,0.0050*%
%ADD14R,0.0800X0.0200*%
%ADD15R,0.0200X0.0250*%
%ADD16C,0.0100*%
%ADD17C,0.0080*%
%ADD18C,0.0120*%
%ADD19R,0.0150X0.0200*%
%ADD20R,0.0200X0.0150*%
%ADD21C,0.0030*%
D10*
X000151Y001381D02*
X000151Y019097D01*
X023773Y019097D01*
X023773Y001381D01*
X000151Y001381D01*
X000309Y002168D02*
X000311Y002218D01*
X000317Y002268D01*
X000327Y002317D01*
X000341Y002365D01*
X000358Y002412D01*
X000379Y002457D01*
X000404Y002501D01*
X000432Y002542D01*
X000464Y002581D01*
X000498Y002618D01*
X000535Y002652D01*
X000575Y002682D01*
X000617Y002709D01*
X000661Y002733D01*
X000707Y002754D01*
X000754Y002770D01*
X000802Y002783D01*
X000852Y002792D01*
X000901Y002797D01*
X000952Y002798D01*
X001002Y002795D01*
X001051Y002788D01*
X001100Y002777D01*
X001148Y002762D01*
X001194Y002744D01*
X001239Y002722D01*
X001282Y002696D01*
X001323Y002667D01*
X001362Y002635D01*
X001398Y002600D01*
X001430Y002562D01*
X001460Y002522D01*
X001487Y002479D01*
X001510Y002435D01*
X001529Y002389D01*
X001545Y002341D01*
X001557Y002292D01*
X001565Y002243D01*
X001569Y002193D01*
X001569Y002143D01*
X001565Y002093D01*
X001557Y002044D01*
X001545Y001995D01*
X001529Y001947D01*
X001510Y001901D01*
X001487Y001857D01*
X001460Y001814D01*
X001430Y001774D01*
X001398Y001736D01*
X001362Y001701D01*
X001323Y001669D01*
X001282Y001640D01*
X001239Y001614D01*
X001194Y001592D01*
X001148Y001574D01*
X001100Y001559D01*
X001051Y001548D01*
X001002Y001541D01*
X000952Y001538D01*
X000901Y001539D01*
X000852Y001544D01*
X000802Y001553D01*
X000754Y001566D01*
X000707Y001582D01*
X000661Y001603D01*
X000617Y001627D01*
X000575Y001654D01*
X000535Y001684D01*
X000498Y001718D01*
X000464Y001755D01*
X000432Y001794D01*
X000404Y001835D01*
X000379Y001879D01*
X000358Y001924D01*
X000341Y001971D01*
X000327Y002019D01*
X000317Y002068D01*
X000311Y002118D01*
X000309Y002168D01*
X008895Y002381D02*
X008897Y002412D01*
X008903Y002443D01*
X008912Y002473D01*
X008925Y002502D01*
X008942Y002529D01*
X008962Y002553D01*
X008984Y002575D01*
X009010Y002594D01*
X009037Y002610D01*
X009066Y002622D01*
X009096Y002631D01*
X009127Y002636D01*
X009159Y002637D01*
X009190Y002634D01*
X009221Y002627D01*
X009251Y002617D01*
X009279Y002603D01*
X009305Y002585D01*
X009329Y002565D01*
X009350Y002541D01*
X009369Y002516D01*
X009384Y002488D01*
X009395Y002459D01*
X009403Y002428D01*
X009407Y002397D01*
X009407Y002365D01*
X009403Y002334D01*
X009395Y002303D01*
X009384Y002274D01*
X009369Y002246D01*
X009350Y002221D01*
X009329Y002197D01*
X009305Y002177D01*
X009279Y002159D01*
X009251Y002145D01*
X009221Y002135D01*
X009190Y002128D01*
X009159Y002125D01*
X009127Y002126D01*
X009096Y002131D01*
X009066Y002140D01*
X009037Y002152D01*
X009010Y002168D01*
X008984Y002187D01*
X008962Y002209D01*
X008942Y002233D01*
X008925Y002260D01*
X008912Y002289D01*
X008903Y002319D01*
X008897Y002350D01*
X008895Y002381D01*
X010395Y002381D02*
X010397Y002412D01*
X010403Y002443D01*
X010412Y002473D01*
X010425Y002502D01*
X010442Y002529D01*
X010462Y002553D01*
X010484Y002575D01*
X010510Y002594D01*
X010537Y002610D01*
X010566Y002622D01*
X010596Y002631D01*
X010627Y002636D01*
X010659Y002637D01*
X010690Y002634D01*
X010721Y002627D01*
X010751Y002617D01*
X010779Y002603D01*
X010805Y002585D01*
X010829Y002565D01*
X010850Y002541D01*
X010869Y002516D01*
X010884Y002488D01*
X010895Y002459D01*
X010903Y002428D01*
X010907Y002397D01*
X010907Y002365D01*
X010903Y002334D01*
X010895Y002303D01*
X010884Y002274D01*
X010869Y002246D01*
X010850Y002221D01*
X010829Y002197D01*
X010805Y002177D01*
X010779Y002159D01*
X010751Y002145D01*
X010721Y002135D01*
X010690Y002128D01*
X010659Y002125D01*
X010627Y002126D01*
X010596Y002131D01*
X010566Y002140D01*
X010537Y002152D01*
X010510Y002168D01*
X010484Y002187D01*
X010462Y002209D01*
X010442Y002233D01*
X010425Y002260D01*
X010412Y002289D01*
X010403Y002319D01*
X010397Y002350D01*
X010395Y002381D01*
X016895Y002381D02*
X016897Y002412D01*
X016903Y002443D01*
X016912Y002473D01*
X016925Y002502D01*
X016942Y002529D01*
X016962Y002553D01*
X016984Y002575D01*
X017010Y002594D01*
X017037Y002610D01*
X017066Y002622D01*
X017096Y002631D01*
X017127Y002636D01*
X017159Y002637D01*
X017190Y002634D01*
X017221Y002627D01*
X017251Y002617D01*
X017279Y002603D01*
X017305Y002585D01*
X017329Y002565D01*
X017350Y002541D01*
X017369Y002516D01*
X017384Y002488D01*
X017395Y002459D01*
X017403Y002428D01*
X017407Y002397D01*
X017407Y002365D01*
X017403Y002334D01*
X017395Y002303D01*
X017384Y002274D01*
X017369Y002246D01*
X017350Y002221D01*
X017329Y002197D01*
X017305Y002177D01*
X017279Y002159D01*
X017251Y002145D01*
X017221Y002135D01*
X017190Y002128D01*
X017159Y002125D01*
X017127Y002126D01*
X017096Y002131D01*
X017066Y002140D01*
X017037Y002152D01*
X017010Y002168D01*
X016984Y002187D01*
X016962Y002209D01*
X016942Y002233D01*
X016925Y002260D01*
X016912Y002289D01*
X016903Y002319D01*
X016897Y002350D01*
X016895Y002381D01*
X018395Y002381D02*
X018397Y002412D01*
X018403Y002443D01*
X018412Y002473D01*
X018425Y002502D01*
X018442Y002529D01*
X018462Y002553D01*
X018484Y002575D01*
X018510Y002594D01*
X018537Y002610D01*
X018566Y002622D01*
X018596Y002631D01*
X018627Y002636D01*
X018659Y002637D01*
X018690Y002634D01*
X018721Y002627D01*
X018751Y002617D01*
X018779Y002603D01*
X018805Y002585D01*
X018829Y002565D01*
X018850Y002541D01*
X018869Y002516D01*
X018884Y002488D01*
X018895Y002459D01*
X018903Y002428D01*
X018907Y002397D01*
X018907Y002365D01*
X018903Y002334D01*
X018895Y002303D01*
X018884Y002274D01*
X018869Y002246D01*
X018850Y002221D01*
X018829Y002197D01*
X018805Y002177D01*
X018779Y002159D01*
X018751Y002145D01*
X018721Y002135D01*
X018690Y002128D01*
X018659Y002125D01*
X018627Y002126D01*
X018596Y002131D01*
X018566Y002140D01*
X018537Y002152D01*
X018510Y002168D01*
X018484Y002187D01*
X018462Y002209D01*
X018442Y002233D01*
X018425Y002260D01*
X018412Y002289D01*
X018403Y002319D01*
X018397Y002350D01*
X018395Y002381D01*
X022356Y002168D02*
X022358Y002218D01*
X022364Y002268D01*
X022374Y002317D01*
X022388Y002365D01*
X022405Y002412D01*
X022426Y002457D01*
X022451Y002501D01*
X022479Y002542D01*
X022511Y002581D01*
X022545Y002618D01*
X022582Y002652D01*
X022622Y002682D01*
X022664Y002709D01*
X022708Y002733D01*
X022754Y002754D01*
X022801Y002770D01*
X022849Y002783D01*
X022899Y002792D01*
X022948Y002797D01*
X022999Y002798D01*
X023049Y002795D01*
X023098Y002788D01*
X023147Y002777D01*
X023195Y002762D01*
X023241Y002744D01*
X023286Y002722D01*
X023329Y002696D01*
X023370Y002667D01*
X023409Y002635D01*
X023445Y002600D01*
X023477Y002562D01*
X023507Y002522D01*
X023534Y002479D01*
X023557Y002435D01*
X023576Y002389D01*
X023592Y002341D01*
X023604Y002292D01*
X023612Y002243D01*
X023616Y002193D01*
X023616Y002143D01*
X023612Y002093D01*
X023604Y002044D01*
X023592Y001995D01*
X023576Y001947D01*
X023557Y001901D01*
X023534Y001857D01*
X023507Y001814D01*
X023477Y001774D01*
X023445Y001736D01*
X023409Y001701D01*
X023370Y001669D01*
X023329Y001640D01*
X023286Y001614D01*
X023241Y001592D01*
X023195Y001574D01*
X023147Y001559D01*
X023098Y001548D01*
X023049Y001541D01*
X022999Y001538D01*
X022948Y001539D01*
X022899Y001544D01*
X022849Y001553D01*
X022801Y001566D01*
X022754Y001582D01*
X022708Y001603D01*
X022664Y001627D01*
X022622Y001654D01*
X022582Y001684D01*
X022545Y001718D01*
X022511Y001755D01*
X022479Y001794D01*
X022451Y001835D01*
X022426Y001879D01*
X022405Y001924D01*
X022388Y001971D01*
X022374Y002019D01*
X022364Y002068D01*
X022358Y002118D01*
X022356Y002168D01*
X009395Y017881D02*
X009397Y017912D01*
X009403Y017943D01*
X009412Y017973D01*
X009425Y018002D01*
X009442Y018029D01*
X009462Y018053D01*
X009484Y018075D01*
X009510Y018094D01*
X009537Y018110D01*
X009566Y018122D01*
X009596Y018131D01*
X009627Y018136D01*
X009659Y018137D01*
X009690Y018134D01*
X009721Y018127D01*
X009751Y018117D01*
X009779Y018103D01*
X009805Y018085D01*
X009829Y018065D01*
X009850Y018041D01*
X009869Y018016D01*
X009884Y017988D01*
X009895Y017959D01*
X009903Y017928D01*
X009907Y017897D01*
X009907Y017865D01*
X009903Y017834D01*
X009895Y017803D01*
X009884Y017774D01*
X009869Y017746D01*
X009850Y017721D01*
X009829Y017697D01*
X009805Y017677D01*
X009779Y017659D01*
X009751Y017645D01*
X009721Y017635D01*
X009690Y017628D01*
X009659Y017625D01*
X009627Y017626D01*
X009596Y017631D01*
X009566Y017640D01*
X009537Y017652D01*
X009510Y017668D01*
X009484Y017687D01*
X009462Y017709D01*
X009442Y017733D01*
X009425Y017760D01*
X009412Y017789D01*
X009403Y017819D01*
X009397Y017850D01*
X009395Y017881D01*
X007895Y017881D02*
X007897Y017912D01*
X007903Y017943D01*
X007912Y017973D01*
X007925Y018002D01*
X007942Y018029D01*
X007962Y018053D01*
X007984Y018075D01*
X008010Y018094D01*
X008037Y018110D01*
X008066Y018122D01*
X008096Y018131D01*
X008127Y018136D01*
X008159Y018137D01*
X008190Y018134D01*
X008221Y018127D01*
X008251Y018117D01*
X008279Y018103D01*
X008305Y018085D01*
X008329Y018065D01*
X008350Y018041D01*
X008369Y018016D01*
X008384Y017988D01*
X008395Y017959D01*
X008403Y017928D01*
X008407Y017897D01*
X008407Y017865D01*
X008403Y017834D01*
X008395Y017803D01*
X008384Y017774D01*
X008369Y017746D01*
X008350Y017721D01*
X008329Y017697D01*
X008305Y017677D01*
X008279Y017659D01*
X008251Y017645D01*
X008221Y017635D01*
X008190Y017628D01*
X008159Y017625D01*
X008127Y017626D01*
X008096Y017631D01*
X008066Y017640D01*
X008037Y017652D01*
X008010Y017668D01*
X007984Y017687D01*
X007962Y017709D01*
X007942Y017733D01*
X007925Y017760D01*
X007912Y017789D01*
X007903Y017819D01*
X007897Y017850D01*
X007895Y017881D01*
X000309Y018310D02*
X000311Y018360D01*
X000317Y018410D01*
X000327Y018459D01*
X000341Y018507D01*
X000358Y018554D01*
X000379Y018599D01*
X000404Y018643D01*
X000432Y018684D01*
X000464Y018723D01*
X000498Y018760D01*
X000535Y018794D01*
X000575Y018824D01*
X000617Y018851D01*
X000661Y018875D01*
X000707Y018896D01*
X000754Y018912D01*
X000802Y018925D01*
X000852Y018934D01*
X000901Y018939D01*
X000952Y018940D01*
X001002Y018937D01*
X001051Y018930D01*
X001100Y018919D01*
X001148Y018904D01*
X001194Y018886D01*
X001239Y018864D01*
X001282Y018838D01*
X001323Y018809D01*
X001362Y018777D01*
X001398Y018742D01*
X001430Y018704D01*
X001460Y018664D01*
X001487Y018621D01*
X001510Y018577D01*
X001529Y018531D01*
X001545Y018483D01*
X001557Y018434D01*
X001565Y018385D01*
X001569Y018335D01*
X001569Y018285D01*
X001565Y018235D01*
X001557Y018186D01*
X001545Y018137D01*
X001529Y018089D01*
X001510Y018043D01*
X001487Y017999D01*
X001460Y017956D01*
X001430Y017916D01*
X001398Y017878D01*
X001362Y017843D01*
X001323Y017811D01*
X001282Y017782D01*
X001239Y017756D01*
X001194Y017734D01*
X001148Y017716D01*
X001100Y017701D01*
X001051Y017690D01*
X001002Y017683D01*
X000952Y017680D01*
X000901Y017681D01*
X000852Y017686D01*
X000802Y017695D01*
X000754Y017708D01*
X000707Y017724D01*
X000661Y017745D01*
X000617Y017769D01*
X000575Y017796D01*
X000535Y017826D01*
X000498Y017860D01*
X000464Y017897D01*
X000432Y017936D01*
X000404Y017977D01*
X000379Y018021D01*
X000358Y018066D01*
X000341Y018113D01*
X000327Y018161D01*
X000317Y018210D01*
X000311Y018260D01*
X000309Y018310D01*
X022356Y018310D02*
X022358Y018360D01*
X022364Y018410D01*
X022374Y018459D01*
X022388Y018507D01*
X022405Y018554D01*
X022426Y018599D01*
X022451Y018643D01*
X022479Y018684D01*
X022511Y018723D01*
X022545Y018760D01*
X022582Y018794D01*
X022622Y018824D01*
X022664Y018851D01*
X022708Y018875D01*
X022754Y018896D01*
X022801Y018912D01*
X022849Y018925D01*
X022899Y018934D01*
X022948Y018939D01*
X022999Y018940D01*
X023049Y018937D01*
X023098Y018930D01*
X023147Y018919D01*
X023195Y018904D01*
X023241Y018886D01*
X023286Y018864D01*
X023329Y018838D01*
X023370Y018809D01*
X023409Y018777D01*
X023445Y018742D01*
X023477Y018704D01*
X023507Y018664D01*
X023534Y018621D01*
X023557Y018577D01*
X023576Y018531D01*
X023592Y018483D01*
X023604Y018434D01*
X023612Y018385D01*
X023616Y018335D01*
X023616Y018285D01*
X023612Y018235D01*
X023604Y018186D01*
X023592Y018137D01*
X023576Y018089D01*
X023557Y018043D01*
X023534Y017999D01*
X023507Y017956D01*
X023477Y017916D01*
X023445Y017878D01*
X023409Y017843D01*
X023370Y017811D01*
X023329Y017782D01*
X023286Y017756D01*
X023241Y017734D01*
X023195Y017716D01*
X023147Y017701D01*
X023098Y017690D01*
X023049Y017683D01*
X022999Y017680D01*
X022948Y017681D01*
X022899Y017686D01*
X022849Y017695D01*
X022801Y017708D01*
X022754Y017724D01*
X022708Y017745D01*
X022664Y017769D01*
X022622Y017796D01*
X022582Y017826D01*
X022545Y017860D01*
X022511Y017897D01*
X022479Y017936D01*
X022451Y017977D01*
X022426Y018021D01*
X022405Y018066D01*
X022388Y018113D01*
X022374Y018161D01*
X022364Y018210D01*
X022358Y018260D01*
X022356Y018310D01*
D11*
X022498Y013208D02*
X022421Y013131D01*
X022421Y012977D01*
X022498Y012901D01*
X022804Y012901D01*
X022881Y012977D01*
X022881Y013131D01*
X022804Y013208D01*
X022651Y013208D01*
X022651Y013054D01*
X021881Y013131D02*
X021881Y012901D01*
X021421Y012901D01*
X021421Y013131D01*
X021498Y013208D01*
X021804Y013208D01*
X021881Y013131D01*
X020881Y013208D02*
X020574Y013208D01*
X020421Y013054D01*
X020574Y012901D01*
X020881Y012901D01*
X020651Y012901D02*
X020651Y013208D01*
X019881Y013054D02*
X019728Y012901D01*
X019421Y012901D01*
X019421Y013208D02*
X019728Y013208D01*
X019881Y013054D01*
X015649Y015276D02*
X015342Y015276D01*
X015495Y015276D02*
X015495Y015736D01*
X015342Y015583D01*
X015188Y015736D02*
X014882Y015736D01*
X014882Y015276D01*
X014728Y015276D02*
X014575Y015429D01*
X014651Y015429D02*
X014421Y015429D01*
X014421Y015276D02*
X014421Y015736D01*
X014651Y015736D01*
X014728Y015659D01*
X014728Y015506D01*
X014651Y015429D01*
X014882Y015506D02*
X015035Y015506D01*
X009881Y013054D02*
X009728Y012901D01*
X009421Y012901D01*
X009421Y013208D02*
X009728Y013208D01*
X009881Y013054D01*
X008881Y012977D02*
X008881Y013131D01*
X008804Y013208D01*
X008651Y013208D01*
X008651Y013054D01*
X008498Y012901D02*
X008804Y012901D01*
X008881Y012977D01*
X008498Y012901D02*
X008421Y012977D01*
X008421Y013131D01*
X008498Y013208D01*
X007881Y013131D02*
X007881Y012977D01*
X007804Y012901D01*
X007498Y012901D01*
X007421Y012977D01*
X007421Y013131D01*
X007498Y013208D01*
X007651Y013208D02*
X007651Y013054D01*
X007651Y013208D02*
X007804Y013208D01*
X007881Y013131D01*
X006881Y013208D02*
X006574Y013208D01*
X006421Y013054D01*
X006574Y012901D01*
X006881Y012901D01*
X006651Y012901D02*
X006651Y013208D01*
X008171Y009236D02*
X008401Y009236D01*
X008478Y009159D01*
X008478Y009006D01*
X008401Y008929D01*
X008171Y008929D01*
X008171Y008776D02*
X008171Y009236D01*
X008632Y009159D02*
X008632Y008852D01*
X008708Y008776D01*
X008862Y008776D01*
X008938Y008852D01*
X008938Y009159D01*
X008862Y009236D01*
X008708Y009236D01*
X008632Y009159D01*
X009092Y009236D02*
X009399Y009236D01*
X009245Y009236D02*
X009245Y008776D01*
X009552Y008776D02*
X009859Y008776D01*
X009706Y008776D02*
X009706Y009236D01*
X009552Y009083D01*
X002631Y007543D02*
X002631Y007236D01*
X002631Y007390D02*
X002171Y007390D01*
X002324Y007236D01*
X002171Y007083D02*
X002171Y006929D01*
X002171Y007006D02*
X002554Y007006D01*
X002631Y006929D01*
X002631Y006852D01*
X002554Y006776D01*
X021296Y006977D02*
X021373Y006901D01*
X021679Y006901D01*
X021756Y006977D01*
X021756Y007131D01*
X021679Y007208D01*
X021373Y007208D01*
X021296Y007131D01*
X021296Y006977D01*
X021296Y007361D02*
X021756Y007668D01*
X021296Y007668D01*
X021296Y007361D02*
X021756Y007361D01*
D12*
X021051Y007181D02*
X021051Y005581D01*
X021049Y005564D01*
X021045Y005547D01*
X021038Y005531D01*
X021028Y005517D01*
X021015Y005504D01*
X021001Y005494D01*
X020985Y005487D01*
X020968Y005483D01*
X020951Y005481D01*
X020351Y005481D01*
X020334Y005483D01*
X020317Y005487D01*
X020301Y005494D01*
X020287Y005504D01*
X020274Y005517D01*
X020264Y005531D01*
X020257Y005547D01*
X020253Y005564D01*
X020251Y005581D01*
X020251Y007181D01*
X020253Y007198D01*
X020257Y007215D01*
X020264Y007231D01*
X020274Y007245D01*
X020287Y007258D01*
X020301Y007268D01*
X020317Y007275D01*
X020334Y007279D01*
X020351Y007281D01*
X020951Y007281D01*
X020968Y007279D01*
X020985Y007275D01*
X021001Y007268D01*
X021015Y007258D01*
X021028Y007245D01*
X021038Y007231D01*
X021045Y007215D01*
X021049Y007198D01*
X021051Y007181D01*
X020651Y006981D02*
X020651Y006381D01*
X020901Y006381D01*
X020651Y006381D02*
X020651Y006131D01*
X020651Y006381D02*
X020401Y006381D01*
X020651Y006381D02*
X020401Y006781D01*
X020901Y006781D01*
X020651Y006381D01*
X018801Y005831D02*
X018501Y005831D01*
X018651Y005681D02*
X018651Y005981D01*
X015801Y005831D02*
X015501Y005831D01*
X015651Y005681D02*
X015651Y005981D01*
X013651Y004681D02*
X013651Y004081D01*
X013649Y004064D01*
X013645Y004047D01*
X013638Y004031D01*
X013628Y004017D01*
X013615Y004004D01*
X013601Y003994D01*
X013585Y003987D01*
X013568Y003983D01*
X013551Y003981D01*
X013401Y003981D01*
X013351Y004031D01*
X011951Y004031D01*
X011901Y003981D01*
X011751Y003981D01*
X011734Y003983D01*
X011717Y003987D01*
X011701Y003994D01*
X011687Y004004D01*
X011674Y004017D01*
X011664Y004031D01*
X011657Y004047D01*
X011653Y004064D01*
X011651Y004081D01*
X011651Y004681D01*
X011653Y004698D01*
X011657Y004715D01*
X011664Y004731D01*
X011674Y004745D01*
X011687Y004758D01*
X011701Y004768D01*
X011717Y004775D01*
X011734Y004779D01*
X011751Y004781D01*
X011901Y004781D01*
X011951Y004731D01*
X013351Y004731D01*
X013401Y004781D01*
X013551Y004781D01*
X013568Y004779D01*
X013585Y004775D01*
X013601Y004768D01*
X013615Y004758D01*
X013628Y004745D01*
X013638Y004731D01*
X013645Y004715D01*
X013649Y004698D01*
X013651Y004681D01*
X007451Y009881D02*
X006851Y009881D01*
X006834Y009883D01*
X006817Y009887D01*
X006801Y009894D01*
X006787Y009904D01*
X006774Y009917D01*
X006764Y009931D01*
X006757Y009947D01*
X006753Y009964D01*
X006751Y009981D01*
X006751Y010131D01*
X006801Y010181D01*
X006801Y011581D01*
X006751Y011631D01*
X006751Y011781D01*
X006753Y011798D01*
X006757Y011815D01*
X006764Y011831D01*
X006774Y011845D01*
X006787Y011858D01*
X006801Y011868D01*
X006817Y011875D01*
X006834Y011879D01*
X006851Y011881D01*
X007451Y011881D01*
X007468Y011879D01*
X007485Y011875D01*
X007501Y011868D01*
X007515Y011858D01*
X007528Y011845D01*
X007538Y011831D01*
X007545Y011815D01*
X007549Y011798D01*
X007551Y011781D01*
X007551Y011631D01*
X007501Y011581D01*
X007501Y010181D01*
X007551Y010131D01*
X007551Y009981D01*
X007549Y009964D01*
X007545Y009947D01*
X007538Y009931D01*
X007528Y009917D01*
X007515Y009904D01*
X007501Y009894D01*
X007485Y009887D01*
X007468Y009883D01*
X007451Y009881D01*
X004851Y009431D02*
X004851Y007831D01*
X004849Y007814D01*
X004845Y007797D01*
X004838Y007781D01*
X004828Y007767D01*
X004815Y007754D01*
X004801Y007744D01*
X004785Y007737D01*
X004768Y007733D01*
X004751Y007731D01*
X002051Y007731D01*
X002034Y007733D01*
X002017Y007737D01*
X002001Y007744D01*
X001987Y007754D01*
X001974Y007767D01*
X001964Y007781D01*
X001957Y007797D01*
X001953Y007814D01*
X001951Y007831D01*
X001951Y009431D01*
X001953Y009448D01*
X001957Y009465D01*
X001964Y009481D01*
X001974Y009495D01*
X001987Y009508D01*
X002001Y009518D01*
X002017Y009525D01*
X002034Y009529D01*
X002051Y009531D01*
X004751Y009531D01*
X004768Y009529D01*
X004785Y009525D01*
X004801Y009518D01*
X004815Y009508D01*
X004828Y009495D01*
X004838Y009481D01*
X004845Y009465D01*
X004849Y009448D01*
X004851Y009431D01*
X004551Y009881D02*
X003801Y009881D01*
X003799Y009920D01*
X003793Y009959D01*
X003784Y009997D01*
X003771Y010034D01*
X003754Y010070D01*
X003734Y010103D01*
X003710Y010135D01*
X003684Y010164D01*
X003655Y010190D01*
X003623Y010214D01*
X003590Y010234D01*
X003554Y010251D01*
X003517Y010264D01*
X003479Y010273D01*
X003440Y010279D01*
X003401Y010281D01*
X003362Y010279D01*
X003323Y010273D01*
X003285Y010264D01*
X003248Y010251D01*
X003212Y010234D01*
X003179Y010214D01*
X003147Y010190D01*
X003118Y010164D01*
X003092Y010135D01*
X003068Y010103D01*
X003048Y010070D01*
X003031Y010034D01*
X003018Y009997D01*
X003009Y009959D01*
X003003Y009920D01*
X003001Y009881D01*
X002251Y009881D01*
X002251Y013881D01*
X004551Y013881D01*
X004551Y009881D01*
X004001Y008631D02*
X003531Y008631D01*
X003281Y008631D02*
X002801Y008631D01*
X016751Y010031D02*
X016751Y012731D01*
X016753Y012748D01*
X016757Y012765D01*
X016764Y012781D01*
X016774Y012795D01*
X016787Y012808D01*
X016801Y012818D01*
X016817Y012825D01*
X016834Y012829D01*
X016851Y012831D01*
X018451Y012831D01*
X018468Y012829D01*
X018485Y012825D01*
X018501Y012818D01*
X018515Y012808D01*
X018528Y012795D01*
X018538Y012781D01*
X018545Y012765D01*
X018549Y012748D01*
X018551Y012731D01*
X018551Y010031D01*
X018549Y010014D01*
X018545Y009997D01*
X018538Y009981D01*
X018528Y009967D01*
X018515Y009954D01*
X018501Y009944D01*
X018485Y009937D01*
X018468Y009933D01*
X018451Y009931D01*
X016851Y009931D01*
X016834Y009933D01*
X016817Y009937D01*
X016801Y009944D01*
X016787Y009954D01*
X016774Y009967D01*
X016764Y009981D01*
X016757Y009997D01*
X016753Y010014D01*
X016751Y010031D01*
X017651Y010781D02*
X017651Y011251D01*
X017651Y011501D02*
X017651Y011981D01*
X018751Y012731D02*
X018751Y010031D01*
X018753Y010014D01*
X018757Y009997D01*
X018764Y009981D01*
X018774Y009967D01*
X018787Y009954D01*
X018801Y009944D01*
X018817Y009937D01*
X018834Y009933D01*
X018851Y009931D01*
X020451Y009931D01*
X020468Y009933D01*
X020485Y009937D01*
X020501Y009944D01*
X020515Y009954D01*
X020528Y009967D01*
X020538Y009981D01*
X020545Y009997D01*
X020549Y010014D01*
X020551Y010031D01*
X020551Y012731D01*
X020549Y012748D01*
X020545Y012765D01*
X020538Y012781D01*
X020528Y012795D01*
X020515Y012808D01*
X020501Y012818D01*
X020485Y012825D01*
X020468Y012829D01*
X020451Y012831D01*
X018851Y012831D01*
X018834Y012829D01*
X018817Y012825D01*
X018801Y012818D01*
X018787Y012808D01*
X018774Y012795D01*
X018764Y012781D01*
X018757Y012765D01*
X018753Y012748D01*
X018751Y012731D01*
X019651Y011981D02*
X019651Y011501D01*
X019651Y011251D02*
X019651Y010781D01*
X020751Y010131D02*
X020751Y009981D01*
X020753Y009964D01*
X020757Y009947D01*
X020764Y009931D01*
X020774Y009917D01*
X020787Y009904D01*
X020801Y009894D01*
X020817Y009887D01*
X020834Y009883D01*
X020851Y009881D01*
X021451Y009881D01*
X021468Y009883D01*
X021485Y009887D01*
X021501Y009894D01*
X021515Y009904D01*
X021528Y009917D01*
X021538Y009931D01*
X021545Y009947D01*
X021549Y009964D01*
X021551Y009981D01*
X021551Y010131D01*
X021501Y010181D01*
X021501Y011581D01*
X021551Y011631D01*
X021551Y011781D01*
X021549Y011798D01*
X021545Y011815D01*
X021538Y011831D01*
X021528Y011845D01*
X021515Y011858D01*
X021501Y011868D01*
X021485Y011875D01*
X021468Y011879D01*
X021451Y011881D01*
X020851Y011881D01*
X020834Y011879D01*
X020817Y011875D01*
X020801Y011868D01*
X020787Y011858D01*
X020774Y011845D01*
X020764Y011831D01*
X020757Y011815D01*
X020753Y011798D01*
X020751Y011781D01*
X020751Y011631D01*
X020801Y011581D01*
X020801Y010181D01*
X020751Y010131D01*
X022251Y010131D02*
X022251Y009981D01*
X022253Y009964D01*
X022257Y009947D01*
X022264Y009931D01*
X022274Y009917D01*
X022287Y009904D01*
X022301Y009894D01*
X022317Y009887D01*
X022334Y009883D01*
X022351Y009881D01*
X022951Y009881D01*
X022968Y009883D01*
X022985Y009887D01*
X023001Y009894D01*
X023015Y009904D01*
X023028Y009917D01*
X023038Y009931D01*
X023045Y009947D01*
X023049Y009964D01*
X023051Y009981D01*
X023051Y010131D01*
X023001Y010181D01*
X023001Y011581D01*
X023051Y011631D01*
X023051Y011781D01*
X023049Y011798D01*
X023045Y011815D01*
X023038Y011831D01*
X023028Y011845D01*
X023015Y011858D01*
X023001Y011868D01*
X022985Y011875D01*
X022968Y011879D01*
X022951Y011881D01*
X022351Y011881D01*
X022334Y011879D01*
X022317Y011875D01*
X022301Y011868D01*
X022287Y011858D01*
X022274Y011845D01*
X022264Y011831D01*
X022257Y011815D01*
X022253Y011798D01*
X022251Y011781D01*
X022251Y011631D01*
X022301Y011581D01*
X022301Y010181D01*
X022251Y010131D01*
X021951Y008408D02*
X023351Y008408D01*
X023351Y003815D01*
X021951Y003815D01*
X021951Y008408D01*
D13*
X020412Y009406D02*
X020337Y009331D01*
X020187Y009331D01*
X020112Y009406D01*
X019951Y009406D02*
X019876Y009331D01*
X019726Y009331D01*
X019651Y009406D01*
X019651Y009706D01*
X019726Y009781D01*
X019876Y009781D01*
X019951Y009706D01*
X020112Y009706D02*
X020187Y009781D01*
X020337Y009781D01*
X020412Y009706D01*
X020412Y009631D01*
X020337Y009556D01*
X020412Y009481D01*
X020412Y009406D01*
X020337Y009556D02*
X020262Y009556D01*
X020901Y010531D02*
X020901Y010701D01*
X020958Y010758D01*
X021071Y010758D01*
X021128Y010701D01*
X021128Y010531D01*
X021241Y010531D02*
X020901Y010531D01*
X021128Y010644D02*
X021241Y010758D01*
X021241Y010890D02*
X021014Y011117D01*
X020958Y011117D01*
X020901Y011060D01*
X020901Y010947D01*
X020958Y010890D01*
X021241Y010890D02*
X021241Y011117D01*
X022401Y011060D02*
X022401Y010947D01*
X022458Y010890D01*
X022458Y010758D02*
X022571Y010758D01*
X022628Y010701D01*
X022628Y010531D01*
X022741Y010531D02*
X022401Y010531D01*
X022401Y010701D01*
X022458Y010758D01*
X022628Y010644D02*
X022741Y010758D01*
X022684Y010890D02*
X022741Y010947D01*
X022741Y011060D01*
X022684Y011117D01*
X022628Y011117D01*
X022571Y011060D01*
X022571Y011003D01*
X022571Y011060D02*
X022514Y011117D01*
X022458Y011117D01*
X022401Y011060D01*
X018537Y009556D02*
X018237Y009556D01*
X018462Y009781D01*
X018462Y009331D01*
X018076Y009406D02*
X018001Y009331D01*
X017851Y009331D01*
X017776Y009406D01*
X017776Y009706D01*
X017851Y009781D01*
X018001Y009781D01*
X018076Y009706D01*
X017451Y008491D02*
X017451Y008191D01*
X017451Y008341D02*
X017001Y008341D01*
X017151Y008191D01*
X017076Y008031D02*
X017001Y007956D01*
X017001Y007806D01*
X017076Y007731D01*
X017376Y007731D01*
X017451Y007806D01*
X017451Y007956D01*
X017376Y008031D01*
X015266Y009696D02*
X014966Y009696D01*
X015266Y009996D01*
X015266Y010071D01*
X015191Y010146D01*
X015041Y010146D01*
X014966Y010071D01*
X014806Y010071D02*
X014806Y009771D01*
X014731Y009696D01*
X014505Y009696D01*
X014505Y010146D01*
X014731Y010146D01*
X014806Y010071D01*
X014345Y010146D02*
X014045Y010146D01*
X014045Y009696D01*
X014345Y009696D01*
X014195Y009921D02*
X014045Y009921D01*
X013885Y009696D02*
X013585Y009696D01*
X013585Y010146D01*
X013951Y008491D02*
X013876Y008416D01*
X013876Y008266D01*
X013951Y008191D01*
X013951Y008031D02*
X013876Y007956D01*
X013876Y007806D01*
X013951Y007731D01*
X014251Y007731D01*
X014326Y007806D01*
X014326Y007956D01*
X014251Y008031D01*
X014326Y008191D02*
X014026Y008491D01*
X013951Y008491D01*
X014326Y008491D02*
X014326Y008191D01*
X012776Y007881D02*
X012651Y007881D01*
X012526Y007881D01*
X012651Y007881D02*
X012651Y007756D01*
X012651Y007881D02*
X012651Y008006D01*
X012687Y005691D02*
X012387Y005691D01*
X012387Y005241D01*
X012687Y005241D01*
X012847Y005241D02*
X013072Y005241D01*
X013147Y005316D01*
X013147Y005616D01*
X013072Y005691D01*
X012847Y005691D01*
X012847Y005241D01*
X012537Y005466D02*
X012387Y005466D01*
X012226Y005241D02*
X011926Y005241D01*
X011926Y005691D01*
X013307Y005541D02*
X013457Y005691D01*
X013457Y005241D01*
X013307Y005241D02*
X013607Y005241D01*
X012899Y004506D02*
X012899Y004166D01*
X013012Y004166D02*
X012785Y004166D01*
X012653Y004166D02*
X012540Y004279D01*
X012596Y004279D02*
X012426Y004279D01*
X012426Y004166D02*
X012426Y004506D01*
X012596Y004506D01*
X012653Y004449D01*
X012653Y004336D01*
X012596Y004279D01*
X012785Y004393D02*
X012899Y004506D01*
X014901Y002941D02*
X014901Y002641D01*
X014826Y002481D02*
X014901Y002406D01*
X014901Y002181D01*
X014901Y002406D02*
X014976Y002481D01*
X015051Y002481D01*
X015126Y002406D01*
X015126Y002181D01*
X014676Y002181D01*
X014676Y002406D01*
X014751Y002481D01*
X014826Y002481D01*
X016051Y003306D02*
X016051Y003606D01*
X016051Y003306D02*
X016201Y003156D01*
X016351Y003306D01*
X016351Y003606D01*
X016512Y003606D02*
X016737Y003606D01*
X016812Y003531D01*
X016812Y003381D01*
X016737Y003306D01*
X016512Y003306D01*
X016662Y003306D02*
X016812Y003156D01*
X016972Y003156D02*
X017272Y003156D01*
X017432Y003231D02*
X017507Y003156D01*
X017657Y003156D01*
X017732Y003231D01*
X017732Y003381D01*
X017582Y003381D01*
X017432Y003531D02*
X017432Y003231D01*
X017122Y003381D02*
X016972Y003381D01*
X016972Y003606D02*
X016972Y003156D01*
X016972Y003606D02*
X017272Y003606D01*
X017432Y003531D02*
X017507Y003606D01*
X017657Y003606D01*
X017732Y003531D01*
X017893Y003456D02*
X018043Y003606D01*
X018043Y003156D01*
X017893Y003156D02*
X018193Y003156D01*
X018526Y003756D02*
X015776Y003756D01*
X016512Y003606D02*
X016512Y003156D01*
X016651Y002381D02*
X016653Y002425D01*
X016659Y002469D01*
X016669Y002512D01*
X016682Y002554D01*
X016699Y002595D01*
X016720Y002634D01*
X016744Y002671D01*
X016771Y002706D01*
X016801Y002738D01*
X016834Y002768D01*
X016870Y002794D01*
X016907Y002818D01*
X016947Y002837D01*
X016988Y002854D01*
X017031Y002866D01*
X017074Y002875D01*
X017118Y002880D01*
X017162Y002881D01*
X017206Y002878D01*
X017250Y002871D01*
X017293Y002860D01*
X017335Y002846D01*
X017375Y002828D01*
X017414Y002806D01*
X017450Y002782D01*
X017484Y002754D01*
X017516Y002723D01*
X017545Y002689D01*
X017571Y002653D01*
X017593Y002615D01*
X017612Y002575D01*
X017627Y002533D01*
X017639Y002491D01*
X017647Y002447D01*
X017651Y002403D01*
X017651Y002359D01*
X017647Y002315D01*
X017639Y002271D01*
X017627Y002229D01*
X017612Y002187D01*
X017593Y002147D01*
X017571Y002109D01*
X017545Y002073D01*
X017516Y002039D01*
X017484Y002008D01*
X017450Y001980D01*
X017414Y001956D01*
X017375Y001934D01*
X017335Y001916D01*
X017293Y001902D01*
X017250Y001891D01*
X017206Y001884D01*
X017162Y001881D01*
X017118Y001882D01*
X017074Y001887D01*
X017031Y001896D01*
X016988Y001908D01*
X016947Y001925D01*
X016907Y001944D01*
X016870Y001968D01*
X016834Y001994D01*
X016801Y002024D01*
X016771Y002056D01*
X016744Y002091D01*
X016720Y002128D01*
X016699Y002167D01*
X016682Y002208D01*
X016669Y002250D01*
X016659Y002293D01*
X016653Y002337D01*
X016651Y002381D01*
X018151Y002381D02*
X018153Y002425D01*
X018159Y002469D01*
X018169Y002512D01*
X018182Y002554D01*
X018199Y002595D01*
X018220Y002634D01*
X018244Y002671D01*
X018271Y002706D01*
X018301Y002738D01*
X018334Y002768D01*
X018370Y002794D01*
X018407Y002818D01*
X018447Y002837D01*
X018488Y002854D01*
X018531Y002866D01*
X018574Y002875D01*
X018618Y002880D01*
X018662Y002881D01*
X018706Y002878D01*
X018750Y002871D01*
X018793Y002860D01*
X018835Y002846D01*
X018875Y002828D01*
X018914Y002806D01*
X018950Y002782D01*
X018984Y002754D01*
X019016Y002723D01*
X019045Y002689D01*
X019071Y002653D01*
X019093Y002615D01*
X019112Y002575D01*
X019127Y002533D01*
X019139Y002491D01*
X019147Y002447D01*
X019151Y002403D01*
X019151Y002359D01*
X019147Y002315D01*
X019139Y002271D01*
X019127Y002229D01*
X019112Y002187D01*
X019093Y002147D01*
X019071Y002109D01*
X019045Y002073D01*
X019016Y002039D01*
X018984Y002008D01*
X018950Y001980D01*
X018914Y001956D01*
X018875Y001934D01*
X018835Y001916D01*
X018793Y001902D01*
X018750Y001891D01*
X018706Y001884D01*
X018662Y001881D01*
X018618Y001882D01*
X018574Y001887D01*
X018531Y001896D01*
X018488Y001908D01*
X018447Y001925D01*
X018407Y001944D01*
X018370Y001968D01*
X018334Y001994D01*
X018301Y002024D01*
X018271Y002056D01*
X018244Y002091D01*
X018220Y002128D01*
X018199Y002167D01*
X018182Y002208D01*
X018169Y002250D01*
X018159Y002293D01*
X018153Y002337D01*
X018151Y002381D01*
X018526Y003756D02*
X018550Y003828D01*
X018570Y003901D01*
X018587Y003975D01*
X018599Y004050D01*
X018608Y004125D01*
X018613Y004201D01*
X018614Y004277D01*
X018611Y004353D01*
X018604Y004428D01*
X018593Y004503D01*
X018578Y004578D01*
X018560Y004651D01*
X018537Y004724D01*
X018511Y004795D01*
X018481Y004865D01*
X018448Y004933D01*
X018411Y004999D01*
X018371Y005064D01*
X018327Y005126D01*
X018281Y005186D01*
X018231Y005243D01*
X018178Y005298D01*
X018123Y005350D01*
X018065Y005399D01*
X018004Y005444D01*
X017941Y005487D01*
X017877Y005526D01*
X017810Y005562D01*
X017741Y005595D01*
X017671Y005624D01*
X017599Y005649D01*
X017526Y005670D01*
X017452Y005688D01*
X017378Y005701D01*
X017303Y005711D01*
X017227Y005717D01*
X017151Y005719D01*
X017075Y005717D01*
X016999Y005711D01*
X016924Y005701D01*
X016850Y005688D01*
X016776Y005670D01*
X016703Y005649D01*
X016631Y005624D01*
X016561Y005595D01*
X016492Y005562D01*
X016425Y005526D01*
X016361Y005487D01*
X016298Y005444D01*
X016237Y005399D01*
X016179Y005350D01*
X016124Y005298D01*
X016071Y005243D01*
X016021Y005186D01*
X015975Y005126D01*
X015931Y005064D01*
X015891Y004999D01*
X015854Y004933D01*
X015821Y004865D01*
X015791Y004795D01*
X015765Y004724D01*
X015742Y004651D01*
X015724Y004578D01*
X015709Y004503D01*
X015698Y004428D01*
X015691Y004353D01*
X015688Y004277D01*
X015689Y004201D01*
X015694Y004125D01*
X015703Y004050D01*
X015715Y003975D01*
X015732Y003901D01*
X015752Y003828D01*
X015776Y003756D01*
X013126Y002310D02*
X013126Y002160D01*
X013051Y002085D01*
X012901Y002160D02*
X012901Y002310D01*
X012976Y002385D01*
X013051Y002385D01*
X013126Y002310D01*
X012901Y002160D02*
X012826Y002085D01*
X012751Y002085D01*
X012676Y002160D01*
X012676Y002310D01*
X012751Y002385D01*
X012901Y002545D02*
X012901Y002846D01*
X012751Y002696D02*
X013051Y002696D01*
X010151Y002381D02*
X010153Y002425D01*
X010159Y002469D01*
X010169Y002512D01*
X010182Y002554D01*
X010199Y002595D01*
X010220Y002634D01*
X010244Y002671D01*
X010271Y002706D01*
X010301Y002738D01*
X010334Y002768D01*
X010370Y002794D01*
X010407Y002818D01*
X010447Y002837D01*
X010488Y002854D01*
X010531Y002866D01*
X010574Y002875D01*
X010618Y002880D01*
X010662Y002881D01*
X010706Y002878D01*
X010750Y002871D01*
X010793Y002860D01*
X010835Y002846D01*
X010875Y002828D01*
X010914Y002806D01*
X010950Y002782D01*
X010984Y002754D01*
X011016Y002723D01*
X011045Y002689D01*
X011071Y002653D01*
X011093Y002615D01*
X011112Y002575D01*
X011127Y002533D01*
X011139Y002491D01*
X011147Y002447D01*
X011151Y002403D01*
X011151Y002359D01*
X011147Y002315D01*
X011139Y002271D01*
X011127Y002229D01*
X011112Y002187D01*
X011093Y002147D01*
X011071Y002109D01*
X011045Y002073D01*
X011016Y002039D01*
X010984Y002008D01*
X010950Y001980D01*
X010914Y001956D01*
X010875Y001934D01*
X010835Y001916D01*
X010793Y001902D01*
X010750Y001891D01*
X010706Y001884D01*
X010662Y001881D01*
X010618Y001882D01*
X010574Y001887D01*
X010531Y001896D01*
X010488Y001908D01*
X010447Y001925D01*
X010407Y001944D01*
X010370Y001968D01*
X010334Y001994D01*
X010301Y002024D01*
X010271Y002056D01*
X010244Y002091D01*
X010220Y002128D01*
X010199Y002167D01*
X010182Y002208D01*
X010169Y002250D01*
X010159Y002293D01*
X010153Y002337D01*
X010151Y002381D01*
X008651Y002381D02*
X008653Y002425D01*
X008659Y002469D01*
X008669Y002512D01*
X008682Y002554D01*
X008699Y002595D01*
X008720Y002634D01*
X008744Y002671D01*
X008771Y002706D01*
X008801Y002738D01*
X008834Y002768D01*
X008870Y002794D01*
X008907Y002818D01*
X008947Y002837D01*
X008988Y002854D01*
X009031Y002866D01*
X009074Y002875D01*
X009118Y002880D01*
X009162Y002881D01*
X009206Y002878D01*
X009250Y002871D01*
X009293Y002860D01*
X009335Y002846D01*
X009375Y002828D01*
X009414Y002806D01*
X009450Y002782D01*
X009484Y002754D01*
X009516Y002723D01*
X009545Y002689D01*
X009571Y002653D01*
X009593Y002615D01*
X009612Y002575D01*
X009627Y002533D01*
X009639Y002491D01*
X009647Y002447D01*
X009651Y002403D01*
X009651Y002359D01*
X009647Y002315D01*
X009639Y002271D01*
X009627Y002229D01*
X009612Y002187D01*
X009593Y002147D01*
X009571Y002109D01*
X009545Y002073D01*
X009516Y002039D01*
X009484Y002008D01*
X009450Y001980D01*
X009414Y001956D01*
X009375Y001934D01*
X009335Y001916D01*
X009293Y001902D01*
X009250Y001891D01*
X009206Y001884D01*
X009162Y001881D01*
X009118Y001882D01*
X009074Y001887D01*
X009031Y001896D01*
X008988Y001908D01*
X008947Y001925D01*
X008907Y001944D01*
X008870Y001968D01*
X008834Y001994D01*
X008801Y002024D01*
X008771Y002056D01*
X008744Y002091D01*
X008720Y002128D01*
X008699Y002167D01*
X008682Y002208D01*
X008669Y002250D01*
X008659Y002293D01*
X008653Y002337D01*
X008651Y002381D01*
X007126Y002406D02*
X007126Y002256D01*
X007051Y002181D01*
X006901Y002256D02*
X006901Y002406D01*
X006976Y002481D01*
X007051Y002481D01*
X007126Y002406D01*
X006901Y002256D02*
X006826Y002181D01*
X006751Y002181D01*
X006676Y002256D01*
X006676Y002406D01*
X006751Y002481D01*
X006901Y002641D02*
X006901Y002941D01*
X006401Y001881D02*
X006401Y007381D01*
X002901Y007381D01*
X002901Y001881D01*
X003151Y001381D01*
X003151Y000131D01*
X006151Y000131D01*
X006151Y001381D01*
X006401Y001881D01*
X007051Y007035D02*
X006976Y007110D01*
X006976Y007260D01*
X007051Y007335D01*
X006976Y007495D02*
X007201Y007495D01*
X007126Y007646D01*
X007126Y007721D01*
X007201Y007796D01*
X007351Y007796D01*
X007426Y007721D01*
X007426Y007570D01*
X007351Y007495D01*
X007351Y007335D02*
X007426Y007260D01*
X007426Y007110D01*
X007351Y007035D01*
X007051Y007035D01*
X006976Y007495D02*
X006976Y007796D01*
X005451Y008706D02*
X005451Y008856D01*
X005376Y008931D01*
X005376Y009091D02*
X005451Y009166D01*
X005451Y009316D01*
X005376Y009391D01*
X005301Y009391D01*
X005226Y009316D01*
X005226Y009091D01*
X005376Y009091D01*
X005226Y009091D02*
X005076Y009241D01*
X005001Y009391D01*
X005076Y008931D02*
X005001Y008856D01*
X005001Y008706D01*
X005076Y008631D01*
X005376Y008631D01*
X005451Y008706D01*
X006936Y010563D02*
X006936Y010733D01*
X006993Y010789D01*
X007106Y010789D01*
X007163Y010733D01*
X007163Y010563D01*
X007163Y010676D02*
X007276Y010789D01*
X007219Y010922D02*
X007276Y010978D01*
X007276Y011092D01*
X007219Y011149D01*
X007106Y011149D01*
X007049Y011092D01*
X007049Y011035D01*
X007106Y010922D01*
X006936Y010922D01*
X006936Y011149D01*
X006936Y010563D02*
X007276Y010563D01*
X003651Y010881D02*
X003651Y011181D01*
X003651Y011341D02*
X003201Y011341D01*
X003351Y011491D01*
X003201Y011641D01*
X003651Y011641D01*
X003576Y011801D02*
X003651Y011877D01*
X003651Y012027D01*
X003576Y012102D01*
X003501Y012102D01*
X003426Y012027D01*
X003426Y011952D01*
X003426Y012027D02*
X003351Y012102D01*
X003276Y012102D01*
X003201Y012027D01*
X003201Y011877D01*
X003276Y011801D01*
X003276Y012262D02*
X003351Y012262D01*
X003426Y012337D01*
X003426Y012487D01*
X003501Y012562D01*
X003576Y012562D01*
X003651Y012487D01*
X003651Y012337D01*
X003576Y012262D01*
X003501Y012262D01*
X003426Y012337D01*
X003426Y012487D02*
X003351Y012562D01*
X003276Y012562D01*
X003201Y012487D01*
X003201Y012337D01*
X003276Y012262D01*
X003426Y012722D02*
X003426Y012947D01*
X003501Y013022D01*
X003576Y013022D01*
X003651Y012947D01*
X003651Y012797D01*
X003576Y012722D01*
X003426Y012722D01*
X003276Y012872D01*
X003201Y013022D01*
X003201Y010881D02*
X003651Y010881D01*
X005826Y017306D02*
X005676Y017456D01*
X005826Y017606D01*
X006126Y017606D01*
X006126Y017766D02*
X005676Y017766D01*
X006126Y018066D01*
X005676Y018066D01*
X005676Y018226D02*
X005676Y018527D01*
X005676Y018377D02*
X006126Y018377D01*
X005901Y018687D02*
X005901Y018987D01*
X005751Y018837D02*
X006051Y018837D01*
X005901Y017606D02*
X005901Y017306D01*
X005826Y017306D02*
X006126Y017306D01*
X007651Y017881D02*
X007653Y017925D01*
X007659Y017969D01*
X007669Y018012D01*
X007682Y018054D01*
X007699Y018095D01*
X007720Y018134D01*
X007744Y018171D01*
X007771Y018206D01*
X007801Y018238D01*
X007834Y018268D01*
X007870Y018294D01*
X007907Y018318D01*
X007947Y018337D01*
X007988Y018354D01*
X008031Y018366D01*
X008074Y018375D01*
X008118Y018380D01*
X008162Y018381D01*
X008206Y018378D01*
X008250Y018371D01*
X008293Y018360D01*
X008335Y018346D01*
X008375Y018328D01*
X008414Y018306D01*
X008450Y018282D01*
X008484Y018254D01*
X008516Y018223D01*
X008545Y018189D01*
X008571Y018153D01*
X008593Y018115D01*
X008612Y018075D01*
X008627Y018033D01*
X008639Y017991D01*
X008647Y017947D01*
X008651Y017903D01*
X008651Y017859D01*
X008647Y017815D01*
X008639Y017771D01*
X008627Y017729D01*
X008612Y017687D01*
X008593Y017647D01*
X008571Y017609D01*
X008545Y017573D01*
X008516Y017539D01*
X008484Y017508D01*
X008450Y017480D01*
X008414Y017456D01*
X008375Y017434D01*
X008335Y017416D01*
X008293Y017402D01*
X008250Y017391D01*
X008206Y017384D01*
X008162Y017381D01*
X008118Y017382D01*
X008074Y017387D01*
X008031Y017396D01*
X007988Y017408D01*
X007947Y017425D01*
X007907Y017444D01*
X007870Y017468D01*
X007834Y017494D01*
X007801Y017524D01*
X007771Y017556D01*
X007744Y017591D01*
X007720Y017628D01*
X007699Y017667D01*
X007682Y017708D01*
X007669Y017750D01*
X007659Y017793D01*
X007653Y017837D01*
X007651Y017881D01*
X009151Y017881D02*
X009153Y017925D01*
X009159Y017969D01*
X009169Y018012D01*
X009182Y018054D01*
X009199Y018095D01*
X009220Y018134D01*
X009244Y018171D01*
X009271Y018206D01*
X009301Y018238D01*
X009334Y018268D01*
X009370Y018294D01*
X009407Y018318D01*
X009447Y018337D01*
X009488Y018354D01*
X009531Y018366D01*
X009574Y018375D01*
X009618Y018380D01*
X009662Y018381D01*
X009706Y018378D01*
X009750Y018371D01*
X009793Y018360D01*
X009835Y018346D01*
X009875Y018328D01*
X009914Y018306D01*
X009950Y018282D01*
X009984Y018254D01*
X010016Y018223D01*
X010045Y018189D01*
X010071Y018153D01*
X010093Y018115D01*
X010112Y018075D01*
X010127Y018033D01*
X010139Y017991D01*
X010147Y017947D01*
X010151Y017903D01*
X010151Y017859D01*
X010147Y017815D01*
X010139Y017771D01*
X010127Y017729D01*
X010112Y017687D01*
X010093Y017647D01*
X010071Y017609D01*
X010045Y017573D01*
X010016Y017539D01*
X009984Y017508D01*
X009950Y017480D01*
X009914Y017456D01*
X009875Y017434D01*
X009835Y017416D01*
X009793Y017402D01*
X009750Y017391D01*
X009706Y017384D01*
X009662Y017381D01*
X009618Y017382D01*
X009574Y017387D01*
X009531Y017396D01*
X009488Y017408D01*
X009447Y017425D01*
X009407Y017444D01*
X009370Y017468D01*
X009334Y017494D01*
X009301Y017524D01*
X009271Y017556D01*
X009244Y017591D01*
X009220Y017628D01*
X009199Y017667D01*
X009182Y017708D01*
X009169Y017750D01*
X009159Y017793D01*
X009153Y017837D01*
X009151Y017881D01*
X011676Y017960D02*
X011676Y018260D01*
X011676Y018110D02*
X012126Y018110D01*
X011901Y018420D02*
X011901Y018721D01*
X012126Y017800D02*
X011676Y017800D01*
X011676Y017500D02*
X012126Y017800D01*
X012126Y017500D02*
X011676Y017500D01*
X011826Y017339D02*
X012126Y017339D01*
X011901Y017339D02*
X011901Y017039D01*
X011826Y017039D02*
X011676Y017189D01*
X011826Y017339D01*
X011826Y017039D02*
X012126Y017039D01*
X014401Y012506D02*
X014401Y012381D01*
X014276Y012381D01*
X014401Y012381D02*
X014526Y012381D01*
X014401Y012381D02*
X014401Y012256D01*
X021626Y006141D02*
X021626Y005841D01*
X021626Y005991D02*
X021176Y005991D01*
X021326Y005841D01*
X021251Y005681D02*
X021176Y005606D01*
X021176Y005381D01*
X021626Y005381D01*
X021626Y005606D01*
X021551Y005681D01*
X021251Y005681D01*
X020901Y002846D02*
X020901Y002545D01*
X020826Y002385D02*
X020901Y002310D01*
X020901Y002085D01*
X020676Y002085D02*
X020676Y002310D01*
X020751Y002385D01*
X020826Y002385D01*
X020901Y002310D02*
X020976Y002385D01*
X021051Y002385D01*
X021126Y002310D01*
X021126Y002085D01*
X020676Y002085D01*
X020751Y002696D02*
X021051Y002696D01*
D14*
X020651Y005731D03*
D15*
X020651Y005356D03*
X020651Y007406D03*
D16*
X017376Y006881D02*
X017378Y006952D01*
X017384Y007022D01*
X017394Y007093D01*
X017407Y007162D01*
X017425Y007231D01*
X017446Y007299D01*
X017471Y007365D01*
X017500Y007430D01*
X017532Y007493D01*
X017568Y007554D01*
X017607Y007613D01*
X017649Y007670D01*
X017695Y007724D01*
X017743Y007776D01*
X017794Y007825D01*
X017848Y007871D01*
X017904Y007915D01*
X017963Y007954D01*
X018024Y007991D01*
X018086Y008024D01*
X018151Y008054D01*
X018217Y008080D01*
X018284Y008102D01*
X018352Y008121D01*
X018422Y008135D01*
X018492Y008146D01*
X018562Y008153D01*
X018633Y008156D01*
X018704Y008155D01*
X018775Y008150D01*
X018845Y008141D01*
X018915Y008128D01*
X018984Y008112D01*
X019052Y008091D01*
X019118Y008067D01*
X019184Y008039D01*
X019247Y008008D01*
X019309Y007973D01*
X019369Y007935D01*
X019426Y007893D01*
X019481Y007849D01*
X019534Y007801D01*
X019583Y007751D01*
X019630Y007698D01*
X019674Y007642D01*
X019715Y007584D01*
X019752Y007524D01*
X019786Y007461D01*
X019817Y007397D01*
X019844Y007332D01*
X019867Y007265D01*
X019886Y007197D01*
X019902Y007128D01*
X019914Y007058D01*
X019922Y006987D01*
X019926Y006916D01*
X019926Y006846D01*
X019922Y006775D01*
X019914Y006704D01*
X019902Y006634D01*
X019886Y006565D01*
X019867Y006497D01*
X019844Y006430D01*
X019817Y006365D01*
X019786Y006301D01*
X019752Y006238D01*
X019715Y006178D01*
X019674Y006120D01*
X019630Y006064D01*
X019583Y006011D01*
X019534Y005961D01*
X019481Y005913D01*
X019426Y005869D01*
X019369Y005827D01*
X019309Y005789D01*
X019247Y005754D01*
X019184Y005723D01*
X019118Y005695D01*
X019052Y005671D01*
X018984Y005650D01*
X018915Y005634D01*
X018845Y005621D01*
X018775Y005612D01*
X018704Y005607D01*
X018633Y005606D01*
X018562Y005609D01*
X018492Y005616D01*
X018422Y005627D01*
X018352Y005641D01*
X018284Y005660D01*
X018217Y005682D01*
X018151Y005708D01*
X018086Y005738D01*
X018024Y005771D01*
X017963Y005808D01*
X017904Y005847D01*
X017848Y005891D01*
X017794Y005937D01*
X017743Y005986D01*
X017695Y006038D01*
X017649Y006092D01*
X017607Y006149D01*
X017568Y006208D01*
X017532Y006269D01*
X017500Y006332D01*
X017471Y006397D01*
X017446Y006463D01*
X017425Y006531D01*
X017407Y006600D01*
X017394Y006669D01*
X017384Y006740D01*
X017378Y006810D01*
X017376Y006881D01*
X014376Y006881D02*
X014378Y006952D01*
X014384Y007022D01*
X014394Y007093D01*
X014407Y007162D01*
X014425Y007231D01*
X014446Y007299D01*
X014471Y007365D01*
X014500Y007430D01*
X014532Y007493D01*
X014568Y007554D01*
X014607Y007613D01*
X014649Y007670D01*
X014695Y007724D01*
X014743Y007776D01*
X014794Y007825D01*
X014848Y007871D01*
X014904Y007915D01*
X014963Y007954D01*
X015024Y007991D01*
X015086Y008024D01*
X015151Y008054D01*
X015217Y008080D01*
X015284Y008102D01*
X015352Y008121D01*
X015422Y008135D01*
X015492Y008146D01*
X015562Y008153D01*
X015633Y008156D01*
X015704Y008155D01*
X015775Y008150D01*
X015845Y008141D01*
X015915Y008128D01*
X015984Y008112D01*
X016052Y008091D01*
X016118Y008067D01*
X016184Y008039D01*
X016247Y008008D01*
X016309Y007973D01*
X016369Y007935D01*
X016426Y007893D01*
X016481Y007849D01*
X016534Y007801D01*
X016583Y007751D01*
X016630Y007698D01*
X016674Y007642D01*
X016715Y007584D01*
X016752Y007524D01*
X016786Y007461D01*
X016817Y007397D01*
X016844Y007332D01*
X016867Y007265D01*
X016886Y007197D01*
X016902Y007128D01*
X016914Y007058D01*
X016922Y006987D01*
X016926Y006916D01*
X016926Y006846D01*
X016922Y006775D01*
X016914Y006704D01*
X016902Y006634D01*
X016886Y006565D01*
X016867Y006497D01*
X016844Y006430D01*
X016817Y006365D01*
X016786Y006301D01*
X016752Y006238D01*
X016715Y006178D01*
X016674Y006120D01*
X016630Y006064D01*
X016583Y006011D01*
X016534Y005961D01*
X016481Y005913D01*
X016426Y005869D01*
X016369Y005827D01*
X016309Y005789D01*
X016247Y005754D01*
X016184Y005723D01*
X016118Y005695D01*
X016052Y005671D01*
X015984Y005650D01*
X015915Y005634D01*
X015845Y005621D01*
X015775Y005612D01*
X015704Y005607D01*
X015633Y005606D01*
X015562Y005609D01*
X015492Y005616D01*
X015422Y005627D01*
X015352Y005641D01*
X015284Y005660D01*
X015217Y005682D01*
X015151Y005708D01*
X015086Y005738D01*
X015024Y005771D01*
X014963Y005808D01*
X014904Y005847D01*
X014848Y005891D01*
X014794Y005937D01*
X014743Y005986D01*
X014695Y006038D01*
X014649Y006092D01*
X014607Y006149D01*
X014568Y006208D01*
X014532Y006269D01*
X014500Y006332D01*
X014471Y006397D01*
X014446Y006463D01*
X014425Y006531D01*
X014407Y006600D01*
X014394Y006669D01*
X014384Y006740D01*
X014378Y006810D01*
X014376Y006881D01*
X013401Y005881D02*
X013455Y005924D01*
X013507Y005970D01*
X013556Y006019D01*
X013603Y006071D01*
X013646Y006125D01*
X013687Y006181D01*
X013724Y006240D01*
X013758Y006300D01*
X013788Y006363D01*
X013815Y006426D01*
X013839Y006492D01*
X013859Y006558D01*
X013875Y006626D01*
X013887Y006694D01*
X013895Y006763D01*
X013900Y006832D01*
X013901Y006902D01*
X013898Y006971D01*
X013891Y007040D01*
X013880Y007108D01*
X013866Y007176D01*
X013847Y007243D01*
X013825Y007309D01*
X013800Y007374D01*
X013771Y007437D01*
X013738Y007498D01*
X013702Y007557D01*
X013663Y007614D01*
X013621Y007670D01*
X013576Y007722D01*
X013528Y007772D01*
X013477Y007819D01*
X013423Y007864D01*
X013368Y007905D01*
X013310Y007943D01*
X013250Y007978D01*
X013188Y008010D01*
X013125Y008038D01*
X013060Y008062D01*
X012994Y008083D01*
X012926Y008100D01*
X012858Y008114D01*
X012789Y008123D01*
X012720Y008129D01*
X012651Y008131D01*
X012582Y008129D01*
X012513Y008123D01*
X012444Y008114D01*
X012376Y008100D01*
X012308Y008083D01*
X012242Y008062D01*
X012177Y008038D01*
X012114Y008010D01*
X012052Y007978D01*
X011992Y007943D01*
X011934Y007905D01*
X011879Y007864D01*
X011825Y007819D01*
X011774Y007772D01*
X011726Y007722D01*
X011681Y007670D01*
X011639Y007614D01*
X011600Y007557D01*
X011564Y007498D01*
X011531Y007437D01*
X011502Y007374D01*
X011477Y007309D01*
X011455Y007243D01*
X011436Y007176D01*
X011422Y007108D01*
X011411Y007040D01*
X011404Y006971D01*
X011401Y006902D01*
X011402Y006832D01*
X011407Y006763D01*
X011415Y006694D01*
X011427Y006626D01*
X011443Y006558D01*
X011463Y006492D01*
X011487Y006426D01*
X011514Y006363D01*
X011544Y006300D01*
X011578Y006240D01*
X011615Y006181D01*
X011656Y006125D01*
X011699Y006071D01*
X011746Y006019D01*
X011795Y005970D01*
X011847Y005924D01*
X011901Y005881D01*
X009399Y007869D02*
X008903Y007869D01*
X009151Y008117D02*
X009151Y007621D01*
X007348Y006381D02*
X007350Y006469D01*
X007357Y006558D01*
X007368Y006646D01*
X007383Y006733D01*
X007402Y006819D01*
X007426Y006904D01*
X007453Y006988D01*
X007485Y007071D01*
X007521Y007152D01*
X007561Y007231D01*
X007605Y007308D01*
X007652Y007383D01*
X007703Y007455D01*
X007757Y007525D01*
X007815Y007592D01*
X007876Y007656D01*
X007940Y007717D01*
X008007Y007775D01*
X008077Y007829D01*
X008149Y007880D01*
X008224Y007927D01*
X008301Y007971D01*
X008380Y008011D01*
X008461Y008047D01*
X008544Y008079D01*
X008628Y008106D01*
X008713Y008130D01*
X008799Y008149D01*
X008886Y008164D01*
X008974Y008175D01*
X009063Y008182D01*
X009151Y008184D01*
X009239Y008182D01*
X009328Y008175D01*
X009416Y008164D01*
X009503Y008149D01*
X009589Y008130D01*
X009674Y008106D01*
X009758Y008079D01*
X009841Y008047D01*
X009922Y008011D01*
X010001Y007971D01*
X010078Y007927D01*
X010153Y007880D01*
X010225Y007829D01*
X010295Y007775D01*
X010362Y007717D01*
X010426Y007656D01*
X010487Y007592D01*
X010545Y007525D01*
X010599Y007455D01*
X010650Y007383D01*
X010697Y007308D01*
X010741Y007231D01*
X010781Y007152D01*
X010817Y007071D01*
X010849Y006988D01*
X010876Y006904D01*
X010900Y006819D01*
X010919Y006733D01*
X010934Y006646D01*
X010945Y006558D01*
X010952Y006469D01*
X010954Y006381D01*
X010952Y006293D01*
X010945Y006204D01*
X010934Y006116D01*
X010919Y006029D01*
X010900Y005943D01*
X010876Y005858D01*
X010849Y005774D01*
X010817Y005691D01*
X010781Y005610D01*
X010741Y005531D01*
X010697Y005454D01*
X010650Y005379D01*
X010599Y005307D01*
X010545Y005237D01*
X010487Y005170D01*
X010426Y005106D01*
X010362Y005045D01*
X010295Y004987D01*
X010225Y004933D01*
X010153Y004882D01*
X010078Y004835D01*
X010001Y004791D01*
X009922Y004751D01*
X009841Y004715D01*
X009758Y004683D01*
X009674Y004656D01*
X009589Y004632D01*
X009503Y004613D01*
X009416Y004598D01*
X009328Y004587D01*
X009239Y004580D01*
X009151Y004578D01*
X009063Y004580D01*
X008974Y004587D01*
X008886Y004598D01*
X008799Y004613D01*
X008713Y004632D01*
X008628Y004656D01*
X008544Y004683D01*
X008461Y004715D01*
X008380Y004751D01*
X008301Y004791D01*
X008224Y004835D01*
X008149Y004882D01*
X008077Y004933D01*
X008007Y004987D01*
X007940Y005045D01*
X007876Y005106D01*
X007815Y005170D01*
X007757Y005237D01*
X007703Y005307D01*
X007652Y005379D01*
X007605Y005454D01*
X007561Y005531D01*
X007521Y005610D01*
X007485Y005691D01*
X007453Y005774D01*
X007426Y005858D01*
X007402Y005943D01*
X007383Y006029D01*
X007368Y006116D01*
X007357Y006204D01*
X007350Y006293D01*
X007348Y006381D01*
X008151Y009381D02*
X011151Y009381D01*
X011151Y012631D01*
X008151Y012631D01*
X008151Y009381D01*
X006151Y013631D02*
X023151Y013631D01*
X023151Y015131D01*
X014151Y015131D01*
X013901Y015131D01*
X013901Y015631D01*
X013401Y015631D01*
X013401Y016881D01*
X011901Y016881D01*
X011901Y015631D01*
X011401Y015631D01*
X011401Y015131D01*
X011151Y015131D01*
X010901Y015381D01*
X010901Y015631D01*
X010151Y015631D01*
X010151Y015381D01*
X009901Y015131D01*
X008401Y015131D01*
X008151Y015381D01*
X008151Y015881D01*
X007151Y015881D01*
X007151Y015381D01*
X006901Y015131D01*
X006151Y015131D01*
X006151Y013631D01*
X010151Y015631D02*
X010651Y015631D01*
X010401Y015631D01*
X011651Y015631D02*
X011901Y015631D01*
X012151Y016881D02*
X013401Y016881D01*
X012651Y016881D01*
X013651Y015631D02*
X013901Y015631D01*
X014401Y012631D02*
X014470Y012629D01*
X014539Y012623D01*
X014608Y012614D01*
X014676Y012600D01*
X014744Y012583D01*
X014810Y012562D01*
X014875Y012538D01*
X014938Y012510D01*
X015000Y012478D01*
X015060Y012443D01*
X015118Y012405D01*
X015173Y012364D01*
X015227Y012319D01*
X015278Y012272D01*
X015326Y012222D01*
X015371Y012170D01*
X015413Y012114D01*
X015452Y012057D01*
X015488Y011998D01*
X015521Y011937D01*
X015550Y011874D01*
X015575Y011809D01*
X015597Y011743D01*
X015616Y011676D01*
X015630Y011608D01*
X015641Y011540D01*
X015648Y011471D01*
X015651Y011402D01*
X015650Y011332D01*
X015645Y011263D01*
X015637Y011194D01*
X015625Y011126D01*
X015609Y011058D01*
X015589Y010992D01*
X015565Y010926D01*
X015538Y010863D01*
X015508Y010800D01*
X015474Y010740D01*
X015437Y010681D01*
X015396Y010625D01*
X015353Y010571D01*
X015306Y010519D01*
X015257Y010470D01*
X015205Y010424D01*
X015151Y010381D01*
X013651Y010381D02*
X013597Y010424D01*
X013545Y010470D01*
X013496Y010519D01*
X013449Y010571D01*
X013406Y010625D01*
X013365Y010681D01*
X013328Y010740D01*
X013294Y010800D01*
X013264Y010863D01*
X013237Y010926D01*
X013213Y010992D01*
X013193Y011058D01*
X013177Y011126D01*
X013165Y011194D01*
X013157Y011263D01*
X013152Y011332D01*
X013151Y011402D01*
X013154Y011471D01*
X013161Y011540D01*
X013172Y011608D01*
X013186Y011676D01*
X013205Y011743D01*
X013227Y011809D01*
X013252Y011874D01*
X013281Y011937D01*
X013314Y011998D01*
X013350Y012057D01*
X013389Y012114D01*
X013431Y012170D01*
X013476Y012222D01*
X013524Y012272D01*
X013575Y012319D01*
X013629Y012364D01*
X013684Y012405D01*
X013742Y012443D01*
X013802Y012478D01*
X013864Y012510D01*
X013927Y012538D01*
X013992Y012562D01*
X014058Y012583D01*
X014126Y012600D01*
X014194Y012614D01*
X014263Y012623D01*
X014332Y012629D01*
X014401Y012631D01*
D17*
X013651Y010381D02*
X015151Y010381D01*
X013401Y005881D02*
X011901Y005881D01*
D18*
X017401Y011251D02*
X017651Y011251D01*
X017901Y011251D01*
X017901Y011501D02*
X017651Y011501D01*
X017401Y011501D01*
X019401Y011501D02*
X019651Y011501D01*
X019901Y011501D01*
X019901Y011251D02*
X019651Y011251D01*
X019401Y011251D01*
X003531Y008881D02*
X003531Y008631D01*
X003531Y008381D01*
X003281Y008381D02*
X003281Y008631D01*
X003281Y008881D01*
D19*
X011576Y004381D03*
X013726Y004381D03*
D20*
X007151Y009806D03*
X007151Y011956D03*
X021151Y011956D03*
X022651Y011956D03*
X022651Y009806D03*
X021151Y009806D03*
D21*
X021197Y016296D02*
X021292Y016296D01*
X021340Y016343D01*
X021340Y016438D01*
X021245Y016438D01*
X021340Y016533D02*
X021292Y016581D01*
X021197Y016581D01*
X021149Y016533D01*
X021149Y016343D01*
X021197Y016296D01*
X021051Y016296D02*
X020956Y016296D01*
X021004Y016296D02*
X021004Y016581D01*
X021051Y016581D02*
X020956Y016581D01*
X020856Y016533D02*
X020856Y016343D01*
X020809Y016296D01*
X020666Y016296D01*
X020666Y016581D01*
X020809Y016581D01*
X020856Y016533D01*
X021439Y016581D02*
X021535Y016581D01*
X021487Y016581D02*
X021487Y016296D01*
X021439Y016296D02*
X021535Y016296D01*
X021728Y016296D02*
X021728Y016581D01*
X021633Y016581D02*
X021823Y016581D01*
X021923Y016486D02*
X022018Y016581D01*
X022113Y016486D01*
X022113Y016296D01*
X022213Y016296D02*
X022403Y016296D01*
X022541Y016343D02*
X022589Y016296D01*
X022684Y016296D01*
X022731Y016343D01*
X022731Y016438D01*
X022636Y016438D01*
X022541Y016533D02*
X022541Y016343D01*
X022541Y016533D02*
X022589Y016581D01*
X022684Y016581D01*
X022731Y016533D01*
X022831Y016581D02*
X023021Y016296D01*
X023021Y016581D01*
X023121Y016581D02*
X023264Y016581D01*
X023311Y016533D01*
X023311Y016343D01*
X023264Y016296D01*
X023121Y016296D01*
X023121Y016581D01*
X022831Y016581D02*
X022831Y016296D01*
X022213Y016296D02*
X022213Y016581D01*
X022113Y016438D02*
X021923Y016438D01*
X021923Y016486D02*
X021923Y016296D01*
X019896Y016391D02*
X019801Y016296D01*
X019706Y016391D01*
X019706Y016581D01*
X019606Y016581D02*
X019416Y016581D01*
X019416Y016438D01*
X019511Y016486D01*
X019559Y016486D01*
X019606Y016438D01*
X019606Y016343D01*
X019559Y016296D01*
X019464Y016296D01*
X019416Y016343D01*
X019896Y016391D02*
X019896Y016581D01*
X012795Y012658D02*
X012795Y012468D01*
X012747Y012421D01*
X012652Y012421D01*
X012604Y012468D01*
X012604Y012658D01*
X012652Y012706D01*
X012747Y012706D01*
X012795Y012658D01*
X012506Y012706D02*
X012411Y012706D01*
X012459Y012706D02*
X012459Y012421D01*
X012506Y012421D02*
X012411Y012421D01*
X012311Y012468D02*
X012311Y012658D01*
X012264Y012706D01*
X012121Y012706D01*
X012121Y012421D01*
X012264Y012421D01*
X012311Y012468D01*
X012021Y012468D02*
X012021Y012706D01*
X011831Y012706D02*
X011831Y012468D01*
X011879Y012421D01*
X011974Y012421D01*
X012021Y012468D01*
X011731Y012421D02*
X011731Y012611D01*
X011636Y012706D01*
X011541Y012611D01*
X011541Y012421D01*
X011541Y012563D02*
X011731Y012563D01*
M02*
