G75*
G70*
%OFA0B0*%
%FSLAX24Y24*%
%IPPOS*%
%LPD*%
%AMOC8*
5,1,8,0,0,1.08239X$1,22.5*
%
%ADD10C,0.0520*%
%ADD11C,0.0554*%
%ADD12C,0.1300*%
%ADD13C,0.1181*%
%ADD14C,0.0560*%
%ADD15C,0.0594*%
%ADD16C,0.0768*%
%ADD17C,0.0300*%
%ADD18C,0.0100*%
D10*
X019149Y010381D02*
X019669Y010381D01*
X019669Y011381D02*
X019149Y011381D01*
X019149Y012381D02*
X019669Y012381D01*
X019669Y013381D02*
X019149Y013381D01*
X022149Y013381D02*
X022669Y013381D01*
X022669Y012381D02*
X022149Y012381D01*
X022149Y011381D02*
X022669Y011381D01*
X022669Y010381D02*
X022149Y010381D01*
D11*
X021909Y008908D02*
X021909Y008354D01*
X019909Y008354D02*
X019909Y008908D01*
X017159Y009104D02*
X017159Y009658D01*
X015659Y010604D02*
X015659Y011158D01*
X014659Y011604D02*
X014659Y012158D01*
X013659Y011158D02*
X013659Y010604D01*
X014882Y007393D02*
X015436Y007393D01*
X015436Y005381D02*
X014882Y005381D01*
X010436Y004381D02*
X009882Y004381D01*
X008159Y004104D02*
X008159Y004658D01*
X007159Y004658D02*
X007159Y004104D01*
X006159Y004104D02*
X006159Y004658D01*
X005936Y006368D02*
X005382Y006368D01*
X005382Y007381D02*
X005936Y007381D01*
X003659Y007604D02*
X003659Y008158D01*
X001936Y007328D02*
X001382Y007328D01*
X001382Y006131D02*
X001936Y006131D01*
X001936Y004954D02*
X001382Y004954D01*
X003659Y005158D02*
X003659Y004604D01*
X008382Y006368D02*
X008936Y006368D01*
X008936Y007381D02*
X008382Y007381D01*
X006936Y010381D02*
X006382Y010381D01*
X004936Y010381D02*
X004382Y010381D01*
X003159Y012104D02*
X003159Y012658D01*
X004382Y012381D02*
X004936Y012381D01*
X006382Y012381D02*
X006936Y012381D01*
X004659Y014104D02*
X004659Y014658D01*
X003659Y014658D02*
X003659Y014104D01*
X002659Y014104D02*
X002659Y014658D01*
X001659Y014658D02*
X001659Y014104D01*
X001659Y012658D02*
X001659Y012104D01*
X014659Y014104D02*
X014659Y014658D01*
X015659Y014658D02*
X015659Y014104D01*
X016659Y014104D02*
X016659Y014658D01*
X017659Y014658D02*
X017659Y014104D01*
D12*
X019009Y006631D02*
X020309Y006631D01*
X020309Y002631D02*
X019009Y002631D01*
D13*
X019068Y004631D02*
X020249Y004631D01*
D14*
X011939Y006381D02*
X011379Y006381D01*
X011379Y007381D02*
X011939Y007381D01*
X010189Y010881D02*
X009629Y010881D01*
X009629Y011881D02*
X010189Y011881D01*
D15*
X017159Y012084D02*
X017159Y012678D01*
X013456Y004381D02*
X012862Y004381D01*
X003159Y009084D02*
X003159Y009678D01*
X001659Y009678D02*
X001659Y009084D01*
D16*
X004159Y002765D02*
X004159Y001997D01*
X008659Y001997D02*
X008659Y002765D01*
X012159Y002765D02*
X012159Y001997D01*
X016659Y001997D02*
X016659Y002765D01*
X017659Y017497D02*
X017659Y018265D01*
X013159Y018265D02*
X013159Y017497D01*
D17*
X013159Y017881D02*
X015159Y015881D01*
X001659Y015881D01*
X001659Y014381D01*
X004659Y014381D02*
X004659Y012381D01*
X006659Y010381D02*
X009159Y007881D01*
X008659Y007381D01*
X008659Y007381D01*
X007159Y007381D01*
X007159Y004381D01*
X009659Y007381D02*
X010659Y006381D01*
X011659Y006381D01*
X012659Y006381D01*
X016659Y002381D01*
X019659Y004631D02*
X019659Y004881D01*
X019159Y005381D01*
X015159Y005381D01*
X015159Y005381D01*
X009659Y007381D02*
X009659Y010881D01*
X009909Y010881D01*
X010159Y010881D01*
X012159Y012881D01*
X014659Y012881D01*
X015659Y013881D01*
X015659Y014381D01*
X014659Y014381D02*
X014659Y014881D01*
X015159Y015381D01*
X019159Y015381D01*
X022159Y012381D01*
X022409Y012381D01*
X019409Y013381D02*
X019159Y013381D01*
X017659Y011881D01*
X018159Y011381D01*
X019409Y011381D01*
X017659Y011881D02*
X017159Y012381D01*
X009659Y007381D02*
X009159Y007881D01*
X007159Y007381D02*
X005659Y007381D01*
X005659Y007381D01*
D18*
X003650Y001831D02*
X002352Y001831D01*
X002404Y002026D01*
X002404Y002310D01*
X002330Y002585D01*
X002188Y002831D01*
X001987Y003032D01*
X001741Y003174D01*
X001466Y003248D01*
X001182Y003248D01*
X000987Y003196D01*
X000987Y004791D01*
X001019Y004712D01*
X001140Y004591D01*
X001297Y004526D01*
X002021Y004526D01*
X002178Y004591D01*
X002298Y004712D01*
X002363Y004869D01*
X002363Y005039D01*
X002298Y005196D01*
X002178Y005316D01*
X002021Y005381D01*
X001297Y005381D01*
X001140Y005316D01*
X001019Y005196D01*
X000987Y005116D01*
X000987Y005968D01*
X001019Y005889D01*
X001140Y005769D01*
X001297Y005704D01*
X002021Y005704D01*
X002178Y005769D01*
X002298Y005889D01*
X002363Y006046D01*
X002363Y006216D01*
X002298Y006373D01*
X002178Y006493D01*
X002021Y006558D01*
X001297Y006558D01*
X001140Y006493D01*
X001019Y006373D01*
X000987Y006293D01*
X000987Y007165D01*
X001019Y007086D01*
X001140Y006966D01*
X001297Y006900D01*
X002021Y006900D01*
X002178Y006966D01*
X002298Y007086D01*
X002363Y007243D01*
X002363Y007413D01*
X002298Y007570D01*
X002178Y007690D01*
X002021Y007755D01*
X001297Y007755D01*
X001140Y007690D01*
X001019Y007570D01*
X000987Y007490D01*
X000987Y017282D01*
X001182Y017230D01*
X001466Y017230D01*
X001741Y017304D01*
X001987Y017446D01*
X002188Y017647D01*
X002330Y017893D01*
X002404Y018168D01*
X002404Y018452D01*
X002352Y018647D01*
X012159Y018647D01*
X012159Y016131D01*
X018659Y016131D01*
X018659Y018647D01*
X022344Y018647D01*
X022291Y018452D01*
X022291Y018168D01*
X022365Y017893D01*
X022507Y017647D01*
X022708Y017446D01*
X022955Y017304D01*
X023229Y017230D01*
X023514Y017230D01*
X023709Y017282D01*
X023709Y003196D01*
X023514Y003248D01*
X023229Y003248D01*
X022955Y003174D01*
X022708Y003032D01*
X022507Y002831D01*
X022365Y002585D01*
X022291Y002310D01*
X022291Y002026D01*
X022344Y001831D01*
X015607Y001831D01*
X015757Y001981D01*
X015865Y002240D01*
X015865Y002521D01*
X015757Y002781D01*
X015559Y002979D01*
X015299Y003087D01*
X015018Y003087D01*
X014759Y002979D01*
X014560Y002781D01*
X014453Y002521D01*
X014453Y002240D01*
X014560Y001981D01*
X014711Y001831D01*
X014107Y001831D01*
X014257Y001981D01*
X014365Y002240D01*
X014365Y002521D01*
X014257Y002781D01*
X014059Y002979D01*
X013799Y003087D01*
X013518Y003087D01*
X013259Y002979D01*
X013060Y002781D01*
X012953Y002521D01*
X012953Y002240D01*
X013060Y001981D01*
X013211Y001831D01*
X012668Y001831D01*
X012693Y001891D01*
X012693Y002871D01*
X012611Y003067D01*
X012461Y003217D01*
X012265Y003298D01*
X012053Y003298D01*
X011856Y003217D01*
X011706Y003067D01*
X011625Y002871D01*
X011625Y001891D01*
X011650Y001831D01*
X007607Y001831D01*
X007757Y001981D01*
X007865Y002240D01*
X007865Y002521D01*
X007757Y002781D01*
X007559Y002979D01*
X007299Y003087D01*
X007018Y003087D01*
X006759Y002979D01*
X006560Y002781D01*
X006453Y002521D01*
X006453Y002240D01*
X006560Y001981D01*
X006711Y001831D01*
X006107Y001831D01*
X006257Y001981D01*
X006365Y002240D01*
X006365Y002521D01*
X006257Y002781D01*
X006059Y002979D01*
X005799Y003087D01*
X005518Y003087D01*
X005259Y002979D01*
X005060Y002781D01*
X004953Y002521D01*
X004953Y002240D01*
X005060Y001981D01*
X005211Y001831D01*
X004668Y001831D01*
X004693Y001891D01*
X004693Y002871D01*
X004611Y003067D01*
X004461Y003217D01*
X004265Y003298D01*
X004053Y003298D01*
X003856Y003217D01*
X003706Y003067D01*
X003625Y002871D01*
X003625Y001891D01*
X003650Y001831D01*
X003632Y001874D02*
X002363Y001874D01*
X002390Y001972D02*
X003625Y001972D01*
X003625Y002071D02*
X002404Y002071D01*
X002404Y002169D02*
X003625Y002169D01*
X003625Y002268D02*
X002404Y002268D01*
X002389Y002366D02*
X003625Y002366D01*
X003625Y002465D02*
X002363Y002465D01*
X002336Y002563D02*
X003625Y002563D01*
X003625Y002662D02*
X002286Y002662D01*
X002229Y002760D02*
X003625Y002760D01*
X003625Y002859D02*
X002161Y002859D01*
X002062Y002957D02*
X003661Y002957D01*
X003702Y003056D02*
X001946Y003056D01*
X001775Y003155D02*
X003794Y003155D01*
X003943Y003253D02*
X000987Y003253D01*
X000987Y003352D02*
X023709Y003352D01*
X023709Y003450D02*
X000987Y003450D01*
X000987Y003549D02*
X023709Y003549D01*
X023709Y003647D02*
X000987Y003647D01*
X000987Y003746D02*
X005912Y003746D01*
X005917Y003741D02*
X005797Y003862D01*
X005732Y004019D01*
X005732Y004743D01*
X005797Y004900D01*
X005917Y005020D01*
X006074Y005085D01*
X006244Y005085D01*
X006401Y005020D01*
X006521Y004900D01*
X006586Y004743D01*
X006586Y004019D01*
X006521Y003862D01*
X006401Y003741D01*
X006244Y003676D01*
X006074Y003676D01*
X005917Y003741D01*
X005814Y003844D02*
X000987Y003844D01*
X000987Y003943D02*
X005763Y003943D01*
X005732Y004041D02*
X000987Y004041D01*
X000987Y004140D02*
X005732Y004140D01*
X005732Y004239D02*
X003894Y004239D01*
X003901Y004241D02*
X003744Y004176D01*
X003574Y004176D01*
X003417Y004241D01*
X003297Y004362D01*
X003232Y004519D01*
X003232Y005243D01*
X003297Y005400D01*
X003417Y005520D01*
X003574Y005585D01*
X003744Y005585D01*
X003901Y005520D01*
X004021Y005400D01*
X004086Y005243D01*
X004086Y004519D01*
X004021Y004362D01*
X003901Y004241D01*
X003996Y004337D02*
X005732Y004337D01*
X005732Y004436D02*
X004052Y004436D01*
X004086Y004534D02*
X005732Y004534D01*
X005732Y004633D02*
X004086Y004633D01*
X004086Y004731D02*
X005732Y004731D01*
X005768Y004830D02*
X004086Y004830D01*
X004086Y004928D02*
X005825Y004928D01*
X005933Y005027D02*
X004086Y005027D01*
X004086Y005125D02*
X014533Y005125D01*
X014519Y005139D02*
X014454Y005296D01*
X014454Y005466D01*
X014519Y005623D01*
X014640Y005743D01*
X014797Y005808D01*
X015521Y005808D01*
X015678Y005743D01*
X015740Y005681D01*
X019099Y005681D01*
X019218Y005681D01*
X019329Y005635D01*
X019592Y005371D01*
X020397Y005371D01*
X020669Y005259D01*
X020877Y005050D01*
X020990Y004778D01*
X020990Y004483D01*
X020877Y004211D01*
X020669Y004003D01*
X020397Y003890D01*
X018921Y003890D01*
X018649Y004003D01*
X018440Y004211D01*
X018328Y004483D01*
X018328Y004778D01*
X018440Y005050D01*
X018471Y005081D01*
X015740Y005081D01*
X015678Y005019D01*
X015521Y004954D01*
X014797Y004954D01*
X014640Y005019D01*
X014519Y005139D01*
X014484Y005224D02*
X004086Y005224D01*
X004053Y005323D02*
X014454Y005323D01*
X014454Y005421D02*
X004000Y005421D01*
X003901Y005520D02*
X014477Y005520D01*
X014518Y005618D02*
X000987Y005618D01*
X000987Y005520D02*
X003416Y005520D01*
X003318Y005421D02*
X000987Y005421D01*
X000987Y005323D02*
X001156Y005323D01*
X001048Y005224D02*
X000987Y005224D01*
X000990Y005125D02*
X000987Y005125D01*
X001011Y004731D02*
X000987Y004731D01*
X000987Y004633D02*
X001098Y004633D01*
X000987Y004534D02*
X001278Y004534D01*
X000987Y004436D02*
X003266Y004436D01*
X003232Y004534D02*
X002040Y004534D01*
X002219Y004633D02*
X003232Y004633D01*
X003232Y004731D02*
X002306Y004731D01*
X002347Y004830D02*
X003232Y004830D01*
X003232Y004928D02*
X002363Y004928D01*
X002363Y005027D02*
X003232Y005027D01*
X003232Y005125D02*
X002327Y005125D01*
X002270Y005224D02*
X003232Y005224D01*
X003265Y005323D02*
X002161Y005323D01*
X002052Y005717D02*
X014614Y005717D01*
X014631Y005027D02*
X008384Y005027D01*
X008401Y005020D02*
X008521Y004900D01*
X008586Y004743D01*
X008586Y004019D01*
X008521Y003862D01*
X008401Y003741D01*
X008244Y003676D01*
X008074Y003676D01*
X007917Y003741D01*
X007797Y003862D01*
X007732Y004019D01*
X007732Y004743D01*
X007797Y004900D01*
X007917Y005020D01*
X008074Y005085D01*
X008244Y005085D01*
X008401Y005020D01*
X008492Y004928D02*
X018390Y004928D01*
X018349Y004830D02*
X008550Y004830D01*
X008586Y004731D02*
X009628Y004731D01*
X009640Y004743D02*
X009797Y004808D01*
X010521Y004808D01*
X010678Y004743D01*
X010798Y004623D01*
X010863Y004466D01*
X010863Y004296D01*
X010798Y004139D01*
X010678Y004019D01*
X010521Y003954D01*
X009797Y003954D01*
X009640Y004019D01*
X009519Y004139D01*
X009454Y004296D01*
X009454Y004466D01*
X009519Y004623D01*
X009640Y004743D01*
X009529Y004633D02*
X008586Y004633D01*
X008586Y004534D02*
X009483Y004534D01*
X009454Y004436D02*
X008586Y004436D01*
X008586Y004337D02*
X009454Y004337D01*
X009478Y004239D02*
X008586Y004239D01*
X008586Y004140D02*
X009519Y004140D01*
X009617Y004041D02*
X008586Y004041D01*
X008555Y003943D02*
X012751Y003943D01*
X012773Y003934D02*
X012609Y004002D01*
X012483Y004128D01*
X012415Y004292D01*
X012415Y004470D01*
X012483Y004634D01*
X012609Y004760D01*
X012773Y004828D01*
X013544Y004828D01*
X013709Y004760D01*
X013834Y004634D01*
X013902Y004470D01*
X013902Y004292D01*
X013834Y004128D01*
X013709Y004002D01*
X013544Y003934D01*
X012773Y003934D01*
X012569Y004041D02*
X010701Y004041D01*
X010799Y004140D02*
X012478Y004140D01*
X012437Y004239D02*
X010839Y004239D01*
X010863Y004337D02*
X012415Y004337D01*
X012415Y004436D02*
X010863Y004436D01*
X010835Y004534D02*
X012442Y004534D01*
X012483Y004633D02*
X010788Y004633D01*
X010689Y004731D02*
X012580Y004731D01*
X013566Y003943D02*
X018794Y003943D01*
X018610Y004041D02*
X013748Y004041D01*
X013840Y004140D02*
X018512Y004140D01*
X018429Y004239D02*
X013880Y004239D01*
X013902Y004337D02*
X018388Y004337D01*
X018348Y004436D02*
X013902Y004436D01*
X013876Y004534D02*
X018328Y004534D01*
X018328Y004633D02*
X013835Y004633D01*
X013737Y004731D02*
X018328Y004731D01*
X018431Y005027D02*
X015686Y005027D01*
X015704Y005717D02*
X023709Y005717D01*
X023709Y005815D02*
X002224Y005815D01*
X002308Y005914D02*
X018649Y005914D01*
X018556Y005953D02*
X018331Y006178D01*
X018209Y006472D01*
X018209Y006790D01*
X018331Y007084D01*
X018556Y007309D01*
X018850Y007431D01*
X020468Y007431D01*
X020762Y007309D01*
X020987Y007084D01*
X021109Y006790D01*
X021109Y006472D01*
X020987Y006178D01*
X020762Y005953D01*
X020468Y005831D01*
X018850Y005831D01*
X018556Y005953D01*
X018496Y006012D02*
X009184Y006012D01*
X009178Y006006D02*
X009021Y005941D01*
X008297Y005941D01*
X008140Y006006D01*
X008019Y006126D01*
X007954Y006283D01*
X007954Y006453D01*
X008019Y006610D01*
X008140Y006730D01*
X008297Y006795D01*
X009021Y006795D01*
X009178Y006730D01*
X009298Y006610D01*
X009363Y006453D01*
X009363Y006283D01*
X009298Y006126D01*
X009178Y006006D01*
X009283Y006111D02*
X018397Y006111D01*
X018317Y006209D02*
X009332Y006209D01*
X009363Y006308D02*
X018277Y006308D01*
X018236Y006406D02*
X009363Y006406D01*
X009342Y006505D02*
X018209Y006505D01*
X018209Y006604D02*
X009301Y006604D01*
X009206Y006702D02*
X018209Y006702D01*
X018213Y006801D02*
X000987Y006801D01*
X000987Y006899D02*
X018254Y006899D01*
X018295Y006998D02*
X015597Y006998D01*
X015521Y006966D02*
X015678Y007031D01*
X015798Y007151D01*
X015863Y007308D01*
X015863Y007478D01*
X015798Y007635D01*
X015678Y007755D01*
X015521Y007820D01*
X014797Y007820D01*
X014640Y007755D01*
X014519Y007635D01*
X014454Y007478D01*
X014454Y007308D01*
X014519Y007151D01*
X014640Y007031D01*
X014797Y006966D01*
X015521Y006966D01*
X015743Y007096D02*
X018343Y007096D01*
X018441Y007195D02*
X015816Y007195D01*
X015857Y007293D02*
X018540Y007293D01*
X018756Y007392D02*
X015863Y007392D01*
X015858Y007490D02*
X023709Y007490D01*
X023709Y007392D02*
X020562Y007392D01*
X020778Y007293D02*
X023709Y007293D01*
X023709Y007195D02*
X020876Y007195D01*
X020975Y007096D02*
X023709Y007096D01*
X023709Y006998D02*
X021023Y006998D01*
X021063Y006899D02*
X023709Y006899D01*
X023709Y006801D02*
X021104Y006801D01*
X021109Y006702D02*
X023709Y006702D01*
X023709Y006604D02*
X021109Y006604D01*
X021109Y006505D02*
X023709Y006505D01*
X023709Y006406D02*
X021082Y006406D01*
X021041Y006308D02*
X023709Y006308D01*
X023709Y006209D02*
X021000Y006209D01*
X020920Y006111D02*
X023709Y006111D01*
X023709Y006012D02*
X020822Y006012D01*
X020668Y005914D02*
X023709Y005914D01*
X023709Y005618D02*
X019346Y005618D01*
X019444Y005520D02*
X023709Y005520D01*
X023709Y005421D02*
X019543Y005421D01*
X020514Y005323D02*
X023709Y005323D01*
X023709Y005224D02*
X020703Y005224D01*
X020802Y005125D02*
X023709Y005125D01*
X023709Y005027D02*
X020887Y005027D01*
X020928Y004928D02*
X023709Y004928D01*
X023709Y004830D02*
X020968Y004830D01*
X020990Y004731D02*
X023709Y004731D01*
X023709Y004633D02*
X020990Y004633D01*
X020990Y004534D02*
X023709Y004534D01*
X023709Y004436D02*
X020970Y004436D01*
X020929Y004337D02*
X023709Y004337D01*
X023709Y004239D02*
X020888Y004239D01*
X020806Y004140D02*
X023709Y004140D01*
X023709Y004041D02*
X020707Y004041D01*
X020524Y003943D02*
X023709Y003943D01*
X023709Y003844D02*
X008504Y003844D01*
X008405Y003746D02*
X023709Y003746D01*
X023709Y003253D02*
X012374Y003253D01*
X012524Y003155D02*
X022920Y003155D01*
X022749Y003056D02*
X015373Y003056D01*
X015580Y002957D02*
X022633Y002957D01*
X022535Y002859D02*
X015679Y002859D01*
X015766Y002760D02*
X022466Y002760D01*
X022409Y002662D02*
X015806Y002662D01*
X015847Y002563D02*
X022359Y002563D01*
X022333Y002465D02*
X015865Y002465D01*
X015865Y002366D02*
X022306Y002366D01*
X022291Y002268D02*
X015865Y002268D01*
X015835Y002169D02*
X022291Y002169D01*
X022291Y002071D02*
X015794Y002071D01*
X015748Y001972D02*
X022306Y001972D01*
X022332Y001874D02*
X015650Y001874D01*
X014668Y001874D02*
X014150Y001874D01*
X014248Y001972D02*
X014569Y001972D01*
X014523Y002071D02*
X014294Y002071D01*
X014335Y002169D02*
X014482Y002169D01*
X014453Y002268D02*
X014365Y002268D01*
X014365Y002366D02*
X014453Y002366D01*
X014453Y002465D02*
X014365Y002465D01*
X014347Y002563D02*
X014470Y002563D01*
X014511Y002662D02*
X014306Y002662D01*
X014266Y002760D02*
X014552Y002760D01*
X014639Y002859D02*
X014179Y002859D01*
X014080Y002957D02*
X014737Y002957D01*
X014944Y003056D02*
X013873Y003056D01*
X013444Y003056D02*
X012616Y003056D01*
X012657Y002957D02*
X013237Y002957D01*
X013139Y002859D02*
X012693Y002859D01*
X012693Y002760D02*
X013052Y002760D01*
X013011Y002662D02*
X012693Y002662D01*
X012693Y002563D02*
X012970Y002563D01*
X012953Y002465D02*
X012693Y002465D01*
X012693Y002366D02*
X012953Y002366D01*
X012953Y002268D02*
X012693Y002268D01*
X012693Y002169D02*
X012982Y002169D01*
X013023Y002071D02*
X012693Y002071D01*
X012693Y001972D02*
X013069Y001972D01*
X013168Y001874D02*
X012685Y001874D01*
X011632Y001874D02*
X007650Y001874D01*
X007748Y001972D02*
X011625Y001972D01*
X011625Y002071D02*
X007794Y002071D01*
X007835Y002169D02*
X011625Y002169D01*
X011625Y002268D02*
X007865Y002268D01*
X007865Y002366D02*
X011625Y002366D01*
X011625Y002465D02*
X007865Y002465D01*
X007847Y002563D02*
X011625Y002563D01*
X011625Y002662D02*
X007806Y002662D01*
X007766Y002760D02*
X011625Y002760D01*
X011625Y002859D02*
X007679Y002859D01*
X007580Y002957D02*
X011661Y002957D01*
X011702Y003056D02*
X007373Y003056D01*
X006944Y003056D02*
X005873Y003056D01*
X006080Y002957D02*
X006737Y002957D01*
X006639Y002859D02*
X006179Y002859D01*
X006266Y002760D02*
X006552Y002760D01*
X006511Y002662D02*
X006306Y002662D01*
X006347Y002563D02*
X006470Y002563D01*
X006453Y002465D02*
X006365Y002465D01*
X006365Y002366D02*
X006453Y002366D01*
X006453Y002268D02*
X006365Y002268D01*
X006335Y002169D02*
X006482Y002169D01*
X006523Y002071D02*
X006294Y002071D01*
X006248Y001972D02*
X006569Y001972D01*
X006668Y001874D02*
X006150Y001874D01*
X005168Y001874D02*
X004685Y001874D01*
X004693Y001972D02*
X005069Y001972D01*
X005023Y002071D02*
X004693Y002071D01*
X004693Y002169D02*
X004982Y002169D01*
X004953Y002268D02*
X004693Y002268D01*
X004693Y002366D02*
X004953Y002366D01*
X004953Y002465D02*
X004693Y002465D01*
X004693Y002563D02*
X004970Y002563D01*
X005011Y002662D02*
X004693Y002662D01*
X004693Y002760D02*
X005052Y002760D01*
X005139Y002859D02*
X004693Y002859D01*
X004657Y002957D02*
X005237Y002957D01*
X005444Y003056D02*
X004616Y003056D01*
X004524Y003155D02*
X011794Y003155D01*
X011943Y003253D02*
X004374Y003253D01*
X003424Y004239D02*
X000987Y004239D01*
X000987Y004337D02*
X003321Y004337D01*
X002349Y006012D02*
X005133Y006012D01*
X005140Y006006D02*
X005019Y006126D01*
X004954Y006283D01*
X004954Y006453D01*
X005019Y006610D01*
X005140Y006730D01*
X005297Y006795D01*
X006021Y006795D01*
X006178Y006730D01*
X006298Y006610D01*
X006363Y006453D01*
X006363Y006283D01*
X006298Y006126D01*
X006178Y006006D01*
X006021Y005941D01*
X005297Y005941D01*
X005140Y006006D01*
X005035Y006111D02*
X002363Y006111D01*
X002363Y006209D02*
X004985Y006209D01*
X004954Y006308D02*
X002325Y006308D01*
X002264Y006406D02*
X004954Y006406D01*
X004976Y006505D02*
X002149Y006505D01*
X002210Y006998D02*
X011180Y006998D01*
X011135Y007016D02*
X011014Y007137D01*
X010949Y007295D01*
X010949Y007466D01*
X011014Y007624D01*
X011135Y007745D01*
X011293Y007811D01*
X012024Y007811D01*
X012182Y007745D01*
X012303Y007624D01*
X012369Y007466D01*
X012369Y007295D01*
X012303Y007137D01*
X012182Y007016D01*
X012024Y006951D01*
X011293Y006951D01*
X011135Y007016D01*
X011055Y007096D02*
X002302Y007096D01*
X002343Y007195D02*
X003529Y007195D01*
X003574Y007176D02*
X003417Y007241D01*
X003297Y007362D01*
X003232Y007519D01*
X003232Y008243D01*
X003297Y008400D01*
X003417Y008520D01*
X003574Y008585D01*
X003744Y008585D01*
X003901Y008520D01*
X004021Y008400D01*
X004086Y008243D01*
X004086Y007519D01*
X004021Y007362D01*
X003901Y007241D01*
X003744Y007176D01*
X003574Y007176D01*
X003788Y007195D02*
X010990Y007195D01*
X010950Y007293D02*
X003953Y007293D01*
X004033Y007392D02*
X010949Y007392D01*
X010959Y007490D02*
X004074Y007490D01*
X004086Y007589D02*
X011000Y007589D01*
X011077Y007688D02*
X004086Y007688D01*
X004086Y007786D02*
X011234Y007786D01*
X012084Y007786D02*
X014714Y007786D01*
X014572Y007688D02*
X012240Y007688D01*
X012318Y007589D02*
X014500Y007589D01*
X014459Y007490D02*
X012359Y007490D01*
X012369Y007392D02*
X014454Y007392D01*
X014461Y007293D02*
X012368Y007293D01*
X012327Y007195D02*
X014501Y007195D01*
X014575Y007096D02*
X012262Y007096D01*
X012138Y006998D02*
X014720Y006998D01*
X015604Y007786D02*
X023709Y007786D01*
X023709Y007688D02*
X015746Y007688D01*
X015817Y007589D02*
X023709Y007589D01*
X023709Y007885D02*
X004086Y007885D01*
X004086Y007983D02*
X019687Y007983D01*
X019667Y007991D02*
X019547Y008112D01*
X019482Y008269D01*
X019482Y008993D01*
X019547Y009150D01*
X019667Y009270D01*
X019824Y009335D01*
X019994Y009335D01*
X020151Y009270D01*
X020271Y009150D01*
X020336Y008993D01*
X020336Y008269D01*
X020271Y008112D01*
X020151Y007991D01*
X019994Y007926D01*
X019824Y007926D01*
X019667Y007991D01*
X019577Y008082D02*
X004086Y008082D01*
X004086Y008180D02*
X019518Y008180D01*
X019482Y008279D02*
X004071Y008279D01*
X004030Y008377D02*
X019482Y008377D01*
X019482Y008476D02*
X003945Y008476D01*
X003769Y008574D02*
X019482Y008574D01*
X019482Y008673D02*
X003334Y008673D01*
X003412Y008705D02*
X003248Y008637D01*
X003070Y008637D01*
X002906Y008705D01*
X002780Y008831D01*
X002712Y008995D01*
X002712Y009766D01*
X002780Y009931D01*
X002906Y010056D01*
X003070Y010124D01*
X003248Y010124D01*
X003412Y010056D01*
X003538Y009931D01*
X003606Y009766D01*
X003606Y008995D01*
X003538Y008831D01*
X003412Y008705D01*
X003478Y008772D02*
X016887Y008772D01*
X016917Y008741D02*
X016797Y008862D01*
X016732Y009019D01*
X016732Y009743D01*
X016797Y009900D01*
X016917Y010020D01*
X017074Y010085D01*
X017244Y010085D01*
X017401Y010020D01*
X017521Y009900D01*
X017586Y009743D01*
X017586Y009019D01*
X017521Y008862D01*
X017401Y008741D01*
X017244Y008676D01*
X017074Y008676D01*
X016917Y008741D01*
X016793Y008870D02*
X003554Y008870D01*
X003595Y008969D02*
X016752Y008969D01*
X016732Y009067D02*
X003606Y009067D01*
X003606Y009166D02*
X016732Y009166D01*
X016732Y009264D02*
X003606Y009264D01*
X003606Y009363D02*
X016732Y009363D01*
X016732Y009461D02*
X003606Y009461D01*
X003606Y009560D02*
X016732Y009560D01*
X016732Y009658D02*
X003606Y009658D01*
X003606Y009757D02*
X016737Y009757D01*
X016778Y009856D02*
X003569Y009856D01*
X003514Y009954D02*
X016851Y009954D01*
X016995Y010053D02*
X003416Y010053D01*
X003008Y010447D02*
X015261Y010447D01*
X015232Y010519D02*
X015297Y010362D01*
X015417Y010241D01*
X015574Y010176D01*
X015744Y010176D01*
X015901Y010241D01*
X016021Y010362D01*
X016086Y010519D01*
X016086Y011171D01*
X016576Y010681D01*
X016742Y010681D01*
X018869Y010681D01*
X018801Y010613D01*
X018739Y010462D01*
X018739Y010299D01*
X018801Y010149D01*
X018917Y010033D01*
X019067Y009971D01*
X019750Y009971D01*
X019901Y010033D01*
X020016Y010149D01*
X020079Y010299D01*
X020079Y010462D01*
X020016Y010613D01*
X019949Y010681D01*
X020242Y010681D01*
X020359Y010798D01*
X020359Y010964D01*
X020359Y011964D01*
X020242Y012081D01*
X020062Y012260D01*
X020079Y012299D01*
X020079Y012462D01*
X020016Y012613D01*
X019901Y012728D01*
X019750Y012791D01*
X019067Y012791D01*
X018917Y012728D01*
X018801Y012613D01*
X018739Y012462D01*
X018739Y012299D01*
X018801Y012149D01*
X018917Y012033D01*
X019067Y011971D01*
X019750Y011971D01*
X019775Y011981D01*
X019959Y011798D01*
X019959Y011081D01*
X016742Y011081D01*
X015859Y011964D01*
X015742Y012081D01*
X015086Y012081D01*
X015086Y012243D01*
X015021Y012400D01*
X014901Y012520D01*
X014744Y012585D01*
X014574Y012585D01*
X014417Y012520D01*
X014297Y012400D01*
X014232Y012243D01*
X014232Y011519D01*
X014297Y011362D01*
X014417Y011241D01*
X014574Y011176D01*
X014744Y011176D01*
X014901Y011241D01*
X015021Y011362D01*
X015086Y011519D01*
X015086Y011681D01*
X015576Y011681D01*
X015672Y011585D01*
X015574Y011585D01*
X015417Y011520D01*
X015297Y011400D01*
X015232Y011243D01*
X015232Y010519D01*
X015232Y010545D02*
X003106Y010545D01*
X003205Y010644D02*
X015232Y010644D01*
X015232Y010742D02*
X003303Y010742D01*
X003402Y010841D02*
X015232Y010841D01*
X015232Y010939D02*
X003500Y010939D01*
X003599Y011038D02*
X015232Y011038D01*
X015232Y011137D02*
X003697Y011137D01*
X003796Y011235D02*
X014432Y011235D01*
X014325Y011334D02*
X003894Y011334D01*
X003993Y011432D02*
X014267Y011432D01*
X014232Y011531D02*
X010447Y011531D01*
X010432Y011516D02*
X010274Y011451D01*
X009543Y011451D01*
X009385Y011516D01*
X009264Y011637D01*
X009246Y011681D01*
X004242Y011681D01*
X002106Y009545D01*
X002106Y008995D01*
X002038Y008831D01*
X001912Y008705D01*
X001748Y008637D01*
X001570Y008637D01*
X001406Y008705D01*
X001280Y008831D01*
X001212Y008995D01*
X001212Y009766D01*
X001280Y009931D01*
X001406Y010056D01*
X001570Y010124D01*
X001748Y010124D01*
X001912Y010056D01*
X001982Y009987D01*
X003959Y011964D01*
X004076Y012081D01*
X004078Y012081D01*
X004019Y012139D01*
X003954Y012296D01*
X003954Y012466D01*
X004019Y012623D01*
X004140Y012743D01*
X004297Y012808D01*
X004359Y012808D01*
X004359Y013800D01*
X004297Y013862D01*
X004232Y014019D01*
X004232Y014743D01*
X004297Y014900D01*
X004417Y015020D01*
X004574Y015085D01*
X004744Y015085D01*
X004901Y015020D01*
X005021Y014900D01*
X005086Y014743D01*
X005086Y014019D01*
X005021Y013862D01*
X004959Y013800D01*
X004959Y012808D01*
X005021Y012808D01*
X005178Y012743D01*
X005298Y012623D01*
X005363Y012466D01*
X005363Y012296D01*
X005298Y012139D01*
X005240Y012081D01*
X006078Y012081D01*
X006019Y012139D01*
X005954Y012296D01*
X005954Y012466D01*
X006019Y012623D01*
X006140Y012743D01*
X006297Y012808D01*
X007021Y012808D01*
X007178Y012743D01*
X007298Y012623D01*
X007363Y012466D01*
X007363Y012296D01*
X007298Y012139D01*
X007240Y012081D01*
X009246Y012081D01*
X009264Y012124D01*
X009385Y012245D01*
X009543Y012311D01*
X010274Y012311D01*
X010432Y012245D01*
X010553Y012124D01*
X010619Y011966D01*
X010619Y011795D01*
X010553Y011637D01*
X010432Y011516D01*
X010545Y011629D02*
X014232Y011629D01*
X014232Y011728D02*
X010591Y011728D01*
X010619Y011826D02*
X014232Y011826D01*
X014232Y011925D02*
X010619Y011925D01*
X010595Y012023D02*
X014232Y012023D01*
X014232Y012122D02*
X010554Y012122D01*
X010457Y012221D02*
X014232Y012221D01*
X014263Y012319D02*
X007363Y012319D01*
X007363Y012418D02*
X014314Y012418D01*
X014413Y012516D02*
X007342Y012516D01*
X007301Y012615D02*
X018803Y012615D01*
X018761Y012516D02*
X014905Y012516D01*
X015003Y012418D02*
X018739Y012418D01*
X018739Y012319D02*
X015054Y012319D01*
X015086Y012221D02*
X018771Y012221D01*
X018828Y012122D02*
X015086Y012122D01*
X014659Y011881D02*
X015659Y011881D01*
X016659Y010881D01*
X020159Y010881D01*
X020159Y011881D01*
X019659Y012381D01*
X019409Y012381D01*
X018940Y012023D02*
X015799Y012023D01*
X015897Y011925D02*
X019832Y011925D01*
X019930Y011826D02*
X015996Y011826D01*
X016095Y011728D02*
X019959Y011728D01*
X019959Y011629D02*
X016193Y011629D01*
X016292Y011531D02*
X019959Y011531D01*
X019959Y011432D02*
X016390Y011432D01*
X016489Y011334D02*
X019959Y011334D01*
X019959Y011235D02*
X016587Y011235D01*
X016686Y011137D02*
X019959Y011137D01*
X020359Y011137D02*
X021813Y011137D01*
X021801Y011149D02*
X021739Y011299D01*
X021739Y011462D01*
X021801Y011613D01*
X021917Y011728D01*
X022067Y011791D01*
X022750Y011791D01*
X022901Y011728D01*
X023016Y011613D01*
X023079Y011462D01*
X023079Y011299D01*
X023016Y011149D01*
X022901Y011033D01*
X022750Y010971D01*
X022067Y010971D01*
X021917Y011033D01*
X021801Y011149D01*
X021765Y011235D02*
X020359Y011235D01*
X020359Y011334D02*
X021739Y011334D01*
X021739Y011432D02*
X020359Y011432D01*
X020359Y011531D02*
X021767Y011531D01*
X021817Y011629D02*
X020359Y011629D01*
X020359Y011728D02*
X021916Y011728D01*
X022067Y011971D02*
X021917Y012033D01*
X021801Y012149D01*
X021739Y012299D01*
X021739Y012376D01*
X019034Y015081D01*
X017754Y015081D01*
X017901Y015020D01*
X018021Y014900D01*
X018086Y014743D01*
X018086Y014019D01*
X018021Y013862D01*
X017901Y013741D01*
X017744Y013676D01*
X017574Y013676D01*
X017417Y013741D01*
X017297Y013862D01*
X017232Y014019D01*
X017232Y014743D01*
X017297Y014900D01*
X017417Y015020D01*
X017564Y015081D01*
X015283Y015081D01*
X015045Y014842D01*
X015086Y014743D01*
X015086Y014019D01*
X015021Y013862D01*
X014901Y013741D01*
X014744Y013676D01*
X014574Y013676D01*
X014417Y013741D01*
X014297Y013862D01*
X014232Y014019D01*
X014232Y014743D01*
X014297Y014900D01*
X014374Y014977D01*
X014404Y015051D01*
X014489Y015135D01*
X014989Y015635D01*
X015099Y015681D01*
X015218Y015681D01*
X019218Y015681D01*
X019329Y015635D01*
X019413Y015551D01*
X021791Y013172D01*
X021739Y013299D01*
X021739Y013462D01*
X021801Y013613D01*
X021917Y013728D01*
X022067Y013791D01*
X022750Y013791D01*
X022901Y013728D01*
X023016Y013613D01*
X023079Y013462D01*
X023079Y013299D01*
X023016Y013149D01*
X022901Y013033D01*
X022750Y012971D01*
X022067Y012971D01*
X021940Y013023D01*
X022173Y012791D01*
X022750Y012791D01*
X022901Y012728D01*
X023016Y012613D01*
X023079Y012462D01*
X023079Y012299D01*
X023016Y012149D01*
X022901Y012033D01*
X022750Y011971D01*
X022067Y011971D01*
X021940Y012023D02*
X020299Y012023D01*
X020359Y011925D02*
X023709Y011925D01*
X023709Y012023D02*
X022878Y012023D01*
X022990Y012122D02*
X023709Y012122D01*
X023709Y012221D02*
X023046Y012221D01*
X023079Y012319D02*
X023709Y012319D01*
X023709Y012418D02*
X023079Y012418D01*
X023056Y012516D02*
X023709Y012516D01*
X023709Y012615D02*
X023015Y012615D01*
X022916Y012713D02*
X023709Y012713D01*
X023709Y012812D02*
X022152Y012812D01*
X022053Y012910D02*
X023709Y012910D01*
X023709Y013009D02*
X022842Y013009D01*
X022975Y013107D02*
X023709Y013107D01*
X023709Y013206D02*
X023040Y013206D01*
X023079Y013305D02*
X023709Y013305D01*
X023709Y013403D02*
X023079Y013403D01*
X023062Y013502D02*
X023709Y013502D01*
X023709Y013600D02*
X023022Y013600D01*
X022931Y013699D02*
X023709Y013699D01*
X023709Y013797D02*
X021166Y013797D01*
X021068Y013896D02*
X023709Y013896D01*
X023709Y013994D02*
X020969Y013994D01*
X020871Y014093D02*
X023709Y014093D01*
X023709Y014191D02*
X020772Y014191D01*
X020674Y014290D02*
X023709Y014290D01*
X023709Y014389D02*
X020575Y014389D01*
X020477Y014487D02*
X023709Y014487D01*
X023709Y014586D02*
X020378Y014586D01*
X020280Y014684D02*
X023709Y014684D01*
X023709Y014783D02*
X020181Y014783D01*
X020083Y014881D02*
X023709Y014881D01*
X023709Y014980D02*
X019984Y014980D01*
X019885Y015078D02*
X023709Y015078D01*
X023709Y015177D02*
X019787Y015177D01*
X019688Y015275D02*
X023709Y015275D01*
X023709Y015374D02*
X019590Y015374D01*
X019491Y015472D02*
X023709Y015472D01*
X023709Y015571D02*
X019393Y015571D01*
X019245Y015670D02*
X023709Y015670D01*
X023709Y015768D02*
X000987Y015768D01*
X000987Y015670D02*
X015072Y015670D01*
X014925Y015571D02*
X000987Y015571D01*
X000987Y015472D02*
X014826Y015472D01*
X014728Y015374D02*
X000987Y015374D01*
X000987Y015275D02*
X014629Y015275D01*
X014531Y015177D02*
X000987Y015177D01*
X000987Y015078D02*
X002557Y015078D01*
X002574Y015085D02*
X002744Y015085D01*
X002901Y015020D01*
X003021Y014900D01*
X003086Y014743D01*
X003086Y014019D01*
X003021Y013862D01*
X002901Y013741D01*
X002744Y013676D01*
X002574Y013676D01*
X002417Y013741D01*
X002297Y013862D01*
X002232Y014019D01*
X002232Y014743D01*
X002297Y014900D01*
X002417Y015020D01*
X002574Y015085D01*
X002760Y015078D02*
X003557Y015078D01*
X003574Y015085D02*
X003744Y015085D01*
X003901Y015020D01*
X004021Y014900D01*
X004086Y014743D01*
X004086Y014019D01*
X004021Y013862D01*
X003901Y013741D01*
X003744Y013676D01*
X003574Y013676D01*
X003417Y013741D01*
X003297Y013862D01*
X003232Y014019D01*
X003232Y014743D01*
X003297Y014900D01*
X003417Y015020D01*
X003574Y015085D01*
X003760Y015078D02*
X004557Y015078D01*
X004760Y015078D02*
X014432Y015078D01*
X014375Y014980D02*
X004941Y014980D01*
X005029Y014881D02*
X014289Y014881D01*
X014248Y014783D02*
X005069Y014783D01*
X005086Y014684D02*
X014232Y014684D01*
X014232Y014586D02*
X005086Y014586D01*
X005086Y014487D02*
X014232Y014487D01*
X014232Y014389D02*
X005086Y014389D01*
X005086Y014290D02*
X014232Y014290D01*
X014232Y014191D02*
X005086Y014191D01*
X005086Y014093D02*
X014232Y014093D01*
X014242Y013994D02*
X005076Y013994D01*
X005035Y013896D02*
X014283Y013896D01*
X014361Y013797D02*
X004959Y013797D01*
X004959Y013699D02*
X014520Y013699D01*
X014797Y013699D02*
X017520Y013699D01*
X017361Y013797D02*
X014956Y013797D01*
X015035Y013896D02*
X017283Y013896D01*
X017242Y013994D02*
X015076Y013994D01*
X015086Y014093D02*
X017232Y014093D01*
X017232Y014191D02*
X015086Y014191D01*
X015086Y014290D02*
X017232Y014290D01*
X017232Y014389D02*
X015086Y014389D01*
X015086Y014487D02*
X017232Y014487D01*
X017232Y014586D02*
X015086Y014586D01*
X015086Y014684D02*
X017232Y014684D01*
X017248Y014783D02*
X015069Y014783D01*
X015083Y014881D02*
X017289Y014881D01*
X017377Y014980D02*
X015182Y014980D01*
X015281Y015078D02*
X017557Y015078D01*
X017760Y015078D02*
X019037Y015078D01*
X019136Y014980D02*
X017941Y014980D01*
X018029Y014881D02*
X019234Y014881D01*
X019333Y014783D02*
X018069Y014783D01*
X018086Y014684D02*
X019431Y014684D01*
X019530Y014586D02*
X018086Y014586D01*
X018086Y014487D02*
X019628Y014487D01*
X019727Y014389D02*
X018086Y014389D01*
X018086Y014290D02*
X019825Y014290D01*
X019924Y014191D02*
X018086Y014191D01*
X018086Y014093D02*
X020022Y014093D01*
X020121Y013994D02*
X018076Y013994D01*
X018035Y013896D02*
X020219Y013896D01*
X020318Y013797D02*
X017956Y013797D01*
X017797Y013699D02*
X020417Y013699D01*
X020515Y013600D02*
X004959Y013600D01*
X004959Y013502D02*
X020614Y013502D01*
X020712Y013403D02*
X004959Y013403D01*
X004959Y013305D02*
X020811Y013305D01*
X020909Y013206D02*
X004959Y013206D01*
X004959Y013107D02*
X021008Y013107D01*
X021106Y013009D02*
X004959Y013009D01*
X004959Y012910D02*
X021205Y012910D01*
X021303Y012812D02*
X004959Y012812D01*
X005207Y012713D02*
X006110Y012713D01*
X006016Y012615D02*
X005301Y012615D01*
X005342Y012516D02*
X005975Y012516D01*
X005954Y012418D02*
X005363Y012418D01*
X005363Y012319D02*
X005954Y012319D01*
X005986Y012221D02*
X005332Y012221D01*
X005281Y012122D02*
X006036Y012122D01*
X007281Y012122D02*
X009263Y012122D01*
X009360Y012221D02*
X007332Y012221D01*
X007207Y012713D02*
X018901Y012713D01*
X019916Y012713D02*
X021402Y012713D01*
X021501Y012615D02*
X020015Y012615D01*
X020056Y012516D02*
X021599Y012516D01*
X021698Y012418D02*
X020079Y012418D01*
X020079Y012319D02*
X021739Y012319D01*
X021771Y012221D02*
X020102Y012221D01*
X020200Y012122D02*
X021828Y012122D01*
X021955Y013009D02*
X021975Y013009D01*
X021777Y013206D02*
X021758Y013206D01*
X021739Y013305D02*
X021659Y013305D01*
X021739Y013403D02*
X021561Y013403D01*
X021462Y013502D02*
X021755Y013502D01*
X021796Y013600D02*
X021364Y013600D01*
X021265Y013699D02*
X021887Y013699D01*
X022901Y011728D02*
X023709Y011728D01*
X023709Y011826D02*
X020359Y011826D01*
X020359Y011038D02*
X021912Y011038D01*
X022067Y010791D02*
X022750Y010791D01*
X022901Y010728D01*
X023016Y010613D01*
X023079Y010462D01*
X023079Y010299D01*
X023016Y010149D01*
X022901Y010033D01*
X022750Y009971D01*
X022067Y009971D01*
X021917Y010033D01*
X021801Y010149D01*
X021739Y010299D01*
X021739Y010462D01*
X021801Y010613D01*
X021917Y010728D01*
X022067Y010791D01*
X021950Y010742D02*
X020303Y010742D01*
X020359Y010841D02*
X023709Y010841D01*
X023709Y010939D02*
X020359Y010939D01*
X019985Y010644D02*
X021832Y010644D01*
X021773Y010545D02*
X020044Y010545D01*
X020079Y010447D02*
X021739Y010447D01*
X021739Y010348D02*
X020079Y010348D01*
X020058Y010250D02*
X021759Y010250D01*
X021800Y010151D02*
X020017Y010151D01*
X019920Y010053D02*
X021897Y010053D01*
X021824Y009335D02*
X021994Y009335D01*
X022151Y009270D01*
X022271Y009150D01*
X022336Y008993D01*
X022336Y008269D01*
X022271Y008112D01*
X022151Y007991D01*
X021994Y007926D01*
X021824Y007926D01*
X021667Y007991D01*
X021547Y008112D01*
X021482Y008269D01*
X021482Y008993D01*
X021547Y009150D01*
X021667Y009270D01*
X021824Y009335D01*
X021661Y009264D02*
X020156Y009264D01*
X020255Y009166D02*
X021562Y009166D01*
X021512Y009067D02*
X020305Y009067D01*
X020336Y008969D02*
X021482Y008969D01*
X021482Y008870D02*
X020336Y008870D01*
X020336Y008772D02*
X021482Y008772D01*
X021482Y008673D02*
X020336Y008673D01*
X020336Y008574D02*
X021482Y008574D01*
X021482Y008476D02*
X020336Y008476D01*
X020336Y008377D02*
X021482Y008377D01*
X021482Y008279D02*
X020336Y008279D01*
X020299Y008180D02*
X021518Y008180D01*
X021577Y008082D02*
X020241Y008082D01*
X020131Y007983D02*
X021687Y007983D01*
X022131Y007983D02*
X023709Y007983D01*
X023709Y008082D02*
X022241Y008082D01*
X022299Y008180D02*
X023709Y008180D01*
X023709Y008279D02*
X022336Y008279D01*
X022336Y008377D02*
X023709Y008377D01*
X023709Y008476D02*
X022336Y008476D01*
X022336Y008574D02*
X023709Y008574D01*
X023709Y008673D02*
X022336Y008673D01*
X022336Y008772D02*
X023709Y008772D01*
X023709Y008870D02*
X022336Y008870D01*
X022336Y008969D02*
X023709Y008969D01*
X023709Y009067D02*
X022305Y009067D01*
X022255Y009166D02*
X023709Y009166D01*
X023709Y009264D02*
X022156Y009264D01*
X022920Y010053D02*
X023709Y010053D01*
X023709Y010151D02*
X023017Y010151D01*
X023058Y010250D02*
X023709Y010250D01*
X023709Y010348D02*
X023079Y010348D01*
X023079Y010447D02*
X023709Y010447D01*
X023709Y010545D02*
X023044Y010545D01*
X022985Y010644D02*
X023709Y010644D01*
X023709Y010742D02*
X022867Y010742D01*
X022906Y011038D02*
X023709Y011038D01*
X023709Y011137D02*
X023004Y011137D01*
X023052Y011235D02*
X023709Y011235D01*
X023709Y011334D02*
X023079Y011334D01*
X023079Y011432D02*
X023709Y011432D01*
X023709Y011531D02*
X023050Y011531D01*
X023000Y011629D02*
X023709Y011629D01*
X023709Y009954D02*
X017467Y009954D01*
X017539Y009856D02*
X023709Y009856D01*
X023709Y009757D02*
X017580Y009757D01*
X017586Y009658D02*
X023709Y009658D01*
X023709Y009560D02*
X017586Y009560D01*
X017586Y009461D02*
X023709Y009461D01*
X023709Y009363D02*
X017586Y009363D01*
X017586Y009264D02*
X019661Y009264D01*
X019562Y009166D02*
X017586Y009166D01*
X017586Y009067D02*
X019512Y009067D01*
X019482Y008969D02*
X017565Y008969D01*
X017524Y008870D02*
X019482Y008870D01*
X019482Y008772D02*
X017431Y008772D01*
X017322Y010053D02*
X018897Y010053D01*
X018800Y010151D02*
X002712Y010151D01*
X002613Y010053D02*
X002902Y010053D01*
X002803Y009954D02*
X002515Y009954D01*
X002416Y009856D02*
X002749Y009856D01*
X002712Y009757D02*
X002318Y009757D01*
X002219Y009658D02*
X002712Y009658D01*
X002712Y009560D02*
X002121Y009560D01*
X002106Y009461D02*
X002712Y009461D01*
X002712Y009363D02*
X002106Y009363D01*
X002106Y009264D02*
X002712Y009264D01*
X002712Y009166D02*
X002106Y009166D01*
X002106Y009067D02*
X002712Y009067D01*
X002723Y008969D02*
X002095Y008969D01*
X002054Y008870D02*
X002764Y008870D01*
X002839Y008772D02*
X001978Y008772D01*
X001834Y008673D02*
X002983Y008673D01*
X003287Y008377D02*
X000987Y008377D01*
X000987Y008279D02*
X003246Y008279D01*
X003232Y008180D02*
X000987Y008180D01*
X000987Y008082D02*
X003232Y008082D01*
X003232Y007983D02*
X000987Y007983D01*
X000987Y007885D02*
X003232Y007885D01*
X003232Y007786D02*
X000987Y007786D01*
X000987Y007688D02*
X001137Y007688D01*
X001039Y007589D02*
X000987Y007589D01*
X000987Y007490D02*
X000987Y007490D01*
X001015Y007096D02*
X000987Y007096D01*
X000987Y006998D02*
X001107Y006998D01*
X000987Y006702D02*
X005111Y006702D01*
X005017Y006604D02*
X000987Y006604D01*
X000987Y006505D02*
X001169Y006505D01*
X001053Y006406D02*
X000987Y006406D01*
X000993Y006308D02*
X000987Y006308D01*
X001009Y005914D02*
X000987Y005914D01*
X000987Y005815D02*
X001093Y005815D01*
X000987Y005717D02*
X001265Y005717D01*
X002363Y007293D02*
X003365Y007293D01*
X003284Y007392D02*
X002363Y007392D01*
X002331Y007490D02*
X003243Y007490D01*
X003232Y007589D02*
X002279Y007589D01*
X002180Y007688D02*
X003232Y007688D01*
X003373Y008476D02*
X000987Y008476D01*
X000987Y008574D02*
X003548Y008574D01*
X002048Y010053D02*
X001916Y010053D01*
X002146Y010151D02*
X000987Y010151D01*
X000987Y010053D02*
X001402Y010053D01*
X001303Y009954D02*
X000987Y009954D01*
X000987Y009856D02*
X001249Y009856D01*
X001212Y009757D02*
X000987Y009757D01*
X000987Y009658D02*
X001212Y009658D01*
X001212Y009560D02*
X000987Y009560D01*
X000987Y009461D02*
X001212Y009461D01*
X001212Y009363D02*
X000987Y009363D01*
X000987Y009264D02*
X001212Y009264D01*
X001212Y009166D02*
X000987Y009166D01*
X000987Y009067D02*
X001212Y009067D01*
X001223Y008969D02*
X000987Y008969D01*
X000987Y008870D02*
X001264Y008870D01*
X001339Y008772D02*
X000987Y008772D01*
X000987Y008673D02*
X001483Y008673D01*
X001659Y009381D02*
X004159Y011881D01*
X009909Y011881D01*
X009371Y011531D02*
X004092Y011531D01*
X004190Y011629D02*
X009272Y011629D01*
X004359Y012812D02*
X003557Y012812D01*
X003586Y012743D02*
X003521Y012900D01*
X003401Y013020D01*
X003244Y013085D01*
X003074Y013085D01*
X002917Y013020D01*
X002797Y012900D01*
X002732Y012743D01*
X002732Y012019D01*
X002797Y011862D01*
X002917Y011741D01*
X003074Y011676D01*
X003244Y011676D01*
X003401Y011741D01*
X003521Y011862D01*
X003586Y012019D01*
X003586Y012743D01*
X003586Y012713D02*
X004110Y012713D01*
X004016Y012615D02*
X003586Y012615D01*
X003586Y012516D02*
X003975Y012516D01*
X003954Y012418D02*
X003586Y012418D01*
X003586Y012319D02*
X003954Y012319D01*
X003986Y012221D02*
X003586Y012221D01*
X003586Y012122D02*
X004036Y012122D01*
X004019Y012023D02*
X003586Y012023D01*
X003547Y011925D02*
X003920Y011925D01*
X003822Y011826D02*
X003486Y011826D01*
X003368Y011728D02*
X003723Y011728D01*
X003624Y011629D02*
X000987Y011629D01*
X000987Y011531D02*
X003526Y011531D01*
X003427Y011432D02*
X000987Y011432D01*
X000987Y011334D02*
X003329Y011334D01*
X003230Y011235D02*
X000987Y011235D01*
X000987Y011137D02*
X003132Y011137D01*
X003033Y011038D02*
X000987Y011038D01*
X000987Y010939D02*
X002935Y010939D01*
X002836Y010841D02*
X000987Y010841D01*
X000987Y010742D02*
X002738Y010742D01*
X002639Y010644D02*
X000987Y010644D01*
X000987Y010545D02*
X002540Y010545D01*
X002442Y010447D02*
X000987Y010447D01*
X000987Y010348D02*
X002343Y010348D01*
X002245Y010250D02*
X000987Y010250D01*
X002811Y010250D02*
X015409Y010250D01*
X015310Y010348D02*
X002909Y010348D01*
X002950Y011728D02*
X001868Y011728D01*
X001901Y011741D02*
X001744Y011676D01*
X001574Y011676D01*
X001417Y011741D01*
X001297Y011862D01*
X001232Y012019D01*
X001232Y012743D01*
X001297Y012900D01*
X001417Y013020D01*
X001574Y013085D01*
X001744Y013085D01*
X001901Y013020D01*
X002021Y012900D01*
X002086Y012743D01*
X002086Y012019D01*
X002021Y011862D01*
X001901Y011741D01*
X001986Y011826D02*
X002832Y011826D01*
X002770Y011925D02*
X002047Y011925D01*
X002086Y012023D02*
X002732Y012023D01*
X002732Y012122D02*
X002086Y012122D01*
X002086Y012221D02*
X002732Y012221D01*
X002732Y012319D02*
X002086Y012319D01*
X002086Y012418D02*
X002732Y012418D01*
X002732Y012516D02*
X002086Y012516D01*
X002086Y012615D02*
X002732Y012615D01*
X002732Y012713D02*
X002086Y012713D01*
X002057Y012812D02*
X002760Y012812D01*
X002807Y012910D02*
X002010Y012910D01*
X001912Y013009D02*
X002906Y013009D01*
X003412Y013009D02*
X004359Y013009D01*
X004359Y013107D02*
X000987Y013107D01*
X000987Y013009D02*
X001406Y013009D01*
X001307Y012910D02*
X000987Y012910D01*
X000987Y012812D02*
X001260Y012812D01*
X001232Y012713D02*
X000987Y012713D01*
X000987Y012615D02*
X001232Y012615D01*
X001232Y012516D02*
X000987Y012516D01*
X000987Y012418D02*
X001232Y012418D01*
X001232Y012319D02*
X000987Y012319D01*
X000987Y012221D02*
X001232Y012221D01*
X001232Y012122D02*
X000987Y012122D01*
X000987Y012023D02*
X001232Y012023D01*
X001270Y011925D02*
X000987Y011925D01*
X000987Y011826D02*
X001332Y011826D01*
X001450Y011728D02*
X000987Y011728D01*
X000987Y013206D02*
X004359Y013206D01*
X004359Y013305D02*
X000987Y013305D01*
X000987Y013403D02*
X004359Y013403D01*
X004359Y013502D02*
X000987Y013502D01*
X000987Y013600D02*
X004359Y013600D01*
X004359Y013699D02*
X003797Y013699D01*
X003956Y013797D02*
X004359Y013797D01*
X004283Y013896D02*
X004035Y013896D01*
X004076Y013994D02*
X004242Y013994D01*
X004232Y014093D02*
X004086Y014093D01*
X004086Y014191D02*
X004232Y014191D01*
X004232Y014290D02*
X004086Y014290D01*
X004086Y014389D02*
X004232Y014389D01*
X004232Y014487D02*
X004086Y014487D01*
X004086Y014586D02*
X004232Y014586D01*
X004232Y014684D02*
X004086Y014684D01*
X004069Y014783D02*
X004248Y014783D01*
X004289Y014881D02*
X004029Y014881D01*
X003941Y014980D02*
X004377Y014980D01*
X003377Y014980D02*
X002941Y014980D01*
X003029Y014881D02*
X003289Y014881D01*
X003248Y014783D02*
X003069Y014783D01*
X003086Y014684D02*
X003232Y014684D01*
X003232Y014586D02*
X003086Y014586D01*
X003086Y014487D02*
X003232Y014487D01*
X003232Y014389D02*
X003086Y014389D01*
X003086Y014290D02*
X003232Y014290D01*
X003232Y014191D02*
X003086Y014191D01*
X003086Y014093D02*
X003232Y014093D01*
X003242Y013994D02*
X003076Y013994D01*
X003035Y013896D02*
X003283Y013896D01*
X003361Y013797D02*
X002956Y013797D01*
X002797Y013699D02*
X003520Y013699D01*
X003510Y012910D02*
X004359Y012910D01*
X002520Y013699D02*
X000987Y013699D01*
X000987Y013797D02*
X002361Y013797D01*
X002283Y013896D02*
X000987Y013896D01*
X000987Y013994D02*
X002242Y013994D01*
X002232Y014093D02*
X000987Y014093D01*
X000987Y014191D02*
X002232Y014191D01*
X002232Y014290D02*
X000987Y014290D01*
X000987Y014389D02*
X002232Y014389D01*
X002232Y014487D02*
X000987Y014487D01*
X000987Y014586D02*
X002232Y014586D01*
X002232Y014684D02*
X000987Y014684D01*
X000987Y014783D02*
X002248Y014783D01*
X002289Y014881D02*
X000987Y014881D01*
X000987Y014980D02*
X002377Y014980D01*
X000987Y015867D02*
X023709Y015867D01*
X023709Y015965D02*
X000987Y015965D01*
X000987Y016064D02*
X023709Y016064D01*
X023709Y016162D02*
X018659Y016162D01*
X018659Y016261D02*
X023709Y016261D01*
X023709Y016359D02*
X018659Y016359D01*
X018659Y016458D02*
X023709Y016458D01*
X023709Y016556D02*
X018659Y016556D01*
X018659Y016655D02*
X023709Y016655D01*
X023709Y016754D02*
X018659Y016754D01*
X018659Y016852D02*
X023709Y016852D01*
X023709Y016951D02*
X018659Y016951D01*
X018659Y017049D02*
X023709Y017049D01*
X023709Y017148D02*
X018659Y017148D01*
X018659Y017246D02*
X023169Y017246D01*
X022883Y017345D02*
X018659Y017345D01*
X018659Y017443D02*
X022712Y017443D01*
X022612Y017542D02*
X018659Y017542D01*
X018659Y017640D02*
X022514Y017640D01*
X022454Y017739D02*
X018659Y017739D01*
X018659Y017838D02*
X022397Y017838D01*
X022354Y017936D02*
X018659Y017936D01*
X018659Y018035D02*
X022327Y018035D01*
X022301Y018133D02*
X018659Y018133D01*
X018659Y018232D02*
X022291Y018232D01*
X022291Y018330D02*
X018659Y018330D01*
X018659Y018429D02*
X022291Y018429D01*
X022312Y018527D02*
X018659Y018527D01*
X018659Y018626D02*
X022338Y018626D01*
X023574Y017246D02*
X023709Y017246D01*
X016120Y011137D02*
X016086Y011137D01*
X016086Y011038D02*
X016219Y011038D01*
X016317Y010939D02*
X016086Y010939D01*
X016086Y010841D02*
X016416Y010841D01*
X016514Y010742D02*
X016086Y010742D01*
X016086Y010644D02*
X018832Y010644D01*
X018773Y010545D02*
X016086Y010545D01*
X016056Y010447D02*
X018739Y010447D01*
X018739Y010348D02*
X016007Y010348D01*
X015909Y010250D02*
X018759Y010250D01*
X015627Y011629D02*
X015086Y011629D01*
X015086Y011531D02*
X015443Y011531D01*
X015329Y011432D02*
X015050Y011432D01*
X014993Y011334D02*
X015269Y011334D01*
X015232Y011235D02*
X014885Y011235D01*
X012159Y016162D02*
X000987Y016162D01*
X000987Y016261D02*
X012159Y016261D01*
X012159Y016359D02*
X000987Y016359D01*
X000987Y016458D02*
X012159Y016458D01*
X012159Y016556D02*
X000987Y016556D01*
X000987Y016655D02*
X012159Y016655D01*
X012159Y016754D02*
X000987Y016754D01*
X000987Y016852D02*
X012159Y016852D01*
X012159Y016951D02*
X000987Y016951D01*
X000987Y017049D02*
X012159Y017049D01*
X012159Y017148D02*
X000987Y017148D01*
X000987Y017246D02*
X001121Y017246D01*
X001527Y017246D02*
X012159Y017246D01*
X012159Y017345D02*
X001812Y017345D01*
X001983Y017443D02*
X012159Y017443D01*
X012159Y017542D02*
X002083Y017542D01*
X002182Y017640D02*
X012159Y017640D01*
X012159Y017739D02*
X002241Y017739D01*
X002298Y017838D02*
X012159Y017838D01*
X012159Y017936D02*
X002342Y017936D01*
X002368Y018035D02*
X012159Y018035D01*
X012159Y018133D02*
X002395Y018133D01*
X002404Y018232D02*
X012159Y018232D01*
X012159Y018330D02*
X002404Y018330D01*
X002404Y018429D02*
X012159Y018429D01*
X012159Y018527D02*
X002384Y018527D01*
X002357Y018626D02*
X012159Y018626D01*
X008111Y006702D02*
X006206Y006702D01*
X006301Y006604D02*
X008017Y006604D01*
X007976Y006505D02*
X006342Y006505D01*
X006363Y006406D02*
X007954Y006406D01*
X007954Y006308D02*
X006363Y006308D01*
X006332Y006209D02*
X007985Y006209D01*
X008035Y006111D02*
X006283Y006111D01*
X006184Y006012D02*
X008133Y006012D01*
X007933Y005027D02*
X006384Y005027D01*
X006492Y004928D02*
X007825Y004928D01*
X007768Y004830D02*
X006550Y004830D01*
X006586Y004731D02*
X007732Y004731D01*
X007732Y004633D02*
X006586Y004633D01*
X006586Y004534D02*
X007732Y004534D01*
X007732Y004436D02*
X006586Y004436D01*
X006586Y004337D02*
X007732Y004337D01*
X007732Y004239D02*
X006586Y004239D01*
X006586Y004140D02*
X007732Y004140D01*
X007732Y004041D02*
X006586Y004041D01*
X006555Y003943D02*
X007763Y003943D01*
X007814Y003844D02*
X006504Y003844D01*
X006405Y003746D02*
X007912Y003746D01*
M02*
