G75*
G70*
%OFA0B0*%
%FSLAX24Y24*%
%IPPOS*%
%LPD*%
%AMOC8*
5,1,8,0,0,1.08239X$1,22.5*
%
%ADD10C,0.0160*%
%ADD11C,0.0520*%
%ADD12C,0.0554*%
%ADD13C,0.1300*%
%ADD14C,0.1181*%
%ADD15C,0.0560*%
%ADD16C,0.0594*%
%ADD17C,0.0500*%
%ADD18C,0.0768*%
%ADD19R,0.0327X0.0013*%
%ADD20R,0.0553X0.0013*%
%ADD21R,0.0717X0.0013*%
%ADD22R,0.0843X0.0013*%
%ADD23R,0.0956X0.0013*%
%ADD24R,0.1044X0.0013*%
%ADD25R,0.1132X0.0013*%
%ADD26R,0.1220X0.0013*%
%ADD27R,0.1296X0.0013*%
%ADD28R,0.1371X0.0013*%
%ADD29R,0.1434X0.0013*%
%ADD30R,0.1497X0.0013*%
%ADD31R,0.1560X0.0013*%
%ADD32R,0.1610X0.0013*%
%ADD33R,0.1673X0.0013*%
%ADD34R,0.1723X0.0013*%
%ADD35R,0.1774X0.0013*%
%ADD36R,0.1824X0.0013*%
%ADD37R,0.1874X0.0013*%
%ADD38R,0.1912X0.0013*%
%ADD39R,0.1962X0.0013*%
%ADD40R,0.2000X0.0013*%
%ADD41R,0.2050X0.0013*%
%ADD42R,0.2088X0.0013*%
%ADD43R,0.2126X0.0013*%
%ADD44R,0.2164X0.0013*%
%ADD45R,0.2201X0.0013*%
%ADD46R,0.2239X0.0013*%
%ADD47R,0.2277X0.0013*%
%ADD48R,0.2314X0.0013*%
%ADD49R,0.2352X0.0013*%
%ADD50R,0.2377X0.0013*%
%ADD51R,0.2415X0.0013*%
%ADD52R,0.2440X0.0013*%
%ADD53R,0.2478X0.0013*%
%ADD54R,0.2503X0.0013*%
%ADD55R,0.2541X0.0013*%
%ADD56R,0.2566X0.0013*%
%ADD57R,0.2591X0.0013*%
%ADD58R,0.2629X0.0013*%
%ADD59R,0.2654X0.0013*%
%ADD60R,0.2679X0.0013*%
%ADD61R,0.2704X0.0013*%
%ADD62R,0.2729X0.0013*%
%ADD63R,0.2755X0.0013*%
%ADD64R,0.2780X0.0013*%
%ADD65R,0.2805X0.0013*%
%ADD66R,0.2830X0.0013*%
%ADD67R,0.2855X0.0013*%
%ADD68R,0.2880X0.0013*%
%ADD69R,0.2906X0.0013*%
%ADD70R,0.2931X0.0013*%
%ADD71R,0.2956X0.0013*%
%ADD72R,0.2968X0.0013*%
%ADD73R,0.2994X0.0013*%
%ADD74R,0.3019X0.0013*%
%ADD75R,0.3044X0.0013*%
%ADD76R,0.3057X0.0013*%
%ADD77R,0.3082X0.0013*%
%ADD78R,0.3094X0.0013*%
%ADD79R,0.3119X0.0013*%
%ADD80R,0.3145X0.0013*%
%ADD81R,0.3157X0.0013*%
%ADD82R,0.3182X0.0013*%
%ADD83R,0.3195X0.0013*%
%ADD84R,0.3207X0.0013*%
%ADD85R,0.3233X0.0013*%
%ADD86R,0.3245X0.0013*%
%ADD87R,0.3270X0.0013*%
%ADD88R,0.3283X0.0013*%
%ADD89R,0.3296X0.0013*%
%ADD90R,0.3321X0.0013*%
%ADD91R,0.3333X0.0013*%
%ADD92R,0.3346X0.0013*%
%ADD93R,0.3358X0.0013*%
%ADD94R,0.3384X0.0013*%
%ADD95R,0.3396X0.0013*%
%ADD96R,0.3409X0.0013*%
%ADD97R,0.3421X0.0013*%
%ADD98R,0.3434X0.0013*%
%ADD99R,0.3446X0.0013*%
%ADD100R,0.3459X0.0013*%
%ADD101R,0.3484X0.0013*%
%ADD102R,0.3497X0.0013*%
%ADD103R,0.3509X0.0013*%
%ADD104R,0.3522X0.0013*%
%ADD105R,0.3534X0.0013*%
%ADD106R,0.3547X0.0013*%
%ADD107R,0.3560X0.0013*%
%ADD108R,0.3572X0.0013*%
%ADD109R,0.3585X0.0013*%
%ADD110R,0.3585X0.0013*%
%ADD111R,0.3597X0.0013*%
%ADD112R,0.3610X0.0013*%
%ADD113R,0.3623X0.0013*%
%ADD114R,0.3635X0.0013*%
%ADD115R,0.3648X0.0013*%
%ADD116R,0.3660X0.0013*%
%ADD117R,0.3660X0.0013*%
%ADD118R,0.0654X0.0013*%
%ADD119R,0.0805X0.0013*%
%ADD120R,0.0755X0.0013*%
%ADD121R,0.1119X0.0013*%
%ADD122R,0.0591X0.0013*%
%ADD123R,0.0692X0.0013*%
%ADD124R,0.0641X0.0013*%
%ADD125R,0.1069X0.0013*%
%ADD126R,0.0566X0.0013*%
%ADD127R,0.0616X0.0013*%
%ADD128R,0.0440X0.0013*%
%ADD129R,0.0352X0.0013*%
%ADD130R,0.0528X0.0013*%
%ADD131R,0.0566X0.0013*%
%ADD132R,0.0516X0.0013*%
%ADD133R,0.0415X0.0013*%
%ADD134R,0.0365X0.0013*%
%ADD135R,0.0516X0.0013*%
%ADD136R,0.0478X0.0013*%
%ADD137R,0.0390X0.0013*%
%ADD138R,0.0365X0.0013*%
%ADD139R,0.0503X0.0013*%
%ADD140R,0.0478X0.0013*%
%ADD141R,0.0428X0.0013*%
%ADD142R,0.0377X0.0013*%
%ADD143R,0.0491X0.0013*%
%ADD144R,0.0403X0.0013*%
%ADD145R,0.0352X0.0013*%
%ADD146R,0.0377X0.0013*%
%ADD147R,0.0478X0.0013*%
%ADD148R,0.0340X0.0013*%
%ADD149R,0.0377X0.0013*%
%ADD150R,0.0327X0.0013*%
%ADD151R,0.0465X0.0013*%
%ADD152R,0.0314X0.0013*%
%ADD153R,0.0390X0.0013*%
%ADD154R,0.0453X0.0013*%
%ADD155R,0.0302X0.0013*%
%ADD156R,0.0453X0.0013*%
%ADD157R,0.0327X0.0013*%
%ADD158R,0.0277X0.0013*%
%ADD159R,0.0302X0.0013*%
%ADD160R,0.0314X0.0013*%
%ADD161R,0.0264X0.0013*%
%ADD162R,0.0289X0.0013*%
%ADD163R,0.0252X0.0013*%
%ADD164R,0.0277X0.0013*%
%ADD165R,0.0402X0.0013*%
%ADD166R,0.0440X0.0013*%
%ADD167R,0.0289X0.0013*%
%ADD168R,0.0226X0.0013*%
%ADD169R,0.0402X0.0013*%
%ADD170R,0.0226X0.0013*%
%ADD171R,0.0428X0.0013*%
%ADD172R,0.0113X0.0013*%
%ADD173R,0.0264X0.0013*%
%ADD174R,0.0088X0.0013*%
%ADD175R,0.0201X0.0013*%
%ADD176R,0.0101X0.0013*%
%ADD177R,0.0428X0.0013*%
%ADD178R,0.0164X0.0013*%
%ADD179R,0.0239X0.0013*%
%ADD180R,0.0201X0.0013*%
%ADD181R,0.0151X0.0013*%
%ADD182R,0.0415X0.0013*%
%ADD183R,0.0201X0.0013*%
%ADD184R,0.0239X0.0013*%
%ADD185R,0.0189X0.0013*%
%ADD186R,0.0252X0.0013*%
%ADD187R,0.0428X0.0013*%
%ADD188R,0.0214X0.0013*%
%ADD189R,0.0176X0.0013*%
%ADD190R,0.0214X0.0013*%
%ADD191R,0.0239X0.0013*%
%ADD192R,0.0176X0.0013*%
%ADD193R,0.0252X0.0013*%
%ADD194R,0.0151X0.0013*%
%ADD195R,0.0277X0.0013*%
%ADD196R,0.0289X0.0013*%
%ADD197R,0.0277X0.0013*%
%ADD198R,0.0289X0.0013*%
%ADD199R,0.0138X0.0013*%
%ADD200R,0.0189X0.0013*%
%ADD201R,0.0138X0.0013*%
%ADD202R,0.0453X0.0013*%
%ADD203R,0.0302X0.0013*%
%ADD204R,0.0352X0.0013*%
%ADD205R,0.0692X0.0013*%
%ADD206R,0.0641X0.0013*%
%ADD207R,0.0679X0.0013*%
%ADD208R,0.0679X0.0013*%
%ADD209R,0.0667X0.0013*%
%ADD210R,0.0667X0.0013*%
%ADD211R,0.0629X0.0013*%
%ADD212R,0.0465X0.0013*%
%ADD213R,0.0654X0.0013*%
%ADD214R,0.0629X0.0013*%
%ADD215R,0.0629X0.0013*%
%ADD216R,0.0616X0.0013*%
%ADD217R,0.0063X0.0013*%
%ADD218R,0.0063X0.0013*%
%ADD219R,0.0604X0.0013*%
%ADD220R,0.0063X0.0013*%
%ADD221R,0.0063X0.0013*%
%ADD222R,0.0025X0.0013*%
%ADD223R,0.0604X0.0013*%
%ADD224R,0.0629X0.0013*%
%ADD225R,0.0038X0.0013*%
%ADD226R,0.0541X0.0013*%
%ADD227R,0.0038X0.0013*%
%ADD228R,0.0302X0.0013*%
%ADD229R,0.0025X0.0013*%
%ADD230R,0.0553X0.0013*%
%ADD231R,0.0075X0.0013*%
%ADD232R,0.0553X0.0013*%
%ADD233R,0.0075X0.0013*%
%ADD234R,0.0340X0.0013*%
%ADD235R,0.0038X0.0013*%
%ADD236R,0.0553X0.0013*%
%ADD237R,0.0038X0.0013*%
%ADD238R,0.0050X0.0013*%
%ADD239R,0.0403X0.0013*%
%ADD240R,0.0528X0.0013*%
%ADD241R,0.0541X0.0013*%
%ADD242R,0.0528X0.0013*%
%ADD243R,0.0528X0.0013*%
%ADD244R,0.0453X0.0013*%
%ADD245R,0.0050X0.0013*%
%ADD246R,0.0503X0.0013*%
%ADD247R,0.0579X0.0013*%
%ADD248R,0.0013X0.0013*%
%ADD249R,0.0604X0.0013*%
%ADD250R,0.0704X0.0013*%
%ADD251R,0.0704X0.0013*%
%ADD252R,0.0717X0.0013*%
%ADD253R,0.0654X0.0013*%
%ADD254R,0.0654X0.0013*%
%ADD255R,0.0730X0.0013*%
%ADD256R,0.0730X0.0013*%
%ADD257R,0.0252X0.0013*%
%ADD258R,0.0226X0.0013*%
%ADD259R,0.0189X0.0013*%
%ADD260R,0.0226X0.0013*%
%ADD261R,0.0189X0.0013*%
%ADD262R,0.0214X0.0013*%
%ADD263R,0.0214X0.0013*%
%ADD264R,0.0164X0.0013*%
%ADD265R,0.0113X0.0013*%
%ADD266R,0.0126X0.0013*%
%ADD267R,0.0264X0.0013*%
%ADD268R,0.0264X0.0013*%
%ADD269R,0.0314X0.0013*%
%ADD270R,0.0365X0.0013*%
%ADD271R,0.0415X0.0013*%
%ADD272R,0.0491X0.0013*%
%ADD273R,0.0503X0.0013*%
%ADD274R,0.0352X0.0013*%
%ADD275R,0.0755X0.0013*%
%ADD276R,0.0692X0.0013*%
%ADD277R,0.3673X0.0013*%
%ADD278R,0.3648X0.0013*%
%ADD279R,0.3635X0.0013*%
%ADD280R,0.3572X0.0013*%
%ADD281R,0.3560X0.0013*%
%ADD282R,0.3547X0.0013*%
%ADD283R,0.3534X0.0013*%
%ADD284R,0.3522X0.0013*%
%ADD285R,0.3509X0.0013*%
%ADD286R,0.3497X0.0013*%
%ADD287R,0.3484X0.0013*%
%ADD288R,0.3472X0.0013*%
%ADD289R,0.3396X0.0013*%
%ADD290R,0.3384X0.0013*%
%ADD291R,0.3371X0.0013*%
%ADD292R,0.3333X0.0013*%
%ADD293R,0.3321X0.0013*%
%ADD294R,0.3308X0.0013*%
%ADD295R,0.3270X0.0013*%
%ADD296R,0.3258X0.0013*%
%ADD297R,0.3220X0.0013*%
%ADD298R,0.3182X0.0013*%
%ADD299R,0.3170X0.0013*%
%ADD300R,0.3145X0.0013*%
%ADD301R,0.3132X0.0013*%
%ADD302R,0.3107X0.0013*%
%ADD303R,0.3069X0.0013*%
%ADD304R,0.3044X0.0013*%
%ADD305R,0.3031X0.0013*%
%ADD306R,0.3006X0.0013*%
%ADD307R,0.2981X0.0013*%
%ADD308R,0.2943X0.0013*%
%ADD309R,0.2918X0.0013*%
%ADD310R,0.2893X0.0013*%
%ADD311R,0.2868X0.0013*%
%ADD312R,0.2843X0.0013*%
%ADD313R,0.2818X0.0013*%
%ADD314R,0.2792X0.0013*%
%ADD315R,0.2767X0.0013*%
%ADD316R,0.2742X0.0013*%
%ADD317R,0.2717X0.0013*%
%ADD318R,0.2692X0.0013*%
%ADD319R,0.2667X0.0013*%
%ADD320R,0.2641X0.0013*%
%ADD321R,0.2616X0.0013*%
%ADD322R,0.2579X0.0013*%
%ADD323R,0.2553X0.0013*%
%ADD324R,0.2528X0.0013*%
%ADD325R,0.2491X0.0013*%
%ADD326R,0.2465X0.0013*%
%ADD327R,0.2428X0.0013*%
%ADD328R,0.2402X0.0013*%
%ADD329R,0.2365X0.0013*%
%ADD330R,0.2327X0.0013*%
%ADD331R,0.2289X0.0013*%
%ADD332R,0.2264X0.0013*%
%ADD333R,0.2226X0.0013*%
%ADD334R,0.2189X0.0013*%
%ADD335R,0.2151X0.0013*%
%ADD336R,0.2101X0.0013*%
%ADD337R,0.2063X0.0013*%
%ADD338R,0.2025X0.0013*%
%ADD339R,0.1987X0.0013*%
%ADD340R,0.1937X0.0013*%
%ADD341R,0.1887X0.0013*%
%ADD342R,0.1849X0.0013*%
%ADD343R,0.1799X0.0013*%
%ADD344R,0.1748X0.0013*%
%ADD345R,0.1698X0.0013*%
%ADD346R,0.1635X0.0013*%
%ADD347R,0.1585X0.0013*%
%ADD348R,0.1522X0.0013*%
%ADD349R,0.1459X0.0013*%
%ADD350R,0.1396X0.0013*%
%ADD351R,0.1333X0.0013*%
%ADD352R,0.1258X0.0013*%
%ADD353R,0.1182X0.0013*%
%ADD354R,0.1094X0.0013*%
%ADD355R,0.1006X0.0013*%
%ADD356R,0.0906X0.0013*%
%ADD357R,0.0780X0.0013*%
%ADD358C,0.0300*%
%ADD359C,0.0100*%
%ADD360C,0.0240*%
D10*
X015731Y016211D02*
X015731Y018052D01*
X016652Y018052D01*
X016959Y017745D01*
X016959Y017132D01*
X016652Y016825D01*
X015731Y016825D01*
X016345Y016825D02*
X016959Y016211D01*
X017573Y016211D02*
X018800Y018052D01*
X017573Y018052D02*
X018800Y016211D01*
D11*
X005161Y013381D02*
X004641Y013381D01*
X004641Y012381D02*
X005161Y012381D01*
X005161Y011381D02*
X004641Y011381D01*
X004641Y010381D02*
X005161Y010381D01*
X002161Y010381D02*
X001641Y010381D01*
X001641Y011381D02*
X002161Y011381D01*
X002161Y012381D02*
X001641Y012381D01*
X001641Y013381D02*
X002161Y013381D01*
D12*
X006651Y014104D02*
X006651Y014658D01*
X007651Y014658D02*
X007651Y014104D01*
X008651Y014104D02*
X008651Y014658D01*
X009651Y014658D02*
X009651Y014104D01*
X009651Y012158D02*
X009651Y011604D01*
X008651Y011158D02*
X008651Y010604D01*
X007151Y009658D02*
X007151Y009104D01*
X008874Y007393D02*
X009428Y007393D01*
X009428Y005381D02*
X008874Y005381D01*
X004401Y008354D02*
X004401Y008908D01*
X002401Y008908D02*
X002401Y008354D01*
X010651Y010604D02*
X010651Y011158D01*
X015374Y007381D02*
X015928Y007381D01*
X015928Y006368D02*
X015374Y006368D01*
X016151Y004658D02*
X016151Y004104D01*
X017151Y004104D02*
X017151Y004658D01*
X018151Y004658D02*
X018151Y004104D01*
X020651Y004604D02*
X020651Y005158D01*
X018928Y006368D02*
X018374Y006368D01*
X018374Y007381D02*
X018928Y007381D01*
X020651Y007604D02*
X020651Y008158D01*
X022374Y007328D02*
X022928Y007328D01*
X022928Y006131D02*
X022374Y006131D01*
X022374Y004954D02*
X022928Y004954D01*
X019928Y010381D02*
X019374Y010381D01*
X017928Y010381D02*
X017374Y010381D01*
X017374Y012381D02*
X017928Y012381D01*
X019374Y012381D02*
X019928Y012381D01*
X021151Y012658D02*
X021151Y012104D01*
X022651Y012104D02*
X022651Y012658D01*
X022651Y014104D02*
X022651Y014658D01*
X021651Y014658D02*
X021651Y014104D01*
X020651Y014104D02*
X020651Y014658D01*
X019651Y014658D02*
X019651Y014104D01*
X014428Y004381D02*
X013874Y004381D01*
D13*
X005301Y002631D02*
X004001Y002631D01*
X004001Y006631D02*
X005301Y006631D01*
D14*
X005242Y004631D02*
X004061Y004631D01*
D15*
X012371Y006381D02*
X012931Y006381D01*
X012931Y007381D02*
X012371Y007381D01*
X014121Y010881D02*
X014681Y010881D01*
X014681Y011881D02*
X014121Y011881D01*
D16*
X007151Y012084D02*
X007151Y012678D01*
X010854Y004381D02*
X011448Y004381D01*
X021151Y009084D02*
X021151Y009678D01*
X022651Y009678D02*
X022651Y009084D01*
D17*
X022651Y015881D03*
X021651Y015881D03*
X019651Y015881D03*
X012151Y011881D03*
D18*
X011151Y017497D02*
X011151Y018265D01*
X006651Y018265D02*
X006651Y017497D01*
X007651Y002765D02*
X007651Y001997D01*
X012151Y001997D02*
X012151Y002765D01*
X015651Y002765D02*
X015651Y001997D01*
X020151Y001997D02*
X020151Y002765D01*
D19*
X003628Y015771D03*
X002797Y016450D03*
X004495Y016261D03*
X003389Y014412D03*
D20*
X003389Y014425D03*
X003665Y016349D03*
X004445Y016437D03*
D21*
X004301Y016676D03*
X004301Y016702D03*
X003395Y014437D03*
D22*
X003395Y014450D03*
D23*
X003389Y014463D03*
D24*
X003395Y014475D03*
D25*
X003389Y014488D03*
D26*
X003395Y014500D03*
D27*
X003395Y014513D03*
D28*
X003395Y014525D03*
D29*
X003389Y014538D03*
D30*
X003395Y014551D03*
D31*
X003389Y014563D03*
D32*
X003389Y014576D03*
D33*
X003395Y014588D03*
D34*
X003395Y014601D03*
D35*
X003395Y014614D03*
D36*
X003395Y014626D03*
D37*
X003395Y014639D03*
D38*
X003389Y014651D03*
D39*
X003389Y014664D03*
D40*
X003395Y014676D03*
D41*
X003395Y014689D03*
D42*
X003389Y014702D03*
D43*
X003395Y014714D03*
D44*
X003389Y014727D03*
D45*
X003395Y014739D03*
D46*
X003389Y014752D03*
D47*
X003395Y014764D03*
D48*
X003389Y014777D03*
D49*
X003395Y014790D03*
D50*
X003395Y014802D03*
D51*
X003389Y014815D03*
D52*
X003389Y014827D03*
D53*
X003395Y014840D03*
D54*
X003395Y014853D03*
D55*
X003389Y014865D03*
D56*
X003389Y014878D03*
D57*
X003389Y014890D03*
D58*
X003395Y014903D03*
D59*
X003395Y014915D03*
D60*
X003395Y014928D03*
D61*
X003395Y014941D03*
D62*
X003395Y014953D03*
D63*
X003395Y014966D03*
D64*
X003395Y014978D03*
D65*
X003395Y014991D03*
D66*
X003395Y015003D03*
D67*
X003395Y015016D03*
D68*
X003395Y015029D03*
D69*
X003395Y015041D03*
D70*
X003395Y015054D03*
D71*
X003395Y015066D03*
D72*
X003389Y015079D03*
X003389Y017683D03*
D73*
X003389Y015091D03*
D74*
X003389Y015104D03*
D75*
X003389Y015117D03*
D76*
X003395Y015129D03*
D77*
X003395Y015142D03*
D78*
X003389Y015154D03*
X003389Y017607D03*
D79*
X003389Y015167D03*
D80*
X003389Y015180D03*
D81*
X003395Y015192D03*
D82*
X003395Y015205D03*
D83*
X003389Y015217D03*
D84*
X003395Y015230D03*
X003395Y017532D03*
D85*
X003395Y015242D03*
D86*
X003389Y015255D03*
X003389Y017507D03*
D87*
X003389Y015268D03*
D88*
X003395Y015280D03*
D89*
X003389Y015293D03*
X003389Y017469D03*
D90*
X003389Y015305D03*
D91*
X003395Y015318D03*
D92*
X003389Y015330D03*
D93*
X003395Y015343D03*
X003395Y017419D03*
D94*
X003395Y015356D03*
D95*
X003389Y015368D03*
D96*
X003395Y015381D03*
D97*
X003389Y015393D03*
X003389Y017368D03*
D98*
X003395Y017356D03*
X003395Y015406D03*
D99*
X003389Y015419D03*
X003389Y017343D03*
D100*
X003395Y017330D03*
X003395Y015431D03*
D101*
X003395Y015444D03*
D102*
X003389Y015456D03*
D103*
X003395Y015469D03*
D104*
X003389Y015481D03*
D105*
X003395Y015494D03*
D106*
X003389Y015507D03*
D107*
X003395Y015519D03*
D108*
X003389Y015532D03*
D109*
X003395Y015544D03*
D110*
X003395Y015557D03*
X003395Y017205D03*
D111*
X003389Y017192D03*
X003389Y015569D03*
D112*
X003395Y015582D03*
X003395Y017179D03*
D113*
X003389Y017167D03*
X003389Y015595D03*
D114*
X003395Y015607D03*
X003395Y017154D03*
D115*
X003389Y015620D03*
D116*
X003395Y015632D03*
D117*
X003395Y015645D03*
X003395Y017117D03*
D118*
X002735Y017079D03*
X003401Y016664D03*
X004332Y016588D03*
X001879Y015658D03*
D119*
X002722Y015658D03*
D120*
X003615Y015658D03*
D121*
X004665Y015658D03*
D122*
X004426Y016475D03*
X002728Y017066D03*
X001848Y015670D03*
D123*
X002728Y015670D03*
D124*
X002955Y016161D03*
X003470Y016576D03*
X003407Y016651D03*
X003395Y016676D03*
X003785Y016261D03*
X003797Y016186D03*
X003860Y016110D03*
X003873Y016085D03*
X003621Y015670D03*
X004338Y016576D03*
X003395Y018324D03*
D125*
X004703Y017091D03*
X004703Y015670D03*
D126*
X003747Y016274D03*
X003521Y016488D03*
X003621Y015683D03*
X001823Y015683D03*
X001835Y017079D03*
D127*
X003483Y016538D03*
X003823Y016173D03*
X002728Y015683D03*
D128*
X002728Y015733D03*
X001722Y015808D03*
X001722Y015821D03*
X001709Y015846D03*
X001684Y015947D03*
X001672Y015997D03*
X001672Y016022D03*
X001672Y016047D03*
X001672Y016714D03*
X001672Y016739D03*
X001672Y016764D03*
X001684Y016815D03*
X001697Y016865D03*
X001709Y016915D03*
X001722Y016941D03*
X004439Y015683D03*
X005106Y015972D03*
X005106Y015997D03*
X005106Y016739D03*
X005106Y016764D03*
X005106Y016790D03*
D129*
X005061Y017079D03*
X005061Y015683D03*
D130*
X005099Y016362D03*
X005099Y016400D03*
X001804Y015695D03*
D131*
X002728Y015695D03*
X003533Y016475D03*
X003508Y016500D03*
X003734Y016286D03*
X004439Y016450D03*
D132*
X003621Y015695D03*
X001785Y017041D03*
X001684Y016362D03*
D133*
X002841Y016362D03*
X002728Y015746D03*
X004451Y015695D03*
X005093Y015859D03*
X005093Y015884D03*
X004514Y016312D03*
X005093Y016878D03*
D134*
X005068Y017041D03*
X005068Y015720D03*
X005068Y015695D03*
X002728Y015771D03*
D135*
X002728Y015708D03*
X002892Y016274D03*
X001797Y015708D03*
X001684Y016412D03*
X001797Y017054D03*
X005106Y016412D03*
X005106Y016349D03*
D136*
X005124Y016324D03*
X005124Y016299D03*
X005124Y016274D03*
X005124Y016249D03*
X005124Y016224D03*
X005124Y016437D03*
X005124Y016463D03*
X005124Y016488D03*
X005124Y016513D03*
X005124Y016538D03*
X003628Y015708D03*
X001753Y015758D03*
X001753Y017003D03*
D137*
X002829Y016387D03*
X002728Y015758D03*
X004464Y015708D03*
X005080Y015783D03*
X005080Y015808D03*
X004464Y016349D03*
X005080Y016953D03*
X005080Y016978D03*
D138*
X005068Y017029D03*
X005068Y017054D03*
X004477Y017029D03*
X004514Y016274D03*
X005068Y015708D03*
X002816Y016412D03*
X002728Y016978D03*
D139*
X002885Y016286D03*
X001779Y015720D03*
D140*
X002735Y015720D03*
X005124Y016236D03*
X005124Y016261D03*
X005124Y016286D03*
X005124Y016312D03*
X005124Y016337D03*
X005124Y016450D03*
X005124Y016475D03*
X005124Y016500D03*
X005124Y016525D03*
D141*
X004445Y017066D03*
X003628Y015720D03*
X001691Y015909D03*
X001691Y016852D03*
D142*
X002823Y016400D03*
X003628Y015746D03*
X004470Y015720D03*
X004470Y016337D03*
D143*
X002879Y016299D03*
X001772Y015733D03*
X001772Y017029D03*
D144*
X002735Y017003D03*
X002835Y016374D03*
X003628Y015733D03*
X004458Y017054D03*
D145*
X004483Y015733D03*
X003628Y015758D03*
X002735Y015783D03*
D146*
X005074Y015758D03*
X005074Y015733D03*
X005074Y017003D03*
D147*
X004420Y016425D03*
X002873Y016312D03*
X001766Y015746D03*
X001766Y017016D03*
D148*
X002225Y016450D03*
X002225Y016312D03*
X002728Y016966D03*
X003546Y016752D03*
X003621Y016991D03*
X004489Y016991D03*
X004489Y015746D03*
D149*
X005074Y015746D03*
X005074Y016991D03*
X005074Y017016D03*
X002735Y016991D03*
D150*
X002231Y016437D03*
X004495Y016978D03*
X004495Y015758D03*
D151*
X005118Y016110D03*
X005118Y016136D03*
X005118Y016161D03*
X005118Y016186D03*
X005118Y016211D03*
X005118Y016551D03*
X005118Y016576D03*
X005118Y016601D03*
X005118Y016626D03*
X005118Y016651D03*
X001747Y016991D03*
X001659Y016601D03*
X001659Y016576D03*
X001659Y016551D03*
X001659Y016525D03*
X001659Y016500D03*
X001659Y016475D03*
X001659Y016450D03*
X001659Y016425D03*
X001659Y016337D03*
X001659Y016312D03*
X001659Y016286D03*
X001659Y016261D03*
X001659Y016236D03*
X001659Y016211D03*
X001659Y016186D03*
X001659Y016161D03*
X001747Y015771D03*
D152*
X003709Y016060D03*
X004502Y016236D03*
X004502Y015771D03*
X004502Y016966D03*
D153*
X004464Y017041D03*
X005080Y016966D03*
X005080Y015796D03*
X005080Y015771D03*
X003621Y017016D03*
D154*
X005112Y016714D03*
X005112Y016689D03*
X005112Y016664D03*
X005112Y016098D03*
X005112Y016073D03*
X005112Y016047D03*
X005112Y016022D03*
X001741Y015783D03*
X001665Y016073D03*
X001665Y016098D03*
X001665Y016123D03*
X001665Y016613D03*
X001665Y016639D03*
X001665Y016664D03*
X001665Y016689D03*
X001741Y016978D03*
D155*
X002735Y016941D03*
X002785Y016563D03*
X002785Y016538D03*
X002785Y016513D03*
X002785Y016488D03*
X003187Y016022D03*
X003628Y015783D03*
X002735Y015821D03*
X004508Y015783D03*
X004508Y016941D03*
X004508Y016953D03*
D156*
X003628Y017041D03*
X001728Y016966D03*
X001728Y015796D03*
D157*
X002735Y015796D03*
D158*
X003628Y015796D03*
X004521Y015834D03*
X004521Y016186D03*
X004521Y016903D03*
D159*
X003628Y016966D03*
X002785Y016551D03*
X002785Y016525D03*
X002785Y016475D03*
X003187Y016010D03*
X004508Y015796D03*
D160*
X004502Y016249D03*
X002791Y016463D03*
X002728Y016953D03*
X002728Y015808D03*
D161*
X002728Y015846D03*
X002766Y016047D03*
X003194Y015947D03*
X003634Y015808D03*
X004527Y015846D03*
X004527Y016173D03*
X004527Y016840D03*
X004527Y016865D03*
X004062Y016790D03*
X004062Y016764D03*
X003194Y016764D03*
X002728Y016890D03*
X002263Y016815D03*
X002263Y016790D03*
X002263Y016764D03*
X002263Y016739D03*
X002263Y016714D03*
X002263Y016689D03*
X002263Y016664D03*
X002263Y016639D03*
X002263Y016613D03*
X002263Y016588D03*
X002263Y016563D03*
X002263Y016412D03*
X002263Y016387D03*
X002263Y016374D03*
X002263Y016349D03*
X002263Y016299D03*
X002263Y016224D03*
X002263Y016198D03*
X002263Y016173D03*
X002263Y016148D03*
X002263Y016123D03*
X002263Y016098D03*
X002263Y016073D03*
X002263Y016047D03*
X002263Y016022D03*
X002263Y015997D03*
X002263Y015972D03*
X002263Y015947D03*
D162*
X002275Y016249D03*
X002275Y016538D03*
X003181Y016047D03*
X004062Y016022D03*
X004062Y015997D03*
X004514Y015808D03*
X004514Y016224D03*
X004514Y016764D03*
X004514Y016915D03*
X003621Y016953D03*
D163*
X003187Y016815D03*
X003187Y016790D03*
X003200Y015922D03*
X003628Y015821D03*
X004068Y015922D03*
X004533Y015896D03*
X004533Y015871D03*
X004533Y016123D03*
X004533Y016148D03*
X004533Y016790D03*
X004533Y016815D03*
D164*
X004521Y016890D03*
X004521Y016198D03*
X004521Y015821D03*
D165*
X005087Y015821D03*
X005087Y015846D03*
X004521Y016299D03*
X005087Y016915D03*
X005087Y016941D03*
D166*
X005106Y016777D03*
X005106Y016752D03*
X004439Y016400D03*
X005106Y016010D03*
X005106Y015985D03*
X005106Y015959D03*
X002854Y016337D03*
X001709Y015834D03*
X001697Y015884D03*
X001684Y015934D03*
X001672Y016010D03*
X001672Y016035D03*
X001672Y016702D03*
X001672Y016727D03*
X001672Y016752D03*
X001684Y016827D03*
X001697Y016878D03*
X001709Y016903D03*
X001722Y016928D03*
D167*
X002275Y016525D03*
X002275Y016261D03*
X002275Y016236D03*
X002779Y016500D03*
X002728Y016928D03*
X003181Y016060D03*
X003181Y016035D03*
X002728Y015834D03*
X004049Y016060D03*
X004062Y016035D03*
X004062Y016010D03*
X004062Y015985D03*
X004514Y016211D03*
X004514Y016928D03*
D168*
X004546Y016035D03*
X004546Y016010D03*
X004546Y015985D03*
X003628Y015834D03*
X002747Y016626D03*
X002257Y016852D03*
D169*
X004521Y016286D03*
X005087Y015834D03*
X005087Y016903D03*
X005087Y016928D03*
D170*
X004055Y016840D03*
X003602Y016764D03*
X003187Y016840D03*
X002747Y016639D03*
X002747Y016613D03*
X003665Y016047D03*
X003628Y015846D03*
X004546Y015997D03*
X004546Y016022D03*
D171*
X005099Y015934D03*
X005099Y015909D03*
X005099Y016802D03*
X005099Y016827D03*
X005099Y016852D03*
X002735Y017016D03*
X001678Y016802D03*
X001678Y016777D03*
X001678Y015985D03*
X001678Y015959D03*
X001703Y015859D03*
D172*
X002263Y015859D03*
D173*
X002263Y015934D03*
X002263Y015959D03*
X002263Y015985D03*
X002263Y016010D03*
X002263Y016035D03*
X002263Y016060D03*
X002263Y016085D03*
X002263Y016110D03*
X002263Y016136D03*
X002263Y016161D03*
X002263Y016186D03*
X002263Y016211D03*
X002263Y016337D03*
X002263Y016362D03*
X002263Y016400D03*
X002263Y016425D03*
X002263Y016475D03*
X002263Y016551D03*
X002263Y016576D03*
X002263Y016601D03*
X002263Y016626D03*
X002263Y016651D03*
X002263Y016676D03*
X002263Y016702D03*
X002263Y016727D03*
X002263Y016752D03*
X002263Y016777D03*
X002263Y016802D03*
X002728Y016903D03*
X003194Y016752D03*
X004062Y016752D03*
X004062Y016777D03*
X004527Y016852D03*
X004527Y016878D03*
X004527Y016161D03*
X004527Y015859D03*
X004074Y015934D03*
X003194Y015934D03*
X002728Y015859D03*
D174*
X003194Y015859D03*
D175*
X003628Y015859D03*
X002722Y015959D03*
X002722Y015985D03*
X002735Y016702D03*
X002735Y016727D03*
X002735Y016752D03*
X003628Y016852D03*
D176*
X004068Y015859D03*
D177*
X004508Y016324D03*
X005099Y015947D03*
X005099Y015922D03*
X005099Y016815D03*
X005099Y016840D03*
X001703Y016890D03*
X001678Y016790D03*
X001678Y015972D03*
X001703Y015871D03*
D178*
X002263Y015871D03*
X003194Y015871D03*
D179*
X002728Y015871D03*
X002728Y015896D03*
X002753Y016588D03*
X002728Y016865D03*
X002263Y016840D03*
X003621Y016915D03*
X004062Y016815D03*
X004540Y016098D03*
X004540Y016073D03*
X004540Y016047D03*
X004540Y015972D03*
X004540Y015947D03*
X004540Y015922D03*
D180*
X003628Y015871D03*
X002722Y015947D03*
X002722Y015972D03*
X002735Y016714D03*
X002735Y016739D03*
X002735Y016764D03*
D181*
X003628Y015972D03*
X003628Y015947D03*
X004068Y015871D03*
D182*
X004451Y016374D03*
X005093Y016865D03*
X005093Y016890D03*
X005093Y015896D03*
X005093Y015871D03*
D183*
X004055Y016852D03*
X002257Y015884D03*
D184*
X002263Y015909D03*
X002728Y015884D03*
X002753Y016576D03*
X002753Y016601D03*
X002728Y016852D03*
X003181Y016827D03*
X003621Y016903D03*
X004062Y016827D03*
X004540Y016110D03*
X004540Y016085D03*
X004540Y016060D03*
X004540Y015959D03*
X004540Y015934D03*
X004540Y015909D03*
X004074Y015909D03*
D185*
X004074Y015884D03*
X003634Y015884D03*
X003194Y015884D03*
X002728Y016010D03*
D186*
X002735Y016878D03*
X003187Y016802D03*
X003187Y016777D03*
X004533Y016777D03*
X004533Y016802D03*
X004533Y016827D03*
X004533Y016136D03*
X004533Y015884D03*
D187*
X004445Y016387D03*
X002848Y016349D03*
X001691Y015922D03*
X001691Y015896D03*
X001691Y016840D03*
D188*
X002263Y016865D03*
X002728Y016790D03*
X002741Y016689D03*
X002741Y016664D03*
X002728Y015922D03*
X002263Y015896D03*
X003194Y015896D03*
X004074Y015896D03*
D189*
X003628Y015896D03*
X003628Y015922D03*
X002722Y016022D03*
X003628Y016790D03*
D190*
X002741Y016676D03*
X002741Y016651D03*
X002728Y016777D03*
X002728Y016802D03*
X002728Y015934D03*
X002728Y015909D03*
D191*
X003194Y015909D03*
D192*
X003628Y015909D03*
X002722Y016035D03*
X003628Y016777D03*
X003628Y016802D03*
D193*
X002257Y015922D03*
D194*
X003628Y015934D03*
X003628Y015959D03*
D195*
X004068Y015972D03*
X004068Y015947D03*
X002735Y016915D03*
D196*
X003194Y015985D03*
X003194Y015959D03*
D197*
X004068Y015959D03*
D198*
X003194Y015972D03*
X003194Y015997D03*
D199*
X003621Y016010D03*
X003621Y016035D03*
X003621Y015985D03*
D200*
X002728Y015997D03*
D201*
X003621Y015997D03*
X003621Y016022D03*
X002263Y016890D03*
D202*
X001665Y016676D03*
X001665Y016651D03*
X001665Y016626D03*
X001665Y016136D03*
X001665Y016110D03*
X001665Y016085D03*
X001665Y016060D03*
X005112Y016060D03*
X005112Y016035D03*
X005112Y016085D03*
X005112Y016676D03*
X005112Y016702D03*
X005112Y016727D03*
D203*
X004055Y016047D03*
X002282Y016274D03*
X002282Y016488D03*
X002282Y016513D03*
D204*
X002810Y016425D03*
X002810Y016060D03*
X004483Y017016D03*
D205*
X004313Y016639D03*
X002980Y016073D03*
D206*
X002955Y016148D03*
X003395Y016689D03*
X003860Y016098D03*
X003873Y016073D03*
D207*
X004319Y016626D03*
X002974Y016085D03*
D208*
X002974Y016098D03*
X004319Y016613D03*
D209*
X004326Y016601D03*
X002967Y016110D03*
D210*
X002967Y016123D03*
D211*
X002948Y016173D03*
X003414Y016639D03*
X003854Y016123D03*
X004345Y016513D03*
X004345Y016538D03*
X004345Y016563D03*
D212*
X005118Y016563D03*
X005118Y016588D03*
X005118Y016613D03*
X005118Y016639D03*
X005118Y016198D03*
X005118Y016173D03*
X005118Y016148D03*
X005118Y016123D03*
X002867Y016324D03*
X002728Y017029D03*
X001659Y016588D03*
X001659Y016563D03*
X001659Y016538D03*
X001659Y016513D03*
X001659Y016488D03*
X001659Y016463D03*
X001659Y016437D03*
X001659Y016349D03*
X001659Y016324D03*
X001659Y016299D03*
X001659Y016274D03*
X001659Y016249D03*
X001659Y016224D03*
X001659Y016198D03*
X001659Y016173D03*
X001659Y016148D03*
X003395Y018337D03*
D213*
X002961Y016136D03*
D214*
X003414Y016626D03*
X003854Y016136D03*
X004345Y016525D03*
X004345Y016551D03*
D215*
X003791Y016249D03*
X003791Y016224D03*
X003791Y016198D03*
X003841Y016148D03*
X003477Y016563D03*
X003426Y016613D03*
D216*
X003433Y016601D03*
X003483Y016551D03*
X003483Y016525D03*
X003835Y016161D03*
X004363Y016500D03*
X002942Y016186D03*
X001860Y017091D03*
D217*
X002489Y016525D03*
X002590Y016525D03*
X002590Y016500D03*
X002590Y016551D03*
X002590Y016261D03*
X002590Y016236D03*
X002489Y016236D03*
X002489Y016261D03*
X001999Y016337D03*
X001999Y016425D03*
X003005Y016525D03*
X003005Y016551D03*
X003005Y016576D03*
X003106Y016576D03*
X003106Y016551D03*
X003106Y016525D03*
X003307Y016236D03*
X003307Y016211D03*
X003307Y016186D03*
D218*
X003407Y016186D03*
X003407Y016211D03*
X003407Y016236D03*
X003860Y016525D03*
X003860Y016551D03*
X003961Y016551D03*
X003961Y016525D03*
X004175Y016261D03*
X004175Y016236D03*
X004275Y016236D03*
X004275Y016261D03*
X004791Y016312D03*
X004791Y016450D03*
X002087Y016475D03*
X002087Y016286D03*
D219*
X002936Y016249D03*
X002936Y016224D03*
X002936Y016198D03*
X003628Y017079D03*
D220*
X003106Y016563D03*
X003106Y016538D03*
X003005Y016538D03*
X003005Y016563D03*
X002590Y016538D03*
X002590Y016513D03*
X002489Y016538D03*
X002489Y016274D03*
X002489Y016249D03*
X002489Y016224D03*
X002590Y016224D03*
X002590Y016249D03*
X002590Y016274D03*
X001999Y016349D03*
X001999Y016412D03*
X001999Y016437D03*
X003307Y016224D03*
X003307Y016198D03*
X004779Y016349D03*
D221*
X004791Y016463D03*
X004275Y016274D03*
X004275Y016249D03*
X004275Y016224D03*
X004175Y016224D03*
X004175Y016249D03*
X004175Y016274D03*
X003961Y016513D03*
X003961Y016538D03*
X003961Y016563D03*
X003860Y016563D03*
X003860Y016538D03*
X003860Y016513D03*
X003407Y016224D03*
X003407Y016198D03*
X002502Y016488D03*
X002087Y016488D03*
X002087Y016299D03*
D222*
X001917Y016425D03*
X002609Y016211D03*
X004156Y016211D03*
X004772Y016475D03*
D223*
X002936Y016236D03*
X002936Y016211D03*
D224*
X003791Y016211D03*
X003791Y016236D03*
D225*
X003294Y016249D03*
D226*
X003558Y016450D03*
X003584Y016425D03*
X003609Y016400D03*
X003634Y017066D03*
X002904Y016261D03*
X001810Y017066D03*
D227*
X002099Y016274D03*
X004779Y016299D03*
D228*
X002282Y016286D03*
X002282Y016500D03*
D229*
X002005Y016299D03*
X001917Y016349D03*
D230*
X003552Y016463D03*
X003690Y016324D03*
X003716Y016299D03*
D231*
X004785Y016337D03*
X004785Y016425D03*
X002496Y016500D03*
X001992Y016450D03*
X001992Y016312D03*
D232*
X003703Y016312D03*
D233*
X004785Y016324D03*
X004785Y016437D03*
X002496Y016513D03*
X001992Y016324D03*
D234*
X002225Y016324D03*
X002225Y016463D03*
X002804Y016437D03*
X004489Y017003D03*
D235*
X004791Y016362D03*
X002087Y016337D03*
D236*
X003653Y016362D03*
X003678Y016337D03*
D237*
X004703Y016337D03*
D238*
X001992Y016362D03*
D239*
X004458Y016362D03*
X004458Y016752D03*
D240*
X001691Y016387D03*
X001691Y016374D03*
D241*
X002728Y017054D03*
X003571Y016437D03*
X003596Y016412D03*
X003621Y016387D03*
X003634Y016374D03*
X005093Y016387D03*
D242*
X005099Y016374D03*
D243*
X001691Y016400D03*
D244*
X001728Y016953D03*
X004433Y017079D03*
X004433Y016412D03*
D245*
X004785Y016412D03*
X001992Y016463D03*
D246*
X005112Y016425D03*
D247*
X004433Y016463D03*
X003502Y016513D03*
D248*
X002112Y016500D03*
X002011Y016475D03*
D249*
X003439Y016588D03*
X004420Y016488D03*
D250*
X004307Y016651D03*
D251*
X004307Y016664D03*
D252*
X004301Y016689D03*
D253*
X003389Y016702D03*
X003389Y016727D03*
D254*
X003389Y016739D03*
X003389Y016714D03*
D255*
X004294Y016714D03*
X004294Y016739D03*
D256*
X004294Y016727D03*
D257*
X004055Y016802D03*
X002257Y016827D03*
D258*
X002735Y016840D03*
X002735Y016815D03*
D259*
X003181Y016865D03*
X003621Y016840D03*
X003621Y016815D03*
X004062Y016865D03*
D260*
X002735Y016827D03*
D261*
X002263Y016878D03*
X003621Y016827D03*
D262*
X003621Y016878D03*
X003181Y016852D03*
D263*
X003621Y016865D03*
X003621Y016890D03*
D264*
X003181Y016878D03*
X004062Y016878D03*
D265*
X003181Y016890D03*
D266*
X004055Y016890D03*
D267*
X003621Y016928D03*
D268*
X003621Y016941D03*
D269*
X003621Y016978D03*
D270*
X003621Y017003D03*
D271*
X003621Y017029D03*
D272*
X002728Y017041D03*
D273*
X003628Y017054D03*
D274*
X005061Y017066D03*
D275*
X002735Y017091D03*
D276*
X003634Y017091D03*
D277*
X003389Y017104D03*
D278*
X003389Y017129D03*
D279*
X003395Y017142D03*
D280*
X003389Y017217D03*
D281*
X003395Y017230D03*
D282*
X003389Y017242D03*
D283*
X003395Y017255D03*
D284*
X003389Y017268D03*
D285*
X003395Y017280D03*
D286*
X003389Y017293D03*
D287*
X003395Y017305D03*
D288*
X003389Y017318D03*
D289*
X003389Y017381D03*
D290*
X003395Y017393D03*
D291*
X003389Y017406D03*
D292*
X003395Y017431D03*
D293*
X003389Y017444D03*
D294*
X003395Y017456D03*
D295*
X003389Y017481D03*
D296*
X003395Y017494D03*
D297*
X003389Y017519D03*
D298*
X003395Y017544D03*
D299*
X003389Y017557D03*
D300*
X003389Y017569D03*
D301*
X003395Y017582D03*
D302*
X003395Y017595D03*
D303*
X003389Y017620D03*
D304*
X003389Y017632D03*
D305*
X003395Y017645D03*
D306*
X003395Y017657D03*
D307*
X003395Y017670D03*
D308*
X003389Y017695D03*
D309*
X003389Y017708D03*
D310*
X003389Y017720D03*
D311*
X003389Y017733D03*
D312*
X003389Y017746D03*
D313*
X003389Y017758D03*
D314*
X003389Y017771D03*
D315*
X003389Y017783D03*
D316*
X003389Y017796D03*
D317*
X003389Y017808D03*
D318*
X003389Y017821D03*
D319*
X003389Y017834D03*
D320*
X003389Y017846D03*
D321*
X003389Y017859D03*
D322*
X003395Y017871D03*
D323*
X003395Y017884D03*
D324*
X003395Y017896D03*
D325*
X003389Y017909D03*
D326*
X003389Y017922D03*
D327*
X003395Y017934D03*
D328*
X003395Y017947D03*
D329*
X003389Y017959D03*
D330*
X003395Y017972D03*
D331*
X003389Y017985D03*
D332*
X003389Y017997D03*
D333*
X003395Y018010D03*
D334*
X003389Y018022D03*
D335*
X003395Y018035D03*
D336*
X003395Y018047D03*
D337*
X003389Y018060D03*
D338*
X003395Y018073D03*
D339*
X003389Y018085D03*
D340*
X003389Y018098D03*
D341*
X003389Y018110D03*
D342*
X003395Y018123D03*
D343*
X003395Y018135D03*
D344*
X003395Y018148D03*
D345*
X003395Y018161D03*
D346*
X003389Y018173D03*
D347*
X003389Y018186D03*
D348*
X003395Y018198D03*
D349*
X003389Y018211D03*
D350*
X003395Y018224D03*
D351*
X003389Y018236D03*
D352*
X003389Y018249D03*
D353*
X003389Y018261D03*
D354*
X003395Y018274D03*
D355*
X003389Y018286D03*
D356*
X003389Y018299D03*
D357*
X003389Y018312D03*
D358*
X006651Y017881D02*
X006651Y014381D01*
X007651Y014381D02*
X007651Y012881D01*
X007151Y012381D01*
X006151Y011881D02*
X006151Y013381D01*
X005151Y014381D01*
X004651Y014381D01*
X003151Y012881D01*
X002651Y012881D01*
X002151Y013381D01*
X001901Y013381D01*
X002651Y012881D02*
X003151Y012381D01*
X003151Y009381D01*
X002401Y008631D01*
X004651Y006881D02*
X004651Y006631D01*
X004651Y006881D02*
X008151Y003381D01*
X011151Y003381D01*
X012151Y002381D01*
X014151Y004381D02*
X015651Y004381D01*
X015651Y006368D01*
X015651Y006381D01*
X016151Y006381D01*
X016651Y006881D01*
X016651Y011381D01*
X017651Y012381D01*
X019651Y012381D01*
X019651Y010381D02*
X017651Y010381D01*
X014401Y010881D02*
X010651Y010881D01*
X009151Y008881D02*
X006151Y011881D01*
X007651Y014381D02*
X008651Y014381D01*
X008651Y015381D01*
X011151Y017881D01*
X009651Y014381D02*
X019651Y014381D01*
X022651Y014381D02*
X022651Y015881D01*
X022151Y007881D02*
X020651Y007881D01*
X022151Y007881D02*
X022651Y007381D01*
X022651Y007328D01*
X022651Y006131D02*
X022651Y005881D01*
X022151Y005881D01*
X021651Y005381D01*
X021651Y003881D01*
X020151Y002381D01*
X018151Y004381D02*
X018151Y004881D01*
X020651Y004881D01*
X018651Y006368D02*
X018651Y006381D01*
X018151Y005881D01*
X018151Y004881D01*
X017151Y004381D02*
X017151Y003881D01*
X015651Y002381D01*
X015651Y004381D02*
X016151Y004381D01*
X009151Y007381D02*
X009151Y007393D01*
X009151Y008881D01*
X004651Y002631D02*
X004651Y002381D01*
X007651Y002381D01*
D359*
X011151Y004381D02*
X011151Y005881D01*
X012651Y007381D01*
X008651Y010881D02*
X008651Y011881D01*
X009651Y012881D01*
X020151Y012881D01*
X020651Y012381D01*
X020651Y009881D01*
X021151Y009381D01*
X021151Y012381D02*
X021151Y013881D01*
X020651Y014381D01*
X021651Y014381D02*
X022651Y013381D01*
X022651Y012381D01*
X021651Y014381D02*
X021651Y015881D01*
X012151Y011881D02*
X009651Y011881D01*
X007151Y009381D02*
X006651Y008881D01*
X004651Y008881D01*
X004401Y008631D01*
D360*
X019651Y014381D02*
X019651Y015881D01*
M02*
